<svg  width="62" height="61" viewBox="0 0 62 61" fill="none" xmlns="http://www.w3.org/2000/svg">
<rect width="62" height="61" />
<path d="M48.5441 27.9711H19.6882L32.2949 15.5677C33.3024 14.5765 33.3024 12.9498 32.2949 11.9585C31.8123 11.4826 31.157 11.2151 30.4737 11.2151C29.7903 11.2151 29.1351 11.4826 28.6524 11.9585L11.6282 28.7081C10.6207 29.6994 10.6207 31.3006 11.6282 32.2919L28.6524 49.0415C29.6599 50.0327 31.2874 50.0327 32.2949 49.0415C33.3024 48.0502 33.3024 46.449 32.2949 45.4577L19.6882 33.0544H48.5441C49.9649 33.0544 51.1274 31.9106 51.1274 30.5127C51.1274 29.1148 49.9649 27.9711 48.5441 27.9711Z" fill="#5A4FF3"/>
</svg>
