<svg width="74" height="61" viewBox="0 0 74 61" fill="none" xmlns="http://www.w3.org/2000/svg">
<path d="M16.0603 33.0416H50.5012L35.4545 45.445C34.252 46.4362 34.252 48.0629 35.4545 49.0541C36.657 50.0454 38.5995 50.0454 39.802 49.0541L60.1212 32.3045C61.3237 31.3133 61.3237 29.712 60.1212 28.7208L39.8328 11.9458C39.2568 11.4699 38.4747 11.2024 37.6591 11.2024C36.8435 11.2024 36.0614 11.4699 35.4853 11.9458C34.2828 12.937 34.2828 14.5383 35.4853 15.5295L50.5012 27.9583H16.0603C14.3645 27.9583 12.977 29.102 12.977 30.5C12.977 31.8979 14.3645 33.0416 16.0603 33.0416Z" fill="#5A4FF3"/>
</svg>
