<svg width="275" height="309" viewBox="0 0 275 309" fill="none" xmlns="http://www.w3.org/2000/svg">
<g clip-path="url(#clip0_1_145)" filter="url(#filter0_d_1_145)">
<rect x="42" y="37" width="207.794" height="224.418" rx="4.73913" fill="white" stroke="#E9EFF4" stroke-width="0.789855"/>
<g clip-path="url(#clip1_1_145)">
<g clip-path="url(#clip2_1_145)">
<g clip-path="url(#clip3_1_145)">
<path d="M71.284 121.478V122.035H68.2999V121.548L69.77 119.601C69.9508 119.362 70.0889 119.159 70.1842 118.993C70.2795 118.824 70.3455 118.674 70.3822 118.542C70.4188 118.407 70.4372 118.27 70.4372 118.131C70.4372 117.955 70.4091 117.796 70.3528 117.654C70.2966 117.51 70.2148 117.395 70.1072 117.31C69.9997 117.224 69.8702 117.182 69.7186 117.182C69.5207 117.182 69.3581 117.228 69.2311 117.321C69.1064 117.411 69.0148 117.538 68.9561 117.702C68.8974 117.866 68.8681 118.054 68.8681 118.267H68.2192C68.2192 117.966 68.2742 117.691 68.3842 117.442C68.4966 117.193 68.664 116.995 68.8865 116.848C69.1089 116.699 69.3862 116.624 69.7186 116.624C70.0046 116.624 70.249 116.684 70.4518 116.804C70.6571 116.921 70.8135 117.087 70.9211 117.302C71.0311 117.515 71.086 117.764 71.086 118.05C71.086 118.207 71.064 118.366 71.0201 118.527C70.9785 118.686 70.9199 118.845 70.8441 119.004C70.7708 119.162 70.684 119.319 70.5838 119.473C70.4836 119.627 70.3761 119.778 70.2612 119.927L69.0771 121.478H71.284ZM73.4201 119.495L72.9032 119.355L73.1304 116.698H75.4547V117.324H73.6767L73.552 118.776C73.6351 118.72 73.7353 118.667 73.8526 118.619C73.97 118.57 74.1068 118.545 74.2632 118.545C74.4734 118.545 74.6604 118.588 74.8241 118.674C74.9903 118.757 75.1309 118.876 75.2457 119.033C75.3606 119.189 75.4486 119.377 75.5097 119.597C75.5708 119.817 75.6013 120.063 75.6013 120.334C75.6013 120.591 75.5708 120.827 75.5097 121.042C75.451 121.257 75.3606 121.445 75.2384 121.606C75.1186 121.765 74.9671 121.889 74.7838 121.977C74.603 122.065 74.3915 122.109 74.1496 122.109C73.9687 122.109 73.7977 122.079 73.6364 122.021C73.475 121.96 73.3296 121.868 73.2001 121.746C73.073 121.621 72.9691 121.467 72.8885 121.284C72.8078 121.098 72.7577 120.88 72.7382 120.631H73.3504C73.3748 120.832 73.4213 121 73.4897 121.137C73.5606 121.274 73.651 121.378 73.761 121.449C73.8734 121.517 74.003 121.551 74.1496 121.551C74.2742 121.551 74.3867 121.523 74.4869 121.467C74.5871 121.411 74.6714 121.33 74.7398 121.225C74.8082 121.12 74.8608 120.993 74.8975 120.844C74.9341 120.695 74.9524 120.527 74.9524 120.342C74.9524 120.173 74.9341 120.017 74.8975 119.872C74.8608 119.728 74.8058 119.602 74.7325 119.495C74.6592 119.387 74.57 119.304 74.4649 119.245C74.3622 119.184 74.2425 119.154 74.1056 119.154C73.9223 119.154 73.7867 119.184 73.6987 119.245C73.6131 119.307 73.5203 119.39 73.4201 119.495Z" fill="#E6E6E6"/>
<path d="M93.8078 121.478V122.035H90.8237V121.548L92.2938 119.601C92.4746 119.362 92.6127 119.159 92.708 118.993C92.8033 118.824 92.8693 118.674 92.906 118.542C92.9426 118.407 92.961 118.27 92.961 118.131C92.961 117.955 92.9329 117.796 92.8767 117.654C92.8204 117.51 92.7386 117.395 92.631 117.31C92.5235 117.224 92.394 117.182 92.2424 117.182C92.0445 117.182 91.8819 117.228 91.7549 117.321C91.6302 117.411 91.5386 117.538 91.4799 117.702C91.4213 117.866 91.3919 118.054 91.3919 118.267H90.743C90.743 117.966 90.798 117.691 90.908 117.442C91.0204 117.193 91.1879 116.995 91.4103 116.848C91.6327 116.699 91.9101 116.624 92.2424 116.624C92.5284 116.624 92.7728 116.684 92.9756 116.804C93.1809 116.921 93.3373 117.087 93.4449 117.302C93.5549 117.515 93.6098 117.764 93.6098 118.05C93.6098 118.207 93.5879 118.366 93.5439 118.527C93.5023 118.686 93.4437 118.845 93.3679 119.004C93.2946 119.162 93.2078 119.319 93.1076 119.473C93.0074 119.627 92.8999 119.778 92.785 119.927L91.6009 121.478H93.8078ZM97.3699 116.69H97.4176V117.266H97.3699C97.062 117.266 96.809 117.324 96.6111 117.442C96.4156 117.557 96.2628 117.712 96.1528 117.907C96.0453 118.1 95.9707 118.318 95.9292 118.56C95.8877 118.802 95.8669 119.047 95.8669 119.297V120.081C95.8669 120.318 95.8889 120.529 95.9329 120.712C95.9793 120.893 96.0392 121.045 96.1125 121.17C96.1883 121.295 96.2726 121.389 96.3655 121.452C96.4608 121.516 96.5573 121.548 96.6551 121.548C96.7797 121.548 96.8897 121.518 96.985 121.46C97.0828 121.399 97.1634 121.314 97.227 121.207C97.2929 121.097 97.343 120.967 97.3773 120.818C97.4115 120.669 97.4286 120.505 97.4286 120.327C97.4286 120.168 97.4127 120.015 97.3809 119.869C97.3516 119.72 97.3064 119.588 97.2453 119.473C97.1842 119.355 97.106 119.264 97.0107 119.198C96.9178 119.129 96.8066 119.095 96.6771 119.095C96.5304 119.095 96.3936 119.142 96.2665 119.234C96.1418 119.325 96.0392 119.445 95.9585 119.594C95.8779 119.74 95.8302 119.9 95.8156 120.074L95.4819 120.07C95.5162 119.797 95.5736 119.563 95.6542 119.37C95.7349 119.175 95.8327 119.016 95.9475 118.894C96.0648 118.769 96.1944 118.678 96.3361 118.622C96.4779 118.564 96.627 118.534 96.7834 118.534C97.0107 118.534 97.205 118.584 97.3663 118.685C97.53 118.785 97.6632 118.919 97.7659 119.088C97.871 119.254 97.9479 119.442 97.9968 119.652C98.0457 119.86 98.0701 120.074 98.0701 120.294C98.0701 120.546 98.0396 120.782 97.9785 121.001C97.9198 121.221 97.8318 121.415 97.7145 121.581C97.5972 121.747 97.4494 121.876 97.271 121.969C97.095 122.062 96.8897 122.109 96.6551 122.109C96.4058 122.109 96.1907 122.05 96.0099 121.933C95.829 121.813 95.6787 121.654 95.5589 121.456C95.4416 121.258 95.3549 121.038 95.2986 120.796C95.2424 120.554 95.2143 120.309 95.2143 120.059V119.74C95.2143 119.364 95.2412 118.995 95.295 118.633C95.3488 118.272 95.4502 117.944 95.5993 117.651C95.7508 117.357 95.9683 117.124 96.2518 116.951C96.5378 116.777 96.9105 116.69 97.3699 116.69Z" fill="#E6E6E6"/>
<path d="M114.967 121.478V122.035H111.983V121.548L113.453 119.601C113.633 119.362 113.772 119.159 113.867 118.993C113.962 118.824 114.028 118.674 114.065 118.542C114.102 118.407 114.12 118.27 114.12 118.131C114.12 117.955 114.092 117.796 114.036 117.654C113.979 117.51 113.897 117.395 113.79 117.31C113.682 117.224 113.553 117.182 113.401 117.182C113.203 117.182 113.041 117.228 112.914 117.321C112.789 117.411 112.697 117.538 112.639 117.702C112.58 117.866 112.551 118.054 112.551 118.267H111.902C111.902 117.966 111.957 117.691 112.067 117.442C112.179 117.193 112.347 116.995 112.569 116.848C112.792 116.699 113.069 116.624 113.401 116.624C113.687 116.624 113.932 116.684 114.135 116.804C114.34 116.921 114.496 117.087 114.604 117.302C114.714 117.515 114.769 117.764 114.769 118.05C114.769 118.207 114.747 118.366 114.703 118.527C114.661 118.686 114.603 118.845 114.527 119.004C114.453 119.162 114.367 119.319 114.266 119.473C114.166 119.627 114.059 119.778 113.944 119.927L112.76 121.478H114.967ZM119.266 116.698V117.079L117.429 122.035H116.747L118.584 117.255H116.205V116.698H119.266Z" fill="#E6E6E6"/>
<path d="M134.078 121.478V122.035H131.094V121.548L132.564 119.601C132.745 119.362 132.883 119.159 132.978 118.993C133.073 118.824 133.139 118.674 133.176 118.542C133.213 118.407 133.231 118.27 133.231 118.131C133.231 117.955 133.203 117.796 133.147 117.654C133.09 117.51 133.009 117.395 132.901 117.31C132.793 117.224 132.664 117.182 132.512 117.182C132.314 117.182 132.152 117.228 132.025 117.321C131.9 117.411 131.809 117.538 131.75 117.702C131.691 117.866 131.662 118.054 131.662 118.267H131.013C131.013 117.966 131.068 117.691 131.178 117.442C131.29 117.193 131.458 116.995 131.68 116.848C131.903 116.699 132.18 116.624 132.512 116.624C132.798 116.624 133.043 116.684 133.246 116.804C133.451 116.921 133.607 117.087 133.715 117.302C133.825 117.515 133.88 117.764 133.88 118.05C133.88 118.207 133.858 118.366 133.814 118.527C133.772 118.686 133.714 118.845 133.638 119.004C133.565 119.162 133.478 119.319 133.378 119.473C133.277 119.627 133.17 119.778 133.055 119.927L131.871 121.478H134.078ZM138.278 120.591C138.278 120.916 138.215 121.192 138.091 121.419C137.966 121.644 137.796 121.815 137.581 121.933C137.366 122.05 137.123 122.109 136.852 122.109C136.583 122.109 136.341 122.05 136.126 121.933C135.911 121.815 135.741 121.644 135.616 121.419C135.492 121.192 135.429 120.916 135.429 120.591C135.429 120.378 135.464 120.184 135.532 120.008C135.6 119.83 135.697 119.674 135.822 119.542C135.949 119.41 136.099 119.309 136.272 119.238C136.446 119.165 136.638 119.128 136.848 119.128C137.124 119.128 137.37 119.192 137.585 119.319C137.8 119.443 137.969 119.616 138.091 119.836C138.215 120.056 138.278 120.307 138.278 120.591ZM137.633 120.576C137.633 120.378 137.6 120.204 137.534 120.052C137.47 119.898 137.38 119.778 137.262 119.693C137.145 119.607 137.007 119.564 136.848 119.564C136.687 119.564 136.549 119.607 136.434 119.693C136.319 119.778 136.23 119.898 136.166 120.052C136.105 120.204 136.075 120.378 136.075 120.576C136.075 120.782 136.105 120.957 136.166 121.104C136.227 121.248 136.315 121.36 136.43 121.438C136.547 121.513 136.689 121.551 136.855 121.551C137.019 121.551 137.158 121.513 137.273 121.438C137.391 121.36 137.48 121.248 137.541 121.104C137.602 120.957 137.633 120.782 137.633 120.576ZM138.179 118.087C138.179 118.346 138.121 118.579 138.006 118.787C137.892 118.995 137.734 119.159 137.534 119.278C137.336 119.398 137.11 119.458 136.855 119.458C136.596 119.458 136.367 119.398 136.166 119.278C135.966 119.159 135.809 118.995 135.697 118.787C135.584 118.579 135.528 118.346 135.528 118.087C135.528 117.777 135.584 117.513 135.697 117.295C135.812 117.078 135.969 116.911 136.17 116.797C136.37 116.682 136.599 116.624 136.855 116.624C137.114 116.624 137.343 116.682 137.541 116.797C137.739 116.911 137.894 117.078 138.006 117.295C138.121 117.513 138.179 117.777 138.179 118.087ZM137.53 118.098C137.53 117.92 137.502 117.762 137.446 117.625C137.392 117.488 137.314 117.381 137.211 117.302C137.111 117.222 136.992 117.182 136.855 117.182C136.719 117.182 136.599 117.219 136.496 117.295C136.396 117.368 136.318 117.474 136.261 117.61C136.205 117.747 136.177 117.91 136.177 118.098C136.177 118.281 136.204 118.441 136.258 118.578C136.314 118.715 136.393 118.821 136.496 118.897C136.599 118.973 136.719 119.011 136.855 119.011C136.992 119.011 137.111 118.973 137.211 118.897C137.314 118.821 137.392 118.715 137.446 118.578C137.502 118.441 137.53 118.281 137.53 118.098Z" fill="#E6E6E6"/>
<path d="M159.645 116.668V122.035H158.996V117.515L157.874 118.014V117.401L159.546 116.668H159.645Z" fill="#E6E6E6"/>
<path d="M181.173 121.478V122.035H178.189V121.548L179.659 119.601C179.84 119.362 179.978 119.159 180.073 118.993C180.169 118.824 180.235 118.674 180.271 118.542C180.308 118.407 180.326 118.27 180.326 118.131C180.326 117.955 180.298 117.796 180.242 117.654C180.186 117.51 180.104 117.395 179.996 117.31C179.889 117.224 179.759 117.182 179.608 117.182C179.41 117.182 179.247 117.228 179.12 117.321C178.995 117.411 178.904 117.538 178.845 117.702C178.786 117.866 178.757 118.054 178.757 118.267H178.108C178.108 117.966 178.163 117.691 178.273 117.442C178.386 117.193 178.553 116.995 178.775 116.848C178.998 116.699 179.275 116.624 179.608 116.624C179.894 116.624 180.138 116.684 180.341 116.804C180.546 116.921 180.703 117.087 180.81 117.302C180.92 117.515 180.975 117.764 180.975 118.05C180.975 118.207 180.953 118.366 180.909 118.527C180.868 118.686 180.809 118.845 180.733 119.004C180.66 119.162 180.573 119.319 180.473 119.473C180.373 119.627 180.265 119.778 180.15 119.927L178.966 121.478H181.173Z" fill="#999999"/>
<path d="M198.132 119.033H198.55C198.736 119.033 198.89 118.994 199.012 118.916C199.134 118.835 199.225 118.726 199.283 118.589C199.345 118.45 199.375 118.294 199.375 118.12C199.375 117.915 199.348 117.742 199.294 117.603C199.241 117.464 199.16 117.359 199.052 117.288C198.947 117.217 198.814 117.182 198.653 117.182C198.501 117.182 198.369 117.219 198.257 117.295C198.145 117.368 198.058 117.474 197.997 117.61C197.936 117.747 197.905 117.909 197.905 118.094H197.26C197.26 117.823 197.316 117.576 197.428 117.354C197.543 117.131 197.705 116.954 197.912 116.822C198.123 116.69 198.369 116.624 198.653 116.624C198.924 116.624 199.162 116.682 199.368 116.797C199.573 116.909 199.733 117.078 199.848 117.302C199.965 117.525 200.024 117.802 200.024 118.135C200.024 118.269 199.998 118.413 199.947 118.567C199.898 118.719 199.819 118.861 199.709 118.993C199.601 119.124 199.459 119.233 199.283 119.319C199.11 119.402 198.897 119.443 198.646 119.443H198.132V119.033ZM198.132 119.59V119.183H198.646C198.944 119.183 199.187 119.223 199.375 119.304C199.563 119.385 199.709 119.492 199.811 119.627C199.914 119.761 199.985 119.909 200.024 120.07C200.066 120.229 200.086 120.388 200.086 120.547C200.086 120.796 200.05 121.017 199.976 121.21C199.905 121.404 199.804 121.567 199.672 121.702C199.543 121.836 199.391 121.938 199.217 122.006C199.044 122.074 198.855 122.109 198.649 122.109C198.449 122.109 198.263 122.076 198.092 122.01C197.921 121.944 197.771 121.848 197.641 121.724C197.512 121.597 197.41 121.441 197.337 121.258C197.266 121.072 197.23 120.861 197.23 120.624H197.879C197.879 120.81 197.91 120.972 197.971 121.111C198.032 121.251 198.12 121.36 198.235 121.438C198.35 121.513 198.488 121.551 198.649 121.551C198.811 121.551 198.95 121.516 199.067 121.445C199.184 121.372 199.275 121.262 199.338 121.115C199.404 120.968 199.437 120.784 199.437 120.562C199.437 120.339 199.401 120.157 199.327 120.015C199.257 119.871 199.155 119.765 199.023 119.696C198.891 119.626 198.734 119.59 198.55 119.59H198.132Z" fill="#999999"/>
</g>
<g clip-path="url(#clip4_1_145)">
<path d="M74.0839 146.858V147.415H70.8212V147.015L72.8045 143.316H73.325L72.8045 144.387L71.5434 146.858H74.0839ZM73.49 143.316V148.654H72.8411V143.316H73.49Z" fill="#999999"/>
<path d="M94.3385 146.114L93.8216 145.974L94.0489 143.316H96.3731V143.943H94.5951L94.4705 145.395C94.5536 145.339 94.6538 145.286 94.7711 145.237C94.8884 145.189 95.0253 145.164 95.1817 145.164C95.3919 145.164 95.5788 145.207 95.7426 145.292C95.9088 145.376 96.0493 145.495 96.1642 145.652C96.279 145.808 96.367 145.996 96.4281 146.216C96.4892 146.436 96.5198 146.682 96.5198 146.953C96.5198 147.21 96.4892 147.446 96.4281 147.661C96.3695 147.876 96.279 148.064 96.1568 148.225C96.0371 148.384 95.8856 148.508 95.7023 148.596C95.5214 148.684 95.31 148.727 95.068 148.727C94.8872 148.727 94.7161 148.698 94.5548 148.64C94.3935 148.578 94.2481 148.487 94.1185 148.365C93.9915 148.24 93.8876 148.086 93.8069 147.903C93.7263 147.717 93.6762 147.499 93.6566 147.25H94.2689C94.2933 147.451 94.3397 147.619 94.4082 147.756C94.479 147.893 94.5695 147.997 94.6794 148.068C94.7919 148.136 94.9214 148.17 95.068 148.17C95.1927 148.17 95.3051 148.142 95.4053 148.086C95.5055 148.03 95.5898 147.949 95.6583 147.844C95.7267 147.739 95.7792 147.612 95.8159 147.463C95.8526 147.314 95.8709 147.146 95.8709 146.96C95.8709 146.792 95.8526 146.635 95.8159 146.491C95.7792 146.347 95.7242 146.221 95.6509 146.114C95.5776 146.006 95.4884 145.923 95.3833 145.864C95.2807 145.803 95.1609 145.773 95.024 145.773C94.8407 145.773 94.7051 145.803 94.6171 145.864C94.5316 145.925 94.4387 146.009 94.3385 146.114Z" fill="#999999"/>
<path d="M116.923 143.309H116.971V143.885H116.923C116.615 143.885 116.362 143.943 116.164 144.061C115.969 144.176 115.816 144.331 115.706 144.526C115.599 144.719 115.524 144.937 115.483 145.179C115.441 145.421 115.42 145.666 115.42 145.916V146.7C115.42 146.937 115.442 147.147 115.486 147.331C115.533 147.512 115.593 147.664 115.666 147.789C115.742 147.914 115.826 148.008 115.919 148.071C116.014 148.135 116.111 148.167 116.208 148.167C116.333 148.167 116.443 148.137 116.538 148.079C116.636 148.018 116.717 147.933 116.78 147.826C116.846 147.716 116.896 147.586 116.931 147.437C116.965 147.288 116.982 147.124 116.982 146.946C116.982 146.787 116.966 146.634 116.934 146.488C116.905 146.338 116.86 146.207 116.799 146.092C116.738 145.974 116.659 145.883 116.564 145.817C116.471 145.748 116.36 145.714 116.23 145.714C116.084 145.714 115.947 145.76 115.82 145.853C115.695 145.944 115.593 146.064 115.512 146.213C115.431 146.359 115.384 146.519 115.369 146.693L115.035 146.689C115.07 146.415 115.127 146.182 115.208 145.989C115.288 145.793 115.386 145.635 115.501 145.512C115.618 145.388 115.748 145.297 115.89 145.241C116.031 145.182 116.18 145.153 116.337 145.153C116.564 145.153 116.758 145.203 116.92 145.303C117.083 145.404 117.217 145.538 117.319 145.707C117.424 145.873 117.501 146.061 117.55 146.271C117.599 146.479 117.624 146.693 117.624 146.913C117.624 147.165 117.593 147.4 117.532 147.62C117.473 147.84 117.385 148.033 117.268 148.2C117.151 148.366 117.003 148.495 116.824 148.588C116.648 148.681 116.443 148.727 116.208 148.727C115.959 148.727 115.744 148.669 115.563 148.552C115.382 148.432 115.232 148.273 115.112 148.075C114.995 147.877 114.908 147.657 114.852 147.415C114.796 147.173 114.768 146.927 114.768 146.678V146.359C114.768 145.983 114.795 145.614 114.848 145.252C114.902 144.89 115.004 144.563 115.153 144.27C115.304 143.976 115.522 143.743 115.805 143.569C116.091 143.396 116.464 143.309 116.923 143.309Z" fill="#999999"/>
<path d="M136.771 143.316V143.698L134.935 148.654H134.253L136.089 143.874H133.71V143.316H136.771Z" fill="#999999"/>
<rect x="170.252" y="110.898" width="19.1111" height="19.1111" rx="2.73016" fill="#4DA1FF" fill-opacity="0.1"/>
<rect x="181.855" y="114.311" width="3.4127" height="3.4127" rx="1.70635" fill="#4DA1FF"/>
<rect x="183.903" y="194.168" width="3.4127" height="3.4127" rx="1.70635" fill="#4DA1FF"/>
<rect x="84.9346" y="164.136" width="19.1111" height="19.1111" rx="2.73016" fill="#F5F5F5"/>
<rect x="97.9028" y="168.232" width="3.4127" height="3.4127" rx="1.70635" fill="#FF6D4A"/>
<path d="M160.561 147.21C160.561 147.535 160.499 147.811 160.374 148.038C160.25 148.263 160.08 148.434 159.865 148.552C159.65 148.669 159.406 148.727 159.135 148.727C158.866 148.727 158.624 148.669 158.409 148.552C158.194 148.434 158.024 148.263 157.9 148.038C157.775 147.811 157.713 147.535 157.713 147.21C157.713 146.997 157.747 146.803 157.815 146.627C157.884 146.448 157.98 146.293 158.105 146.161C158.232 146.029 158.382 145.928 158.556 145.857C158.729 145.784 158.921 145.747 159.131 145.747C159.408 145.747 159.653 145.811 159.868 145.938C160.083 146.062 160.252 146.235 160.374 146.455C160.499 146.675 160.561 146.926 160.561 147.21ZM159.916 147.195C159.916 146.997 159.883 146.822 159.817 146.671C159.753 146.517 159.663 146.397 159.546 146.312C159.428 146.226 159.29 146.183 159.131 146.183C158.97 146.183 158.832 146.226 158.717 146.312C158.602 146.397 158.513 146.517 158.45 146.671C158.388 146.822 158.358 146.997 158.358 147.195C158.358 147.4 158.388 147.576 158.45 147.723C158.511 147.867 158.599 147.978 158.714 148.057C158.831 148.132 158.973 148.17 159.139 148.17C159.303 148.17 159.442 148.132 159.557 148.057C159.674 147.978 159.763 147.867 159.824 147.723C159.885 147.576 159.916 147.4 159.916 147.195ZM160.462 144.706C160.462 144.965 160.405 145.198 160.29 145.406C160.175 145.614 160.017 145.778 159.817 145.897C159.619 146.017 159.393 146.077 159.139 146.077C158.88 146.077 158.65 146.017 158.45 145.897C158.249 145.778 158.093 145.614 157.98 145.406C157.868 145.198 157.812 144.965 157.812 144.706C157.812 144.396 157.868 144.132 157.98 143.914C158.095 143.697 158.253 143.53 158.453 143.415C158.654 143.301 158.882 143.243 159.139 143.243C159.398 143.243 159.626 143.301 159.824 143.415C160.022 143.53 160.178 143.697 160.29 143.914C160.405 144.132 160.462 144.396 160.462 144.706ZM159.813 144.717C159.813 144.538 159.785 144.381 159.729 144.244C159.675 144.107 159.597 144 159.494 143.921C159.394 143.841 159.276 143.8 159.139 143.8C159.002 143.8 158.882 143.838 158.78 143.914C158.679 143.987 158.601 144.092 158.545 144.229C158.489 144.366 158.461 144.529 158.461 144.717C158.461 144.9 158.487 145.06 158.541 145.197C158.597 145.334 158.677 145.44 158.78 145.516C158.882 145.592 159.002 145.63 159.139 145.63C159.276 145.63 159.394 145.592 159.494 145.516C159.597 145.44 159.675 145.334 159.729 145.197C159.785 145.06 159.813 144.9 159.813 144.717Z" fill="#999999"/>
<path d="M178.776 148.086H178.827C179.157 148.086 179.422 148.031 179.622 147.921C179.823 147.811 179.973 147.663 180.073 147.477C180.176 147.292 180.244 147.083 180.279 146.851C180.315 146.616 180.334 146.375 180.334 146.128V145.311C180.334 145.069 180.31 144.854 180.264 144.666C180.22 144.477 180.16 144.32 180.084 144.193C180.011 144.066 179.927 143.969 179.831 143.903C179.738 143.837 179.643 143.804 179.545 143.804C179.421 143.804 179.311 143.836 179.215 143.899C179.12 143.96 179.04 144.047 178.974 144.16C178.91 144.272 178.861 144.404 178.827 144.556C178.793 144.707 178.776 144.872 178.776 145.051C178.776 145.209 178.79 145.363 178.82 145.512C178.849 145.662 178.894 145.796 178.955 145.916C179.019 146.035 179.097 146.131 179.19 146.202C179.285 146.27 179.398 146.304 179.527 146.304C179.635 146.304 179.738 146.275 179.839 146.216C179.941 146.155 180.034 146.073 180.117 145.971C180.2 145.866 180.269 145.747 180.323 145.615C180.376 145.483 180.408 145.345 180.418 145.201H180.722C180.722 145.404 180.689 145.604 180.623 145.802C180.56 145.998 180.468 146.176 180.348 146.337C180.231 146.499 180.093 146.628 179.934 146.726C179.778 146.821 179.605 146.869 179.417 146.869C179.19 146.869 178.996 146.818 178.834 146.715C178.673 146.612 178.541 146.475 178.438 146.304C178.338 146.133 178.264 145.943 178.215 145.732C178.166 145.52 178.141 145.305 178.141 145.087C178.141 144.833 178.171 144.595 178.229 144.372C178.288 144.15 178.375 143.954 178.49 143.786C178.607 143.615 178.754 143.481 178.93 143.386C179.105 143.291 179.311 143.243 179.545 143.243C179.807 143.243 180.029 143.304 180.213 143.426C180.396 143.549 180.544 143.712 180.656 143.918C180.769 144.123 180.851 144.354 180.902 144.611C180.953 144.867 180.979 145.131 180.979 145.402V145.648C180.979 145.924 180.965 146.205 180.938 146.491C180.914 146.775 180.861 147.046 180.781 147.305C180.703 147.564 180.585 147.796 180.429 148.002C180.272 148.204 180.064 148.366 179.802 148.486C179.543 148.603 179.218 148.662 178.827 148.662H178.779L178.776 148.086Z" fill="#999999"/>
<path d="M196.502 143.287V148.654H195.853V144.134L194.731 144.633V144.02L196.403 143.287H196.502ZM201.758 145.56V146.374C201.758 146.811 201.723 147.18 201.655 147.481C201.589 147.782 201.494 148.024 201.369 148.207C201.244 148.39 201.094 148.523 200.918 148.607C200.745 148.687 200.549 148.727 200.332 148.727C200.161 148.727 200 148.702 199.851 148.651C199.705 148.599 199.573 148.517 199.455 148.405C199.338 148.29 199.238 148.141 199.155 147.958C199.072 147.774 199.008 147.552 198.964 147.29C198.92 147.029 198.898 146.723 198.898 146.374V145.56C198.898 145.123 198.932 144.756 199.001 144.46C199.069 144.165 199.166 143.927 199.29 143.749C199.418 143.568 199.568 143.439 199.741 143.36C199.917 143.282 200.113 143.243 200.328 143.243C200.501 143.243 200.662 143.269 200.808 143.32C200.957 143.369 201.089 143.448 201.204 143.558C201.321 143.666 201.422 143.81 201.505 143.991C201.588 144.169 201.65 144.388 201.692 144.647C201.736 144.906 201.758 145.211 201.758 145.56ZM201.112 146.484V145.446C201.112 145.207 201.101 144.997 201.079 144.816C201.057 144.633 201.026 144.476 200.984 144.347C200.943 144.217 200.889 144.112 200.823 144.031C200.759 143.951 200.686 143.892 200.603 143.855C200.52 143.816 200.428 143.797 200.328 143.797C200.203 143.797 200.092 143.827 199.994 143.888C199.899 143.947 199.817 144.041 199.749 144.171C199.683 144.3 199.633 144.47 199.598 144.68C199.564 144.89 199.547 145.146 199.547 145.446V146.484C199.547 146.723 199.558 146.935 199.58 147.118C199.605 147.301 199.638 147.46 199.679 147.595C199.723 147.727 199.777 147.835 199.84 147.921C199.904 148.007 199.977 148.07 200.06 148.112C200.143 148.151 200.234 148.17 200.332 148.17C200.461 148.17 200.574 148.138 200.669 148.075C200.767 148.011 200.849 147.912 200.915 147.778C200.981 147.641 201.029 147.466 201.061 147.254C201.095 147.039 201.112 146.782 201.112 146.484Z" fill="#999999"/>
</g>
<g clip-path="url(#clip5_1_145)">
<path d="M70.2319 169.906V175.273H69.583V170.753L68.4612 171.252V170.639L70.1329 169.906H70.2319ZM74.5675 169.906V175.273H73.9186V170.753L72.7968 171.252V170.639L74.4685 169.906H74.5675Z" fill="#999999"/>
<path d="M92.7557 169.906V175.273H92.1068V170.753L90.985 171.252V170.639L92.6567 169.906H92.7557ZM98.1435 174.716V175.273H95.1593V174.786L96.6294 172.839C96.8103 172.599 96.9483 172.397 97.0437 172.23C97.139 172.062 97.205 171.911 97.2416 171.78C97.2783 171.645 97.2966 171.508 97.2966 171.369C97.2966 171.193 97.2685 171.034 97.2123 170.892C97.1561 170.748 97.0742 170.633 96.9667 170.548C96.8591 170.462 96.7296 170.419 96.5781 170.419C96.3801 170.419 96.2176 170.466 96.0905 170.559C95.9659 170.649 95.8742 170.776 95.8156 170.94C95.7569 171.104 95.7276 171.292 95.7276 171.505H95.0787C95.0787 171.204 95.1337 170.929 95.2437 170.68C95.3561 170.43 95.5235 170.232 95.7459 170.086C95.9683 169.937 96.2457 169.862 96.5781 169.862C96.864 169.862 97.1084 169.922 97.3113 170.042C97.5166 170.159 97.673 170.325 97.7805 170.54C97.8905 170.753 97.9455 171.002 97.9455 171.288C97.9455 171.445 97.9235 171.604 97.8795 171.765C97.838 171.924 97.7793 172.083 97.7035 172.241C97.6302 172.4 97.5435 172.557 97.4433 172.711C97.343 172.865 97.2355 173.016 97.1206 173.165L95.9365 174.716H98.1435Z" fill="#999999"/>
<path d="M113.915 169.906V175.273H113.266V170.753L112.144 171.252V170.639L113.816 169.906H113.915ZM117.15 172.271H117.568C117.754 172.271 117.908 172.232 118.03 172.153C118.152 172.073 118.243 171.964 118.302 171.827C118.363 171.688 118.393 171.531 118.393 171.358C118.393 171.153 118.366 170.98 118.313 170.841C118.259 170.702 118.178 170.597 118.071 170.526C117.965 170.455 117.832 170.419 117.671 170.419C117.519 170.419 117.387 170.457 117.275 170.533C117.163 170.606 117.076 170.711 117.015 170.848C116.954 170.985 116.923 171.147 116.923 171.332H116.278C116.278 171.061 116.334 170.814 116.447 170.592C116.561 170.369 116.723 170.192 116.93 170.06C117.141 169.928 117.387 169.862 117.671 169.862C117.942 169.862 118.181 169.92 118.386 170.034C118.591 170.147 118.751 170.316 118.866 170.54C118.983 170.763 119.042 171.04 119.042 171.373C119.042 171.507 119.016 171.651 118.965 171.805C118.916 171.957 118.837 172.098 118.727 172.23C118.619 172.362 118.477 172.471 118.302 172.557C118.128 172.64 117.915 172.681 117.664 172.681H117.15V172.271ZM117.15 172.828V172.421H117.664C117.962 172.421 118.205 172.461 118.393 172.542C118.581 172.623 118.727 172.73 118.829 172.865C118.932 172.999 119.003 173.147 119.042 173.308C119.084 173.467 119.104 173.626 119.104 173.785C119.104 174.034 119.068 174.255 118.994 174.448C118.924 174.641 118.822 174.805 118.69 174.94C118.561 175.074 118.409 175.175 118.236 175.244C118.062 175.312 117.873 175.347 117.667 175.347C117.467 175.347 117.281 175.314 117.11 175.248C116.939 175.182 116.789 175.086 116.659 174.962C116.53 174.834 116.428 174.679 116.355 174.496C116.284 174.31 116.249 174.099 116.249 173.862H116.897C116.897 174.048 116.928 174.21 116.989 174.349C117.05 174.489 117.138 174.597 117.253 174.676C117.368 174.751 117.506 174.789 117.667 174.789C117.829 174.789 117.968 174.754 118.085 174.683C118.203 174.61 118.293 174.5 118.357 174.353C118.422 174.206 118.455 174.022 118.455 173.799C118.455 173.577 118.419 173.395 118.346 173.253C118.275 173.109 118.173 173.003 118.041 172.934C117.909 172.863 117.752 172.828 117.568 172.828H117.15Z" fill="#999999"/>
<path d="M133.026 169.906V175.273H132.377V170.753L131.255 171.252V170.639L132.927 169.906H133.026ZM138.483 173.477V174.034H135.22V173.634L137.204 169.936H137.724L137.204 171.006L135.943 173.477H138.483ZM137.889 169.936V175.273H137.24V169.936H137.889Z" fill="#999999"/>
<path d="M156.915 169.906V175.273H156.266V170.753L155.144 171.252V170.639L156.816 169.906H156.915ZM160.103 172.733L159.586 172.593L159.813 169.936H162.137V170.562H160.359L160.235 172.014C160.318 171.958 160.418 171.905 160.535 171.856C160.653 171.808 160.79 171.783 160.946 171.783C161.156 171.783 161.343 171.826 161.507 171.911C161.673 171.995 161.814 172.114 161.928 172.271C162.043 172.427 162.131 172.615 162.192 172.835C162.254 173.055 162.284 173.301 162.284 173.572C162.284 173.829 162.254 174.065 162.192 174.28C162.134 174.495 162.043 174.683 161.921 174.844C161.801 175.003 161.65 175.127 161.467 175.215C161.286 175.303 161.074 175.347 160.832 175.347C160.651 175.347 160.48 175.317 160.319 175.259C160.158 175.197 160.012 175.106 159.883 174.984C159.756 174.859 159.652 174.705 159.571 174.522C159.491 174.336 159.44 174.118 159.421 173.869H160.033C160.058 174.07 160.104 174.238 160.172 174.375C160.243 174.512 160.334 174.616 160.444 174.687C160.556 174.755 160.686 174.789 160.832 174.789C160.957 174.789 161.069 174.761 161.17 174.705C161.27 174.649 161.354 174.568 161.423 174.463C161.491 174.358 161.544 174.231 161.58 174.082C161.617 173.933 161.635 173.765 161.635 173.58C161.635 173.411 161.617 173.254 161.58 173.11C161.544 172.966 161.489 172.84 161.415 172.733C161.342 172.625 161.253 172.542 161.148 172.483C161.045 172.422 160.925 172.392 160.788 172.392C160.605 172.392 160.469 172.422 160.381 172.483C160.296 172.544 160.203 172.628 160.103 172.733Z" fill="#999999"/>
<path d="M177.391 169.906V175.273H176.742V170.753L175.62 171.252V170.639L177.292 169.906H177.391ZM182.005 169.928H182.053V170.504H182.005C181.697 170.504 181.444 170.562 181.246 170.68C181.051 170.795 180.898 170.95 180.788 171.145C180.68 171.338 180.606 171.556 180.564 171.798C180.523 172.04 180.502 172.285 180.502 172.535V173.319C180.502 173.556 180.524 173.766 180.568 173.95C180.614 174.131 180.674 174.283 180.748 174.408C180.823 174.533 180.908 174.627 181.001 174.69C181.096 174.754 181.192 174.786 181.29 174.786C181.415 174.786 181.525 174.756 181.62 174.698C181.718 174.637 181.799 174.552 181.862 174.445C181.928 174.335 181.978 174.205 182.012 174.056C182.047 173.907 182.064 173.743 182.064 173.565C182.064 173.406 182.048 173.253 182.016 173.107C181.987 172.958 181.942 172.826 181.88 172.711C181.819 172.593 181.741 172.502 181.646 172.436C181.553 172.367 181.442 172.333 181.312 172.333C181.166 172.333 181.029 172.38 180.902 172.472C180.777 172.563 180.674 172.683 180.594 172.832C180.513 172.978 180.465 173.138 180.451 173.312L180.117 173.308C180.151 173.034 180.209 172.801 180.289 172.608C180.37 172.412 180.468 172.254 180.583 172.131C180.7 172.007 180.83 171.916 180.971 171.86C181.113 171.802 181.262 171.772 181.419 171.772C181.646 171.772 181.84 171.822 182.001 171.922C182.165 172.023 182.298 172.157 182.401 172.326C182.506 172.492 182.583 172.68 182.632 172.89C182.681 173.098 182.705 173.312 182.705 173.532C182.705 173.784 182.675 174.019 182.614 174.239C182.555 174.459 182.467 174.652 182.35 174.819C182.232 174.985 182.084 175.114 181.906 175.207C181.73 175.3 181.525 175.347 181.29 175.347C181.041 175.347 180.826 175.288 180.645 175.171C180.464 175.051 180.314 174.892 180.194 174.694C180.077 174.496 179.99 174.276 179.934 174.034C179.878 173.792 179.849 173.547 179.849 173.297V172.978C179.849 172.602 179.876 172.233 179.93 171.871C179.984 171.509 180.085 171.182 180.234 170.889C180.386 170.595 180.603 170.362 180.887 170.188C181.173 170.015 181.546 169.928 182.005 169.928Z" fill="#999999"/>
<path d="M196.502 169.906V175.273H195.853V170.753L194.731 171.252V170.639L196.403 169.906H196.502ZM201.853 169.936V170.317L200.016 175.273H199.334L201.171 170.493H198.792V169.936H201.853Z" fill="#999999"/>
</g>
<g clip-path="url(#clip6_1_145)">
<path d="M70.2319 196.525V201.892H69.583V197.372L68.4612 197.871V197.258L70.1329 196.525H70.2319ZM75.484 200.448C75.484 200.773 75.4217 201.049 75.297 201.276C75.1724 201.501 75.0025 201.672 74.7875 201.79C74.5724 201.907 74.3292 201.966 74.0579 201.966C73.7891 201.966 73.5471 201.907 73.3321 201.79C73.117 201.672 72.9471 201.501 72.8225 201.276C72.6979 201.049 72.6355 200.773 72.6355 200.448C72.6355 200.235 72.6698 200.041 72.7382 199.865C72.8066 199.687 72.9032 199.531 73.0278 199.399C73.1549 199.267 73.3052 199.166 73.4787 199.095C73.6522 199.022 73.8441 198.985 74.0543 198.985C74.3304 198.985 74.5761 199.049 74.7911 199.176C75.0062 199.3 75.1748 199.473 75.297 199.693C75.4217 199.913 75.484 200.164 75.484 200.448ZM74.8388 200.433C74.8388 200.235 74.8058 200.06 74.7398 199.909C74.6763 199.755 74.5858 199.635 74.4685 199.55C74.3512 199.464 74.2131 199.421 74.0543 199.421C73.893 199.421 73.7549 199.464 73.64 199.55C73.5252 199.635 73.4359 199.755 73.3724 199.909C73.3113 200.06 73.2808 200.235 73.2808 200.433C73.2808 200.638 73.3113 200.814 73.3724 200.961C73.4335 201.105 73.5215 201.216 73.6364 201.295C73.7537 201.37 73.8954 201.408 74.0616 201.408C74.2254 201.408 74.3647 201.37 74.4795 201.295C74.5968 201.216 74.686 201.105 74.7471 200.961C74.8082 200.814 74.8388 200.638 74.8388 200.433ZM75.385 197.944C75.385 198.203 75.3276 198.436 75.2127 198.644C75.0979 198.852 74.9402 199.016 74.7398 199.135C74.5419 199.255 74.3158 199.315 74.0616 199.315C73.8025 199.315 73.5728 199.255 73.3724 199.135C73.172 199.016 73.0156 198.852 72.9032 198.644C72.7907 198.436 72.7345 198.203 72.7345 197.944C72.7345 197.634 72.7907 197.37 72.9032 197.152C73.018 196.935 73.1757 196.768 73.3761 196.654C73.5765 196.539 73.805 196.481 74.0616 196.481C74.3207 196.481 74.5492 196.539 74.7471 196.654C74.9451 196.768 75.1003 196.935 75.2127 197.152C75.3276 197.37 75.385 197.634 75.385 197.944ZM74.7361 197.955C74.7361 197.777 74.708 197.619 74.6518 197.482C74.5981 197.345 74.5199 197.238 74.4172 197.159C74.317 197.079 74.1985 197.038 74.0616 197.038C73.9247 197.038 73.805 197.076 73.7023 197.152C73.6021 197.225 73.5239 197.33 73.4677 197.467C73.4115 197.604 73.3834 197.767 73.3834 197.955C73.3834 198.138 73.4103 198.298 73.4641 198.435C73.5203 198.572 73.5997 198.678 73.7023 198.754C73.805 198.83 73.9247 198.868 74.0616 198.868C74.1985 198.868 74.317 198.83 74.4172 198.754C74.5199 198.678 74.5981 198.572 74.6518 198.435C74.708 198.298 74.7361 198.138 74.7361 197.955Z" fill="#999999"/>
<path d="M92.7557 196.525V201.892H92.1068V197.372L90.985 197.871V197.258L92.6567 196.525H92.7557ZM95.7459 201.324H95.7972C96.1272 201.324 96.3923 201.269 96.5927 201.159C96.7932 201.049 96.9435 200.901 97.0437 200.715C97.1463 200.53 97.2147 200.321 97.249 200.089C97.2856 199.854 97.3039 199.613 97.3039 199.366V198.549C97.3039 198.307 97.2807 198.092 97.2343 197.904C97.1903 197.715 97.1304 197.558 97.0547 197.431C96.9813 197.304 96.897 197.207 96.8017 197.141C96.7088 197.075 96.6135 197.042 96.5158 197.042C96.3911 197.042 96.2811 197.074 96.1858 197.137C96.0905 197.199 96.0099 197.285 95.9439 197.398C95.8803 197.51 95.8314 197.642 95.7972 197.794C95.763 197.945 95.7459 198.11 95.7459 198.289C95.7459 198.447 95.7606 198.601 95.7899 198.75C95.8192 198.9 95.8644 199.034 95.9255 199.154C95.9891 199.273 96.0673 199.369 96.1602 199.44C96.2555 199.508 96.3679 199.542 96.4974 199.542C96.605 199.542 96.7088 199.513 96.809 199.454C96.9117 199.393 97.0046 199.311 97.0877 199.209C97.1707 199.104 97.2392 198.985 97.2929 198.853C97.3467 198.721 97.3785 198.583 97.3883 198.439H97.6925C97.6925 198.642 97.6595 198.842 97.5936 199.04C97.53 199.236 97.4384 199.414 97.3186 199.575C97.2013 199.737 97.0632 199.866 96.9044 199.964C96.7479 200.059 96.5756 200.107 96.3874 200.107C96.1602 200.107 95.9659 200.056 95.8046 199.953C95.6433 199.85 95.5113 199.713 95.4086 199.542C95.3084 199.371 95.2339 199.181 95.185 198.97C95.1361 198.758 95.1117 198.543 95.1117 198.325C95.1117 198.071 95.141 197.833 95.1997 197.61C95.2583 197.388 95.3451 197.192 95.46 197.024C95.5773 196.853 95.7239 196.719 95.8999 196.624C96.0758 196.529 96.2811 196.481 96.5158 196.481C96.7773 196.481 96.9997 196.542 97.183 196.665C97.3663 196.787 97.5141 196.95 97.6266 197.156C97.739 197.361 97.8209 197.592 97.8722 197.849C97.9235 198.105 97.9492 198.369 97.9492 198.64V198.886C97.9492 199.162 97.9357 199.443 97.9088 199.729C97.8844 200.013 97.8318 200.284 97.7512 200.543C97.673 200.802 97.5557 201.034 97.3993 201.24C97.2428 201.443 97.0339 201.604 96.7724 201.724C96.5133 201.841 96.1883 201.9 95.7972 201.9H95.7496L95.7459 201.324Z" fill="#999999"/>
<path d="M114.967 201.335V201.892H111.983V201.405L113.453 199.458C113.633 199.218 113.772 199.016 113.867 198.849C113.962 198.681 114.028 198.53 114.065 198.399C114.102 198.264 114.12 198.127 114.12 197.988C114.12 197.812 114.092 197.653 114.036 197.511C113.979 197.367 113.897 197.252 113.79 197.167C113.682 197.081 113.553 197.038 113.401 197.038C113.203 197.038 113.041 197.085 112.914 197.178C112.789 197.268 112.697 197.395 112.639 197.559C112.58 197.723 112.551 197.911 112.551 198.124H111.902C111.902 197.823 111.957 197.548 112.067 197.299C112.179 197.049 112.347 196.851 112.569 196.705C112.792 196.556 113.069 196.481 113.401 196.481C113.687 196.481 113.932 196.541 114.135 196.661C114.34 196.778 114.496 196.944 114.604 197.159C114.714 197.372 114.769 197.621 114.769 197.907C114.769 198.064 114.747 198.223 114.703 198.384C114.661 198.543 114.603 198.702 114.527 198.86C114.453 199.019 114.367 199.176 114.266 199.33C114.166 199.484 114.059 199.635 113.944 199.784L112.76 201.335H114.967ZM119.17 198.798V199.612C119.17 200.049 119.136 200.418 119.068 200.719C119.002 201.02 118.906 201.262 118.782 201.445C118.657 201.628 118.507 201.761 118.331 201.845C118.157 201.925 117.962 201.966 117.744 201.966C117.573 201.966 117.413 201.94 117.264 201.889C117.117 201.837 116.985 201.755 116.868 201.643C116.751 201.528 116.651 201.379 116.568 201.196C116.484 201.012 116.421 200.79 116.377 200.528C116.333 200.267 116.311 199.961 116.311 199.612V198.798C116.311 198.361 116.345 197.994 116.414 197.698C116.482 197.403 116.579 197.166 116.703 196.987C116.83 196.806 116.981 196.677 117.154 196.599C117.33 196.52 117.526 196.481 117.741 196.481C117.914 196.481 118.074 196.507 118.221 196.558C118.37 196.607 118.502 196.687 118.617 196.796C118.734 196.904 118.834 197.048 118.917 197.229C119 197.407 119.063 197.626 119.104 197.885C119.148 198.144 119.17 198.449 119.17 198.798ZM118.525 199.722V198.684C118.525 198.445 118.514 198.235 118.492 198.054C118.47 197.871 118.438 197.714 118.397 197.585C118.355 197.455 118.302 197.35 118.236 197.269C118.172 197.189 118.099 197.13 118.016 197.093C117.932 197.054 117.841 197.035 117.741 197.035C117.616 197.035 117.505 197.065 117.407 197.126C117.312 197.185 117.23 197.279 117.161 197.409C117.095 197.538 117.045 197.708 117.011 197.918C116.977 198.128 116.96 198.384 116.96 198.684V199.722C116.96 199.961 116.971 200.173 116.993 200.356C117.017 200.539 117.05 200.698 117.092 200.833C117.136 200.965 117.189 201.073 117.253 201.159C117.317 201.245 117.39 201.308 117.473 201.35C117.556 201.389 117.647 201.408 117.744 201.408C117.874 201.408 117.986 201.377 118.082 201.313C118.179 201.249 118.261 201.15 118.327 201.016C118.393 200.879 118.442 200.704 118.474 200.492C118.508 200.277 118.525 200.02 118.525 199.722Z" fill="#999999"/>
<path d="M134.078 201.335V201.892H131.094V201.405L132.564 199.458C132.745 199.218 132.883 199.016 132.978 198.849C133.073 198.681 133.139 198.53 133.176 198.399C133.213 198.264 133.231 198.127 133.231 197.988C133.231 197.812 133.203 197.653 133.147 197.511C133.09 197.367 133.009 197.252 132.901 197.167C132.793 197.081 132.664 197.038 132.512 197.038C132.314 197.038 132.152 197.085 132.025 197.178C131.9 197.268 131.809 197.395 131.75 197.559C131.691 197.723 131.662 197.911 131.662 198.124H131.013C131.013 197.823 131.068 197.548 131.178 197.299C131.29 197.049 131.458 196.851 131.68 196.705C131.903 196.556 132.18 196.481 132.512 196.481C132.798 196.481 133.043 196.541 133.246 196.661C133.451 196.778 133.607 196.944 133.715 197.159C133.825 197.372 133.88 197.621 133.88 197.907C133.88 198.064 133.858 198.223 133.814 198.384C133.772 198.543 133.714 198.702 133.638 198.86C133.565 199.019 133.478 199.176 133.378 199.33C133.277 199.484 133.17 199.635 133.055 199.784L131.871 201.335H134.078ZM137.361 196.525V201.892H136.712V197.372L135.591 197.871V197.258L137.262 196.525H137.361Z" fill="#999999"/>
<path d="M157.967 201.335V201.892H154.983V201.405L156.453 199.458C156.634 199.218 156.772 199.016 156.867 198.849C156.962 198.681 157.028 198.53 157.065 198.399C157.102 198.264 157.12 198.127 157.12 197.988C157.12 197.812 157.092 197.653 157.036 197.511C156.979 197.367 156.898 197.252 156.79 197.167C156.682 197.081 156.553 197.038 156.401 197.038C156.203 197.038 156.041 197.085 155.914 197.178C155.789 197.268 155.697 197.395 155.639 197.559C155.58 197.723 155.551 197.911 155.551 198.124H154.902C154.902 197.823 154.957 197.548 155.067 197.299C155.179 197.049 155.347 196.851 155.569 196.705C155.792 196.556 156.069 196.481 156.401 196.481C156.687 196.481 156.932 196.541 157.135 196.661C157.34 196.778 157.496 196.944 157.604 197.159C157.714 197.372 157.769 197.621 157.769 197.907C157.769 198.064 157.747 198.223 157.703 198.384C157.661 198.543 157.603 198.702 157.527 198.86C157.454 199.019 157.367 199.176 157.267 199.33C157.166 199.484 157.059 199.635 156.944 199.784L155.76 201.335H157.967ZM162.302 201.335V201.892H159.318V201.405L160.788 199.458C160.969 199.218 161.107 199.016 161.203 198.849C161.298 198.681 161.364 198.53 161.401 198.399C161.437 198.264 161.456 198.127 161.456 197.988C161.456 197.812 161.427 197.653 161.371 197.511C161.315 197.367 161.233 197.252 161.126 197.167C161.018 197.081 160.889 197.038 160.737 197.038C160.539 197.038 160.377 197.085 160.249 197.178C160.125 197.268 160.033 197.395 159.974 197.559C159.916 197.723 159.887 197.911 159.887 198.124H159.238C159.238 197.823 159.293 197.548 159.403 197.299C159.515 197.049 159.682 196.851 159.905 196.705C160.127 196.556 160.405 196.481 160.737 196.481C161.023 196.481 161.267 196.541 161.47 196.661C161.676 196.778 161.832 196.944 161.939 197.159C162.049 197.372 162.104 197.621 162.104 197.907C162.104 198.064 162.082 198.223 162.038 198.384C161.997 198.543 161.938 198.702 161.862 198.86C161.789 199.019 161.702 199.176 161.602 199.33C161.502 199.484 161.394 199.635 161.28 199.784L160.095 201.335H162.302Z" fill="#999999"/>
<path d="M178.443 201.335V201.892H175.459V201.405L176.929 199.458C177.11 199.218 177.248 199.016 177.343 198.849C177.438 198.681 177.504 198.53 177.541 198.399C177.578 198.264 177.596 198.127 177.596 197.988C177.596 197.812 177.568 197.653 177.512 197.511C177.456 197.367 177.374 197.252 177.266 197.167C177.159 197.081 177.029 197.038 176.878 197.038C176.68 197.038 176.517 197.085 176.39 197.178C176.265 197.268 176.174 197.395 176.115 197.559C176.056 197.723 176.027 197.911 176.027 198.124H175.378C175.378 197.823 175.433 197.548 175.543 197.299C175.656 197.049 175.823 196.851 176.045 196.705C176.268 196.556 176.545 196.481 176.878 196.481C177.164 196.481 177.408 196.541 177.611 196.661C177.816 196.778 177.972 196.944 178.08 197.159C178.19 197.372 178.245 197.621 178.245 197.907C178.245 198.064 178.223 198.223 178.179 198.384C178.137 198.543 178.079 198.702 178.003 198.86C177.93 199.019 177.843 199.176 177.743 199.33C177.643 199.484 177.535 199.635 177.42 199.784L176.236 201.335H178.443ZM180.627 198.89H181.045C181.23 198.89 181.384 198.851 181.506 198.772C181.629 198.692 181.719 198.583 181.778 198.446C181.839 198.307 181.869 198.15 181.869 197.977C181.869 197.772 181.843 197.599 181.789 197.46C181.735 197.321 181.654 197.216 181.547 197.145C181.442 197.074 181.309 197.038 181.147 197.038C180.996 197.038 180.864 197.076 180.751 197.152C180.639 197.225 180.552 197.33 180.491 197.467C180.43 197.604 180.399 197.766 180.399 197.951H179.754C179.754 197.68 179.81 197.433 179.923 197.211C180.038 196.988 180.199 196.811 180.407 196.679C180.617 196.547 180.864 196.481 181.147 196.481C181.419 196.481 181.657 196.539 181.862 196.654C182.067 196.766 182.227 196.935 182.342 197.159C182.46 197.382 182.518 197.659 182.518 197.992C182.518 198.126 182.493 198.27 182.441 198.424C182.392 198.576 182.313 198.717 182.203 198.849C182.095 198.981 181.954 199.09 181.778 199.176C181.604 199.259 181.392 199.3 181.14 199.3H180.627V198.89ZM180.627 199.447V199.04H181.14C181.438 199.04 181.681 199.08 181.869 199.161C182.058 199.242 182.203 199.349 182.306 199.484C182.408 199.618 182.479 199.766 182.518 199.927C182.56 200.086 182.581 200.245 182.581 200.404C182.581 200.653 182.544 200.874 182.471 201.067C182.4 201.26 182.298 201.424 182.166 201.559C182.037 201.693 181.885 201.794 181.712 201.863C181.538 201.931 181.349 201.966 181.144 201.966C180.943 201.966 180.757 201.933 180.586 201.867C180.415 201.801 180.265 201.705 180.135 201.581C180.006 201.454 179.904 201.298 179.831 201.115C179.76 200.929 179.725 200.718 179.725 200.481H180.374C180.374 200.667 180.404 200.829 180.465 200.968C180.526 201.108 180.614 201.216 180.729 201.295C180.844 201.37 180.982 201.408 181.144 201.408C181.305 201.408 181.444 201.373 181.561 201.302C181.679 201.229 181.769 201.119 181.833 200.972C181.899 200.825 181.932 200.641 181.932 200.418C181.932 200.196 181.895 200.014 181.822 199.872C181.751 199.728 181.649 199.622 181.517 199.553C181.386 199.482 181.228 199.447 181.045 199.447H180.627Z" fill="#999999"/>
<path d="M197.554 201.335V201.892H194.57V201.405L196.04 199.458C196.221 199.218 196.359 199.016 196.454 198.849C196.549 198.681 196.615 198.53 196.652 198.399C196.689 198.264 196.707 198.127 196.707 197.988C196.707 197.812 196.679 197.653 196.623 197.511C196.567 197.367 196.485 197.252 196.377 197.167C196.27 197.081 196.14 197.038 195.989 197.038C195.791 197.038 195.628 197.085 195.501 197.178C195.376 197.268 195.285 197.395 195.226 197.559C195.167 197.723 195.138 197.911 195.138 198.124H194.489C194.489 197.823 194.544 197.548 194.654 197.299C194.767 197.049 194.934 196.851 195.156 196.705C195.379 196.556 195.656 196.481 195.989 196.481C196.275 196.481 196.519 196.541 196.722 196.661C196.927 196.778 197.083 196.944 197.191 197.159C197.301 197.372 197.356 197.621 197.356 197.907C197.356 198.064 197.334 198.223 197.29 198.384C197.248 198.543 197.19 198.702 197.114 198.86C197.041 199.019 196.954 199.176 196.854 199.33C196.754 199.484 196.646 199.635 196.531 199.784L195.347 201.335H197.554ZM201.959 200.096V200.653H198.697V200.254L200.68 196.555H201.2L200.68 197.625L199.419 200.096H201.959ZM201.365 196.555V201.892H200.716V196.555H201.365Z" fill="#999999"/>
</g>
<g clip-path="url(#clip7_1_145)">
<path d="M71.284 227.954V228.511H68.2999V228.024L69.77 226.077C69.9508 225.838 70.0889 225.635 70.1842 225.469C70.2795 225.3 70.3455 225.15 70.3822 225.018C70.4188 224.883 70.4372 224.747 70.4372 224.607C70.4372 224.431 70.4091 224.272 70.3528 224.131C70.2966 223.986 70.2148 223.872 70.1072 223.786C69.9997 223.7 69.8702 223.658 69.7186 223.658C69.5207 223.658 69.3581 223.704 69.2311 223.797C69.1064 223.887 69.0148 224.015 68.9561 224.178C68.8974 224.342 68.8681 224.53 68.8681 224.743H68.2192C68.2192 224.442 68.2742 224.167 68.3842 223.918C68.4966 223.669 68.664 223.471 68.8865 223.324C69.1089 223.175 69.3862 223.1 69.7186 223.1C70.0046 223.1 70.249 223.16 70.4518 223.28C70.6571 223.397 70.8135 223.564 70.9211 223.779C71.0311 223.991 71.086 224.241 71.086 224.527C71.086 224.683 71.064 224.842 71.0201 225.003C70.9785 225.162 70.9199 225.321 70.8441 225.48C70.7708 225.639 70.684 225.795 70.5838 225.949C70.4836 226.103 70.3761 226.254 70.2612 226.404L69.0771 227.954H71.284ZM73.4201 225.971L72.9032 225.832L73.1304 223.174H75.4547V223.801H73.6767L73.552 225.252C73.6351 225.196 73.7353 225.144 73.8526 225.095C73.97 225.046 74.1068 225.021 74.2632 225.021C74.4734 225.021 74.6604 225.064 74.8241 225.15C74.9903 225.233 75.1309 225.353 75.2457 225.509C75.3606 225.665 75.4486 225.854 75.5097 226.074C75.5708 226.294 75.6013 226.539 75.6013 226.81C75.6013 227.067 75.5708 227.303 75.5097 227.518C75.451 227.733 75.3606 227.921 75.2384 228.083C75.1186 228.241 74.9671 228.365 74.7838 228.453C74.603 228.541 74.3915 228.585 74.1496 228.585C73.9687 228.585 73.7977 228.555 73.6364 228.497C73.475 228.436 73.3296 228.344 73.2001 228.222C73.073 228.097 72.9691 227.943 72.8885 227.76C72.8078 227.574 72.7577 227.357 72.7382 227.107H73.3504C73.3748 227.308 73.4213 227.476 73.4897 227.613C73.5606 227.75 73.651 227.854 73.761 227.925C73.8734 227.993 74.003 228.028 74.1496 228.028C74.2742 228.028 74.3867 227.999 74.4869 227.943C74.5871 227.887 74.6714 227.806 74.7398 227.701C74.8082 227.596 74.8608 227.469 74.8975 227.32C74.9341 227.171 74.9524 227.004 74.9524 226.818C74.9524 226.649 74.9341 226.493 74.8975 226.349C74.8608 226.204 74.8058 226.078 74.7325 225.971C74.6592 225.863 74.57 225.78 74.4649 225.722C74.3622 225.661 74.2425 225.63 74.1056 225.63C73.9223 225.63 73.7867 225.661 73.6987 225.722C73.6131 225.783 73.5203 225.866 73.4201 225.971Z" fill="#999999"/>
<path d="M93.8078 227.954V228.511H90.8237V228.024L92.2938 226.077C92.4746 225.838 92.6127 225.635 92.708 225.469C92.8033 225.3 92.8693 225.15 92.906 225.018C92.9426 224.883 92.961 224.747 92.961 224.607C92.961 224.431 92.9329 224.272 92.8767 224.131C92.8204 223.986 92.7386 223.872 92.631 223.786C92.5235 223.7 92.394 223.658 92.2424 223.658C92.0445 223.658 91.8819 223.704 91.7549 223.797C91.6302 223.887 91.5386 224.015 91.4799 224.178C91.4213 224.342 91.3919 224.53 91.3919 224.743H90.743C90.743 224.442 90.798 224.167 90.908 223.918C91.0204 223.669 91.1879 223.471 91.4103 223.324C91.6327 223.175 91.9101 223.1 92.2424 223.1C92.5284 223.1 92.7728 223.16 92.9756 223.28C93.1809 223.397 93.3373 223.564 93.4449 223.779C93.5549 223.991 93.6098 224.241 93.6098 224.527C93.6098 224.683 93.5879 224.842 93.5439 225.003C93.5023 225.162 93.4437 225.321 93.3679 225.48C93.2946 225.639 93.2078 225.795 93.1076 225.949C93.0074 226.103 92.8999 226.254 92.785 226.404L91.6009 227.954H93.8078ZM97.3699 223.166H97.4176V223.742H97.3699C97.062 223.742 96.809 223.801 96.6111 223.918C96.4156 224.033 96.2628 224.188 96.1528 224.384C96.0453 224.577 95.9707 224.794 95.9292 225.036C95.8877 225.278 95.8669 225.524 95.8669 225.773V226.558C95.8669 226.795 95.8889 227.005 95.9329 227.188C95.9793 227.369 96.0392 227.522 96.1125 227.646C96.1883 227.771 96.2726 227.865 96.3655 227.929C96.4608 227.992 96.5573 228.024 96.6551 228.024C96.7797 228.024 96.8897 227.995 96.985 227.936C97.0828 227.875 97.1634 227.79 97.227 227.683C97.2929 227.573 97.343 227.443 97.3773 227.294C97.4115 227.145 97.4286 226.982 97.4286 226.803C97.4286 226.644 97.4127 226.492 97.3809 226.345C97.3516 226.196 97.3064 226.064 97.2453 225.949C97.1842 225.832 97.106 225.74 97.0107 225.674C96.9178 225.606 96.8066 225.571 96.6771 225.571C96.5304 225.571 96.3936 225.618 96.2665 225.711C96.1418 225.801 96.0392 225.921 95.9585 226.07C95.8779 226.217 95.8302 226.377 95.8156 226.55L95.4819 226.547C95.5162 226.273 95.5736 226.039 95.6542 225.846C95.7349 225.651 95.8327 225.492 95.9475 225.37C96.0648 225.245 96.1944 225.155 96.3361 225.098C96.4779 225.04 96.627 225.01 96.7834 225.01C97.0107 225.01 97.205 225.061 97.3663 225.161C97.53 225.261 97.6632 225.395 97.7659 225.564C97.871 225.73 97.9479 225.918 97.9968 226.129C98.0457 226.336 98.0701 226.55 98.0701 226.77C98.0701 227.022 98.0396 227.258 97.9785 227.478C97.9198 227.698 97.8318 227.891 97.7145 228.057C97.5972 228.223 97.4494 228.353 97.271 228.445C97.095 228.538 96.8897 228.585 96.6551 228.585C96.4058 228.585 96.1907 228.526 96.0099 228.409C95.829 228.289 95.6787 228.13 95.5589 227.932C95.4416 227.734 95.3549 227.514 95.2986 227.272C95.2424 227.03 95.2143 226.785 95.2143 226.536V226.217C95.2143 225.84 95.2412 225.471 95.295 225.109C95.3488 224.748 95.4502 224.42 95.5993 224.127C95.7508 223.834 95.9683 223.6 96.2518 223.427C96.5378 223.253 96.9105 223.166 97.3699 223.166Z" fill="#999999"/>
<path d="M114.967 227.954V228.511H111.983V228.024L113.453 226.077C113.633 225.838 113.772 225.635 113.867 225.469C113.962 225.3 114.028 225.15 114.065 225.018C114.102 224.883 114.12 224.747 114.12 224.607C114.12 224.431 114.092 224.272 114.036 224.131C113.979 223.986 113.897 223.872 113.79 223.786C113.682 223.7 113.553 223.658 113.401 223.658C113.203 223.658 113.041 223.704 112.914 223.797C112.789 223.887 112.697 224.015 112.639 224.178C112.58 224.342 112.551 224.53 112.551 224.743H111.902C111.902 224.442 111.957 224.167 112.067 223.918C112.179 223.669 112.347 223.471 112.569 223.324C112.792 223.175 113.069 223.1 113.401 223.1C113.687 223.1 113.932 223.16 114.135 223.28C114.34 223.397 114.496 223.564 114.604 223.779C114.714 223.991 114.769 224.241 114.769 224.527C114.769 224.683 114.747 224.842 114.703 225.003C114.661 225.162 114.603 225.321 114.527 225.48C114.453 225.639 114.367 225.795 114.266 225.949C114.166 226.103 114.059 226.254 113.944 226.404L112.76 227.954H114.967ZM119.266 223.174V223.555L117.429 228.511H116.747L118.584 223.731H116.205V223.174H119.266Z" fill="#999999"/>
<path d="M134.078 227.954V228.511H131.094V228.024L132.564 226.077C132.745 225.838 132.883 225.635 132.978 225.469C133.073 225.3 133.139 225.15 133.176 225.018C133.213 224.883 133.231 224.747 133.231 224.607C133.231 224.431 133.203 224.272 133.147 224.131C133.09 223.986 133.009 223.872 132.901 223.786C132.793 223.7 132.664 223.658 132.512 223.658C132.314 223.658 132.152 223.704 132.025 223.797C131.9 223.887 131.809 224.015 131.75 224.178C131.691 224.342 131.662 224.53 131.662 224.743H131.013C131.013 224.442 131.068 224.167 131.178 223.918C131.29 223.669 131.458 223.471 131.68 223.324C131.903 223.175 132.18 223.1 132.512 223.1C132.798 223.1 133.043 223.16 133.246 223.28C133.451 223.397 133.607 223.564 133.715 223.779C133.825 223.991 133.88 224.241 133.88 224.527C133.88 224.683 133.858 224.842 133.814 225.003C133.772 225.162 133.714 225.321 133.638 225.48C133.565 225.639 133.478 225.795 133.378 225.949C133.277 226.103 133.17 226.254 133.055 226.404L131.871 227.954H134.078ZM138.278 227.067C138.278 227.392 138.215 227.668 138.091 227.896C137.966 228.12 137.796 228.292 137.581 228.409C137.366 228.526 137.123 228.585 136.852 228.585C136.583 228.585 136.341 228.526 136.126 228.409C135.911 228.292 135.741 228.12 135.616 227.896C135.492 227.668 135.429 227.392 135.429 227.067C135.429 226.854 135.464 226.66 135.532 226.484C135.6 226.306 135.697 226.151 135.822 226.019C135.949 225.887 136.099 225.785 136.272 225.714C136.446 225.641 136.638 225.604 136.848 225.604C137.124 225.604 137.37 225.668 137.585 225.795C137.8 225.92 137.969 226.092 138.091 226.312C138.215 226.532 138.278 226.784 138.278 227.067ZM137.633 227.052C137.633 226.854 137.6 226.68 137.534 226.528C137.47 226.374 137.38 226.254 137.262 226.169C137.145 226.083 137.007 226.041 136.848 226.041C136.687 226.041 136.549 226.083 136.434 226.169C136.319 226.254 136.23 226.374 136.166 226.528C136.105 226.68 136.075 226.854 136.075 227.052C136.075 227.258 136.105 227.434 136.166 227.58C136.227 227.725 136.315 227.836 136.43 227.914C136.547 227.99 136.689 228.028 136.855 228.028C137.019 228.028 137.158 227.99 137.273 227.914C137.391 227.836 137.48 227.725 137.541 227.58C137.602 227.434 137.633 227.258 137.633 227.052ZM138.179 224.563C138.179 224.822 138.121 225.056 138.006 225.263C137.892 225.471 137.734 225.635 137.534 225.755C137.336 225.874 137.11 225.934 136.855 225.934C136.596 225.934 136.367 225.874 136.166 225.755C135.966 225.635 135.809 225.471 135.697 225.263C135.584 225.056 135.528 224.822 135.528 224.563C135.528 224.253 135.584 223.989 135.697 223.771C135.812 223.554 135.969 223.388 136.17 223.273C136.37 223.158 136.599 223.1 136.855 223.1C137.114 223.1 137.343 223.158 137.541 223.273C137.739 223.388 137.894 223.554 138.006 223.771C138.121 223.989 138.179 224.253 138.179 224.563ZM137.53 224.574C137.53 224.396 137.502 224.238 137.446 224.101C137.392 223.964 137.314 223.857 137.211 223.779C137.111 223.698 136.992 223.658 136.855 223.658C136.719 223.658 136.599 223.696 136.496 223.771C136.396 223.845 136.318 223.95 136.261 224.087C136.205 224.223 136.177 224.386 136.177 224.574C136.177 224.758 136.204 224.918 136.258 225.054C136.314 225.191 136.393 225.298 136.496 225.373C136.599 225.449 136.719 225.487 136.855 225.487C136.992 225.487 137.111 225.449 137.211 225.373C137.314 225.298 137.392 225.191 137.446 225.054C137.502 224.918 137.53 224.758 137.53 224.574Z" fill="#999999"/>
<path d="M157.967 227.954V228.511H154.983V228.024L156.453 226.077C156.634 225.838 156.772 225.635 156.867 225.469C156.962 225.3 157.028 225.15 157.065 225.018C157.102 224.883 157.12 224.747 157.12 224.607C157.12 224.431 157.092 224.272 157.036 224.131C156.979 223.986 156.898 223.872 156.79 223.786C156.682 223.7 156.553 223.658 156.401 223.658C156.203 223.658 156.041 223.704 155.914 223.797C155.789 223.887 155.697 224.015 155.639 224.178C155.58 224.342 155.551 224.53 155.551 224.743H154.902C154.902 224.442 154.957 224.167 155.067 223.918C155.179 223.669 155.347 223.471 155.569 223.324C155.792 223.175 156.069 223.1 156.401 223.1C156.687 223.1 156.932 223.16 157.135 223.28C157.34 223.397 157.496 223.564 157.604 223.779C157.714 223.991 157.769 224.241 157.769 224.527C157.769 224.683 157.747 224.842 157.703 225.003C157.661 225.162 157.603 225.321 157.527 225.48C157.454 225.639 157.367 225.795 157.267 225.949C157.166 226.103 157.059 226.254 156.944 226.404L155.76 227.954H157.967ZM159.905 227.943H159.956C160.286 227.943 160.551 227.888 160.752 227.778C160.952 227.668 161.102 227.52 161.203 227.335C161.305 227.149 161.374 226.94 161.408 226.708C161.445 226.473 161.463 226.232 161.463 225.986V225.168C161.463 224.926 161.44 224.711 161.393 224.523C161.349 224.335 161.289 224.177 161.214 224.05C161.14 223.923 161.056 223.826 160.961 223.76C160.868 223.694 160.772 223.661 160.675 223.661C160.55 223.661 160.44 223.693 160.345 223.757C160.249 223.818 160.169 223.905 160.103 224.017C160.039 224.129 159.99 224.261 159.956 224.413C159.922 224.564 159.905 224.729 159.905 224.908C159.905 225.067 159.919 225.221 159.949 225.37C159.978 225.519 160.023 225.653 160.084 225.773C160.148 225.893 160.226 225.988 160.319 226.059C160.414 226.127 160.527 226.162 160.656 226.162C160.764 226.162 160.868 226.132 160.968 226.074C161.071 226.012 161.163 225.931 161.247 225.828C161.33 225.723 161.398 225.604 161.452 225.472C161.506 225.34 161.537 225.202 161.547 225.058H161.851C161.851 225.261 161.818 225.461 161.752 225.659C161.689 225.855 161.597 226.033 161.478 226.195C161.36 226.356 161.222 226.485 161.063 226.583C160.907 226.678 160.735 226.726 160.546 226.726C160.319 226.726 160.125 226.675 159.963 226.572C159.802 226.47 159.67 226.333 159.568 226.162C159.467 225.99 159.393 225.8 159.344 225.59C159.295 225.377 159.271 225.162 159.271 224.944C159.271 224.69 159.3 224.452 159.359 224.23C159.417 224.007 159.504 223.812 159.619 223.643C159.736 223.472 159.883 223.339 160.059 223.243C160.235 223.148 160.44 223.1 160.675 223.1C160.936 223.1 161.159 223.162 161.342 223.284C161.525 223.406 161.673 223.57 161.785 223.775C161.898 223.98 161.98 224.211 162.031 224.468C162.082 224.725 162.108 224.988 162.108 225.26V225.505C162.108 225.782 162.095 226.063 162.068 226.349C162.043 226.632 161.991 226.903 161.91 227.162C161.832 227.421 161.715 227.654 161.558 227.859C161.402 228.062 161.193 228.223 160.931 228.343C160.672 228.46 160.347 228.519 159.956 228.519H159.909L159.905 227.943Z" fill="#999999"/>
<path d="M176.291 225.509H176.709C176.895 225.509 177.049 225.47 177.171 225.392C177.293 225.311 177.383 225.202 177.442 225.065C177.503 224.926 177.534 224.77 177.534 224.596C177.534 224.391 177.507 224.219 177.453 224.079C177.399 223.94 177.319 223.835 177.211 223.764C177.106 223.693 176.973 223.658 176.812 223.658C176.66 223.658 176.528 223.696 176.416 223.771C176.303 223.845 176.216 223.95 176.155 224.087C176.094 224.223 176.064 224.385 176.064 224.571H175.419C175.419 224.299 175.475 224.052 175.587 223.83C175.702 223.608 175.863 223.43 176.071 223.298C176.281 223.166 176.528 223.1 176.812 223.1C177.083 223.1 177.321 223.158 177.526 223.273C177.732 223.385 177.892 223.554 178.007 223.779C178.124 224.001 178.183 224.278 178.183 224.611C178.183 224.745 178.157 224.889 178.106 225.043C178.057 225.195 177.977 225.337 177.867 225.469C177.76 225.601 177.618 225.709 177.442 225.795C177.269 225.878 177.056 225.92 176.804 225.92H176.291V225.509ZM176.291 226.066V225.659H176.804C177.102 225.659 177.346 225.7 177.534 225.78C177.722 225.861 177.867 225.968 177.97 226.103C178.073 226.237 178.144 226.385 178.183 226.547C178.224 226.705 178.245 226.864 178.245 227.023C178.245 227.272 178.208 227.494 178.135 227.687C178.064 227.88 177.963 228.043 177.831 228.178C177.701 228.312 177.55 228.414 177.376 228.482C177.203 228.551 177.013 228.585 176.808 228.585C176.608 228.585 176.422 228.552 176.251 228.486C176.08 228.42 175.929 228.325 175.8 228.2C175.67 228.073 175.569 227.918 175.495 227.734C175.425 227.549 175.389 227.337 175.389 227.1H176.038C176.038 227.286 176.069 227.448 176.13 227.588C176.191 227.727 176.279 227.836 176.394 227.914C176.509 227.99 176.647 228.028 176.808 228.028C176.969 228.028 177.109 227.992 177.226 227.921C177.343 227.848 177.434 227.738 177.497 227.591C177.563 227.445 177.596 227.26 177.596 227.038C177.596 226.815 177.559 226.633 177.486 226.492C177.415 226.347 177.314 226.241 177.182 226.173C177.05 226.102 176.892 226.066 176.709 226.066H176.291ZM182.647 225.417V226.231C182.647 226.669 182.612 227.038 182.544 227.338C182.478 227.639 182.383 227.881 182.258 228.064C182.133 228.248 181.983 228.381 181.807 228.464C181.634 228.544 181.438 228.585 181.221 228.585C181.049 228.585 180.889 228.559 180.74 228.508C180.594 228.456 180.462 228.375 180.344 228.262C180.227 228.147 180.127 227.998 180.044 227.815C179.961 227.632 179.897 227.409 179.853 227.148C179.809 226.886 179.787 226.581 179.787 226.231V225.417C179.787 224.98 179.821 224.613 179.89 224.318C179.958 224.022 180.055 223.785 180.179 223.606C180.306 223.426 180.457 223.296 180.63 223.218C180.806 223.14 181.002 223.1 181.217 223.1C181.39 223.1 181.55 223.126 181.697 223.177C181.846 223.226 181.978 223.306 182.093 223.416C182.21 223.523 182.311 223.667 182.394 223.848C182.477 224.027 182.539 224.245 182.581 224.505C182.625 224.764 182.647 225.068 182.647 225.417ZM182.001 226.341V225.304C182.001 225.064 181.99 224.854 181.968 224.673C181.946 224.49 181.915 224.333 181.873 224.204C181.832 224.074 181.778 223.969 181.712 223.889C181.648 223.808 181.575 223.749 181.492 223.713C181.409 223.674 181.317 223.654 181.217 223.654C181.092 223.654 180.981 223.685 180.883 223.746C180.788 223.804 180.706 223.898 180.638 224.028C180.572 224.157 180.522 224.327 180.487 224.538C180.453 224.748 180.436 225.003 180.436 225.304V226.341C180.436 226.581 180.447 226.792 180.469 226.975C180.493 227.159 180.526 227.318 180.568 227.452C180.612 227.584 180.666 227.693 180.729 227.778C180.793 227.864 180.866 227.927 180.949 227.969C181.032 228.008 181.123 228.028 181.221 228.028C181.35 228.028 181.462 227.996 181.558 227.932C181.656 227.869 181.737 227.77 181.803 227.635C181.869 227.498 181.918 227.324 181.95 227.111C181.984 226.896 182.001 226.639 182.001 226.341Z" fill="#999999"/>
<path d="M195.402 225.509H195.82C196.006 225.509 196.16 225.47 196.282 225.392C196.404 225.311 196.494 225.202 196.553 225.065C196.614 224.926 196.645 224.77 196.645 224.596C196.645 224.391 196.618 224.219 196.564 224.079C196.51 223.94 196.43 223.835 196.322 223.764C196.217 223.693 196.084 223.658 195.923 223.658C195.771 223.658 195.639 223.696 195.527 223.771C195.414 223.845 195.327 223.95 195.266 224.087C195.205 224.223 195.175 224.385 195.175 224.571H194.53C194.53 224.299 194.586 224.052 194.698 223.83C194.813 223.608 194.974 223.43 195.182 223.298C195.392 223.166 195.639 223.1 195.923 223.1C196.194 223.1 196.432 223.158 196.637 223.273C196.843 223.385 197.003 223.554 197.118 223.779C197.235 224.001 197.294 224.278 197.294 224.611C197.294 224.745 197.268 224.889 197.217 225.043C197.168 225.195 197.088 225.337 196.978 225.469C196.871 225.601 196.729 225.709 196.553 225.795C196.38 225.878 196.167 225.92 195.915 225.92H195.402V225.509ZM195.402 226.066V225.659H195.915C196.213 225.659 196.457 225.7 196.645 225.78C196.833 225.861 196.978 225.968 197.081 226.103C197.184 226.237 197.255 226.385 197.294 226.547C197.335 226.705 197.356 226.864 197.356 227.023C197.356 227.272 197.319 227.494 197.246 227.687C197.175 227.88 197.074 228.043 196.942 228.178C196.812 228.312 196.661 228.414 196.487 228.482C196.314 228.551 196.124 228.585 195.919 228.585C195.719 228.585 195.533 228.552 195.362 228.486C195.191 228.42 195.04 228.325 194.911 228.2C194.781 228.073 194.68 227.918 194.607 227.734C194.536 227.549 194.5 227.337 194.5 227.1H195.149C195.149 227.286 195.18 227.448 195.241 227.588C195.302 227.727 195.39 227.836 195.505 227.914C195.62 227.99 195.758 228.028 195.919 228.028C196.08 228.028 196.22 227.992 196.337 227.921C196.454 227.848 196.545 227.738 196.608 227.591C196.674 227.445 196.707 227.26 196.707 227.038C196.707 226.815 196.67 226.633 196.597 226.492C196.526 226.347 196.425 226.241 196.293 226.173C196.161 226.102 196.003 226.066 195.82 226.066H195.402ZM200.837 223.144V228.511H200.189V223.991L199.067 224.49V223.878L200.738 223.144H200.837Z" fill="#999999"/>
</g>
</g>
<g clip-path="url(#clip8_1_145)">
<path d="M66.6116 93.4912H67.2642L68.6609 97.8427L70.054 93.4912H70.7065L68.9139 98.8289H68.4006L66.6116 93.4912ZM66.399 93.4912H66.9709L67.0699 96.7466V98.8289H66.399V93.4912ZM70.3436 93.4912H70.9155V98.8289H70.2446V96.7466L70.3436 93.4912ZM76.1713 95.6981V96.6256C76.1713 97.002 76.1297 97.3331 76.0467 97.6191C75.966 97.9026 75.8475 98.1397 75.691 98.3303C75.5346 98.5209 75.3464 98.6639 75.1265 98.7592C74.9065 98.8545 74.6585 98.9022 74.3823 98.9022C74.1159 98.9022 73.8727 98.8545 73.6528 98.7592C73.4328 98.6639 73.2434 98.5209 73.0845 98.3303C72.9257 98.1397 72.8022 97.9026 72.7143 97.6191C72.6287 97.3331 72.586 97.002 72.586 96.6256V95.6981C72.586 95.3217 72.6287 94.9918 72.7143 94.7083C72.7998 94.4223 72.922 94.184 73.0809 93.9934C73.2397 93.8028 73.4291 93.6598 73.6491 93.5645C73.8691 93.4667 74.1122 93.4179 74.3786 93.4179C74.6548 93.4179 74.9029 93.4667 75.1228 93.5645C75.3452 93.6598 75.5334 93.8028 75.6874 93.9934C75.8438 94.184 75.9636 94.4223 76.0467 94.7083C76.1297 94.9918 76.1713 95.3217 76.1713 95.6981ZM75.5041 96.6256V95.6908C75.5041 95.3975 75.4796 95.1458 75.4308 94.9356C75.3819 94.7229 75.3098 94.5494 75.2145 94.415C75.1192 94.2806 75.0018 94.1816 74.8625 94.1181C74.7232 94.0521 74.5619 94.0191 74.3786 94.0191C74.2051 94.0191 74.0487 94.0521 73.9094 94.1181C73.7725 94.1816 73.6552 94.2806 73.5574 94.415C73.4597 94.5494 73.3839 94.7229 73.3302 94.9356C73.2788 95.1458 73.2532 95.3975 73.2532 95.6908V96.6256C73.2532 96.9213 73.2788 97.1755 73.3302 97.3881C73.3839 97.5983 73.4597 97.7718 73.5574 97.9087C73.6576 98.0431 73.7774 98.1433 73.9167 98.2093C74.056 98.2728 74.2112 98.3046 74.3823 98.3046C74.5656 98.3046 74.7269 98.2728 74.8662 98.2093C75.008 98.1433 75.1253 98.0431 75.2181 97.9087C75.3135 97.7718 75.3843 97.5983 75.4308 97.3881C75.4796 97.1755 75.5041 96.9213 75.5041 96.6256Z" fill="#808080"/>
<path d="M92.0036 93.4912V98.8289H91.3364V93.4912H92.0036ZM93.4077 93.4912V94.0704H89.936V93.4912H93.4077ZM97.3328 93.4912H98.0073V97.2488C98.0073 97.6496 97.9303 97.971 97.7764 98.213C97.6224 98.4549 97.4195 98.6309 97.1678 98.7409C96.9185 98.8484 96.6497 98.9022 96.3613 98.9022C96.0533 98.9022 95.776 98.8484 95.5291 98.7409C95.2823 98.6309 95.0855 98.4549 94.9389 98.213C94.7947 97.971 94.7226 97.6496 94.7226 97.2488V93.4912H95.3935V97.2488C95.3935 97.5274 95.4326 97.7449 95.5108 97.9014C95.5914 98.0578 95.7039 98.1678 95.848 98.2313C95.9947 98.2948 96.1658 98.3266 96.3613 98.3266C96.5593 98.3266 96.7303 98.2948 96.8745 98.2313C97.0212 98.1678 97.1336 98.0578 97.2118 97.9014C97.2924 97.7449 97.3328 97.5274 97.3328 97.2488V93.4912Z" fill="#808080"/>
<path d="M111.963 97.2158L112.817 93.4912H113.297L113.044 94.9392L112.117 98.8289H111.637L111.963 97.2158ZM111.12 93.4912L111.787 97.1425L111.985 98.8289H111.512L110.449 93.4912H111.12ZM114.386 97.1388L115.039 93.4912H115.71L114.65 98.8289H114.177L114.386 97.1388ZM113.374 93.4912L114.203 97.2158L114.522 98.8289H114.042L113.154 94.9392L112.901 93.4912H113.374ZM119.979 98.2533V98.8289H117.662V98.2533H119.979ZM117.783 93.4912V98.8289H117.109V93.4912H117.783ZM119.668 95.7861V96.3616H117.662V95.7861H119.668ZM119.943 93.4912V94.0704H117.662V93.4912H119.943Z" fill="#808080"/>
<path d="M132.274 93.4912V98.8289H131.606V93.4912H132.274ZM133.678 93.4912V94.0704H130.206V93.4912H133.678ZM137.988 95.7861V96.3616H135.674V95.7861H137.988ZM135.766 93.4912V98.8289H135.092V93.4912H135.766ZM138.585 93.4912V98.8289H137.911V93.4912H138.585Z" fill="#808080"/>
<path d="M155.121 93.4912V98.8289H154.447V93.4912H155.121ZM156.921 95.8924V96.4716H154.993V95.8924H156.921ZM157.226 93.4912V94.0704H154.993V93.4912H157.226ZM158.691 93.4912H160.183C160.53 93.4912 160.821 93.5523 161.055 93.6745C161.292 93.7967 161.471 93.9775 161.591 94.217C161.713 94.4541 161.774 94.7462 161.774 95.0932C161.774 95.3376 161.734 95.5612 161.653 95.7641C161.572 95.9645 161.455 96.1356 161.301 96.2773C161.147 96.4166 160.96 96.5205 160.74 96.5889L160.557 96.6659H159.226L159.219 96.0904H160.176C160.381 96.0904 160.552 96.0464 160.689 95.9584C160.826 95.868 160.928 95.747 160.997 95.5955C161.065 95.4439 161.099 95.2765 161.099 95.0932C161.099 94.8879 161.069 94.7083 161.008 94.5543C160.947 94.4003 160.849 94.2818 160.714 94.1987C160.582 94.1132 160.405 94.0704 160.183 94.0704H159.365V98.8289H158.691V93.4912ZM161.253 98.8289L160.19 96.4093L160.89 96.4056L161.976 98.7849V98.8289H161.253Z" fill="#808080"/>
<path d="M177.258 97.4798C177.258 97.3551 177.244 97.2451 177.214 97.1498C177.185 97.0521 177.134 96.9641 177.06 96.8859C176.987 96.8077 176.884 96.7331 176.752 96.6623C176.62 96.5914 176.453 96.5193 176.25 96.446C176.03 96.3678 175.831 96.281 175.653 96.1857C175.474 96.0879 175.321 95.9767 175.194 95.8521C175.07 95.7274 174.973 95.5845 174.905 95.4232C174.836 95.2618 174.802 95.0773 174.802 94.8696C174.802 94.6618 174.837 94.47 174.908 94.294C174.982 94.1181 175.084 93.9653 175.216 93.8358C175.351 93.7038 175.512 93.6012 175.7 93.5278C175.888 93.4545 176.099 93.4179 176.331 93.4179C176.678 93.4179 176.97 93.4948 177.207 93.6488C177.446 93.8003 177.627 93.9995 177.75 94.2464C177.872 94.4908 177.933 94.7523 177.933 95.0309H177.258C177.258 94.8305 177.225 94.6533 177.159 94.4993C177.096 94.3429 176.996 94.2207 176.859 94.1327C176.724 94.0423 176.548 93.9971 176.331 93.9971C176.135 93.9971 175.974 94.035 175.847 94.1107C175.722 94.1865 175.629 94.2891 175.568 94.4187C175.51 94.5482 175.48 94.6961 175.48 94.8623C175.48 94.9747 175.5 95.0773 175.539 95.1702C175.578 95.2606 175.638 95.3449 175.719 95.4232C175.802 95.5014 175.904 95.5735 176.026 95.6394C176.151 95.7054 176.298 95.769 176.466 95.8301C176.728 95.9156 176.952 96.0109 177.137 96.116C177.323 96.2211 177.475 96.3396 177.592 96.4716C177.709 96.6012 177.795 96.749 177.848 96.9152C177.905 97.079 177.933 97.2647 177.933 97.4724C177.933 97.69 177.896 97.8867 177.823 98.0627C177.752 98.2386 177.648 98.3889 177.511 98.5136C177.374 98.6382 177.209 98.7348 177.016 98.8032C176.823 98.8692 176.606 98.9022 176.364 98.9022C176.154 98.9022 175.947 98.868 175.744 98.7995C175.544 98.7311 175.362 98.6284 175.198 98.4916C175.034 98.3547 174.903 98.1861 174.806 97.9857C174.708 97.7828 174.659 97.5482 174.659 97.2818H175.334C175.334 97.4651 175.361 97.6227 175.414 97.7547C175.468 97.8843 175.543 97.9918 175.638 98.0773C175.733 98.1629 175.842 98.2264 175.964 98.268C176.089 98.3071 176.222 98.3266 176.364 98.3266C176.559 98.3266 176.723 98.2924 176.855 98.224C176.989 98.1555 177.09 98.0578 177.156 97.9307C177.224 97.8036 177.258 97.6533 177.258 97.4798ZM181.172 93.9641L179.713 98.8289H179.024L180.743 93.4912H181.176L181.172 93.9641ZM182.353 98.8289L180.894 93.9641L180.886 93.4912H181.323L183.042 98.8289H182.353ZM182.353 96.8529V97.4321H179.779V96.8529H182.353Z" fill="#808080"/>
<path d="M196.369 97.4798C196.369 97.3551 196.355 97.2451 196.325 97.1498C196.296 97.0521 196.245 96.9641 196.171 96.8859C196.098 96.8077 195.995 96.7331 195.863 96.6623C195.731 96.5914 195.564 96.5193 195.361 96.446C195.141 96.3678 194.942 96.281 194.764 96.1857C194.585 96.0879 194.432 95.9767 194.305 95.8521C194.181 95.7274 194.084 95.5845 194.016 95.4232C193.947 95.2618 193.913 95.0773 193.913 94.8696C193.913 94.6618 193.949 94.47 194.019 94.294C194.093 94.1181 194.195 93.9653 194.327 93.8358C194.462 93.7038 194.623 93.6012 194.811 93.5278C194.999 93.4545 195.21 93.4179 195.442 93.4179C195.789 93.4179 196.081 93.4948 196.318 93.6488C196.558 93.8003 196.738 93.9995 196.861 94.2464C196.983 94.4908 197.044 94.7523 197.044 95.0309H196.369C196.369 94.8305 196.336 94.6533 196.27 94.4993C196.207 94.3429 196.107 94.2207 195.97 94.1327C195.835 94.0423 195.659 93.9971 195.442 93.9971C195.246 93.9971 195.085 94.035 194.958 94.1107C194.833 94.1865 194.74 94.2891 194.679 94.4187C194.621 94.5482 194.591 94.6961 194.591 94.8623C194.591 94.9747 194.611 95.0773 194.65 95.1702C194.689 95.2606 194.749 95.3449 194.83 95.4232C194.913 95.5014 195.015 95.5735 195.138 95.6394C195.262 95.7054 195.409 95.769 195.577 95.8301C195.839 95.9156 196.063 96.0109 196.248 96.116C196.434 96.2211 196.586 96.3396 196.703 96.4716C196.82 96.6012 196.906 96.749 196.96 96.9152C197.016 97.079 197.044 97.2647 197.044 97.4724C197.044 97.69 197.007 97.8867 196.934 98.0627C196.863 98.2386 196.759 98.3889 196.622 98.5136C196.485 98.6382 196.32 98.7348 196.127 98.8032C195.934 98.8692 195.717 98.9022 195.475 98.9022C195.265 98.9022 195.058 98.868 194.855 98.7995C194.655 98.7311 194.473 98.6284 194.309 98.4916C194.145 98.3547 194.015 98.1861 193.917 97.9857C193.819 97.7828 193.77 97.5482 193.77 97.2818H194.445C194.445 97.4651 194.472 97.6227 194.525 97.7547C194.579 97.8843 194.654 97.9918 194.749 98.0773C194.844 98.1629 194.953 98.2264 195.075 98.268C195.2 98.3071 195.333 98.3266 195.475 98.3266C195.67 98.3266 195.834 98.2924 195.966 98.224C196.101 98.1555 196.201 98.0578 196.267 97.9307C196.335 97.8036 196.369 97.6533 196.369 97.4798ZM201.064 93.4912H201.739V97.2488C201.739 97.6496 201.662 97.971 201.508 98.213C201.354 98.4549 201.151 98.6309 200.899 98.7409C200.65 98.8484 200.381 98.9022 200.093 98.9022C199.785 98.9022 199.507 98.8484 199.261 98.7409C199.014 98.6309 198.817 98.4549 198.67 98.213C198.526 97.971 198.454 97.6496 198.454 97.2488V93.4912H199.125V97.2488C199.125 97.5274 199.164 97.7449 199.242 97.9014C199.323 98.0578 199.435 98.1678 199.58 98.2313C199.726 98.2948 199.897 98.3266 200.093 98.3266C200.291 98.3266 200.462 98.2948 200.606 98.2313C200.753 98.1678 200.865 98.0578 200.943 97.9014C201.024 97.7449 201.064 97.5274 201.064 97.2488V93.4912Z" fill="#808080"/>
<g clip-path="url(#clip9_1_145)">
<path d="M110.509 56.9828H111.34L113.118 62.5211L114.891 56.9828H115.721L113.44 63.7762H112.786L110.509 56.9828ZM110.239 56.9828H110.967L111.093 61.1261V63.7762H110.239V56.9828ZM115.259 56.9828H115.987V63.7762H115.133V61.1261L115.259 56.9828ZM119.822 62.9131V60.1742C119.822 59.9752 119.791 59.815 119.729 59.6937C119.67 59.5724 119.58 59.4837 119.458 59.4277C119.34 59.3717 119.191 59.3437 119.011 59.3437C118.836 59.3437 118.685 59.3795 118.558 59.451C118.434 59.5226 118.337 59.6175 118.269 59.7357C118.203 59.8539 118.171 59.9845 118.171 60.1276H117.345C117.345 59.9472 117.384 59.7683 117.461 59.591C117.542 59.4137 117.657 59.2535 117.807 59.1104C117.956 58.9642 118.135 58.8492 118.343 58.7652C118.555 58.6781 118.791 58.6345 119.053 58.6345C119.364 58.6345 119.639 58.6859 119.878 58.7885C120.118 58.888 120.306 59.0513 120.443 59.2784C120.58 59.5055 120.648 59.8072 120.648 60.1836V62.6751C120.648 62.8431 120.661 63.0219 120.686 63.2117C120.714 63.4014 120.752 63.5647 120.802 63.7016V63.7762H119.948C119.908 63.6767 119.877 63.5445 119.855 63.3797C119.833 63.2117 119.822 63.0562 119.822 62.9131ZM119.953 60.7155L119.962 61.322H119.388C119.193 61.322 119.014 61.3438 118.852 61.3874C118.693 61.4309 118.556 61.4947 118.441 61.5787C118.326 61.6595 118.238 61.7606 118.175 61.8819C118.116 62.0032 118.087 62.1417 118.087 62.2972C118.087 62.4994 118.115 62.6611 118.171 62.7824C118.227 62.9006 118.311 62.9862 118.423 63.039C118.535 63.0919 118.676 63.1184 118.847 63.1184C119.056 63.1184 119.239 63.0702 119.398 62.9737C119.556 62.8773 119.679 62.7607 119.766 62.6238C119.857 62.4869 119.899 62.3594 119.892 62.2412L120.074 62.6285C120.062 62.7498 120.021 62.882 119.953 63.0251C119.888 63.165 119.796 63.3003 119.678 63.431C119.56 63.5585 119.42 63.6643 119.258 63.7483C119.099 63.8291 118.92 63.8696 118.721 63.8696C118.429 63.8696 118.172 63.8136 117.951 63.7016C117.734 63.5896 117.564 63.4248 117.443 63.207C117.322 62.9893 117.261 62.7202 117.261 62.3998C117.261 62.1572 117.303 61.9333 117.387 61.728C117.471 61.5227 117.595 61.3454 117.76 61.1961C117.925 61.0436 118.132 60.9254 118.381 60.8415C118.633 60.7575 118.923 60.7155 119.253 60.7155H119.953ZM122.757 59.521V63.7762H121.931V58.7278H122.729L122.757 59.521ZM124.012 58.6998L124.017 59.5024C123.949 59.4868 123.886 59.4775 123.83 59.4744C123.777 59.4682 123.715 59.465 123.644 59.465C123.488 59.465 123.351 59.4961 123.233 59.5584C123.118 59.6206 123.018 59.7077 122.934 59.8196C122.85 59.9316 122.784 60.0654 122.734 60.2209C122.684 60.3733 122.65 60.5413 122.631 60.7248L122.417 60.8648C122.417 60.5599 122.44 60.2738 122.487 60.0063C122.536 59.7388 122.613 59.5024 122.715 59.2971C122.818 59.0887 122.948 58.9269 123.107 58.8118C123.269 58.6936 123.462 58.6345 123.686 58.6345C123.735 58.6345 123.796 58.6423 123.868 58.6579C123.942 58.6703 123.991 58.6843 124.012 58.6998ZM126.499 63.165C126.664 63.165 126.813 63.1324 126.947 63.067C127.084 62.9986 127.196 62.8929 127.283 62.7498C127.37 62.6036 127.42 62.4138 127.432 62.1805H128.207C128.194 62.5165 128.109 62.812 127.95 63.067C127.795 63.319 127.589 63.5165 127.334 63.6596C127.082 63.7996 126.804 63.8696 126.499 63.8696C126.173 63.8696 125.888 63.8167 125.645 63.7109C125.406 63.6052 125.207 63.4527 125.048 63.2537C124.893 63.0515 124.776 62.8073 124.698 62.5211C124.62 62.2319 124.582 61.9037 124.582 61.5367V60.9674C124.582 60.6004 124.62 60.2738 124.698 59.9876C124.776 59.6983 124.893 59.4542 125.048 59.2551C125.207 59.0529 125.406 58.8989 125.645 58.7932C125.888 58.6874 126.173 58.6345 126.499 58.6345C126.841 58.6345 127.137 58.7076 127.386 58.8538C127.638 58.9969 127.834 59.2053 127.974 59.479C128.117 59.7497 128.194 60.0778 128.207 60.4635H127.432C127.42 60.2147 127.375 60.0078 127.297 59.843C127.219 59.675 127.113 59.5506 126.98 59.4697C126.846 59.3857 126.686 59.3437 126.499 59.3437C126.281 59.3437 126.101 59.3826 125.958 59.4604C125.818 59.535 125.708 59.6439 125.627 59.787C125.546 59.9301 125.488 60.1011 125.454 60.3002C125.423 60.4993 125.407 60.7217 125.407 60.9674V61.5367C125.407 61.7824 125.423 62.0063 125.454 62.2085C125.488 62.4076 125.544 62.5787 125.622 62.7218C125.703 62.8649 125.815 62.9753 125.958 63.053C126.101 63.1277 126.281 63.165 126.499 63.165ZM129.989 56.6096V63.7762H129.163V56.6096H129.989ZM129.789 61.0607L129.453 61.0467C129.449 60.7015 129.488 60.3826 129.569 60.0903C129.653 59.7948 129.771 59.5381 129.924 59.3204C130.079 59.1027 130.264 58.9347 130.479 58.8165C130.694 58.6952 130.932 58.6345 131.193 58.6345C131.398 58.6345 131.585 58.6687 131.753 58.7372C131.921 58.8025 132.064 58.9083 132.182 59.0544C132.3 59.2006 132.391 59.3904 132.453 59.6237C132.518 59.8539 132.551 60.1354 132.551 60.4682V63.7762H131.725V60.4589C131.725 60.1945 131.695 59.9829 131.636 59.8243C131.58 59.6626 131.493 59.5459 131.375 59.4744C131.26 59.3997 131.114 59.3624 130.936 59.3624C130.775 59.3624 130.624 59.4075 130.484 59.4977C130.344 59.5879 130.221 59.7123 130.115 59.871C130.013 60.0296 129.932 60.2116 129.873 60.4169C129.817 60.619 129.789 60.8337 129.789 61.0607ZM139.699 63.067V63.7762H135.901V63.1557L137.772 60.6781C138.002 60.3733 138.178 60.1151 138.299 59.9036C138.42 59.689 138.504 59.4977 138.551 59.3297C138.598 59.1587 138.621 58.9845 138.621 58.8072C138.621 58.5832 138.585 58.381 138.514 58.2006C138.442 58.0171 138.338 57.8709 138.201 57.762C138.064 57.6532 137.899 57.5987 137.706 57.5987C137.454 57.5987 137.248 57.6578 137.086 57.776C136.927 57.8911 136.811 58.0529 136.736 58.2613C136.661 58.4697 136.624 58.7092 136.624 58.9798H135.798C135.798 58.5972 135.868 58.2473 136.008 57.93C136.151 57.6127 136.364 57.3608 136.647 57.1741C136.93 56.9844 137.283 56.8895 137.706 56.8895C138.07 56.8895 138.381 56.9657 138.64 57.1181C138.901 57.2674 139.1 57.479 139.237 57.7527C139.377 58.0233 139.447 58.3406 139.447 58.7045C139.447 58.9036 139.419 59.1058 139.363 59.3111C139.31 59.5133 139.235 59.7154 139.139 59.9176C139.046 60.1198 138.935 60.3189 138.808 60.5148C138.68 60.7108 138.543 60.9037 138.397 61.0934L136.89 63.067H139.699ZM144.253 59.8383V60.8741C144.253 61.4309 144.209 61.9006 144.122 62.2832C144.038 62.6658 143.917 62.9737 143.758 63.207C143.599 63.4403 143.408 63.6098 143.184 63.7156C142.963 63.8182 142.714 63.8696 142.438 63.8696C142.22 63.8696 142.016 63.8369 141.826 63.7716C141.64 63.7063 141.472 63.6021 141.322 63.459C141.173 63.3128 141.046 63.123 140.94 62.8897C140.834 62.6565 140.753 62.3734 140.697 62.0406C140.641 61.7077 140.613 61.3189 140.613 60.8741V59.8383C140.613 59.2815 140.657 58.8149 140.744 58.4386C140.831 58.0622 140.954 57.7605 141.112 57.5334C141.274 57.3032 141.466 57.1384 141.686 57.0388C141.91 56.9393 142.159 56.8895 142.433 56.8895C142.654 56.8895 142.857 56.9222 143.044 56.9875C143.234 57.0497 143.402 57.1508 143.548 57.2908C143.697 57.4276 143.825 57.6112 143.931 57.8413C144.036 58.0684 144.116 58.3468 144.169 58.6765C144.225 59.0062 144.253 59.3935 144.253 59.8383ZM143.431 61.0141V59.6937C143.431 59.3888 143.417 59.1213 143.389 58.8911C143.361 58.6579 143.321 58.4588 143.268 58.2939C143.215 58.1291 143.147 57.9953 143.063 57.8927C142.982 57.79 142.889 57.7154 142.783 57.6687C142.677 57.6189 142.56 57.5941 142.433 57.5941C142.274 57.5941 142.133 57.6329 142.008 57.7107C141.887 57.7853 141.783 57.9051 141.696 58.07C141.612 58.2348 141.548 58.451 141.504 58.7185C141.461 58.986 141.439 59.3111 141.439 59.6937V61.0141C141.439 61.3189 141.453 61.588 141.481 61.8213C141.512 62.0546 141.554 62.2567 141.607 62.4278C141.663 62.5958 141.731 62.7342 141.812 62.8431C141.893 62.952 141.987 63.0328 142.092 63.0857C142.198 63.1355 142.313 63.1604 142.438 63.1604C142.602 63.1604 142.745 63.1199 142.867 63.039C142.991 62.9582 143.095 62.8322 143.179 62.6611C143.263 62.4869 143.326 62.2645 143.366 61.9939C143.41 61.7202 143.431 61.3936 143.431 61.0141ZM147.803 56.9455V63.7762H146.977V58.0233L145.55 58.6579V57.8787L147.677 56.9455H147.803ZM153.817 56.9828V57.4681L151.48 63.7762H150.612L152.95 57.692H149.922V56.9828H153.817Z" fill="#989898"/>
<g clip-path="url(#clip10_1_145)">
<path fill-rule="evenodd" clip-rule="evenodd" d="M72.0778 62.888C72.0006 62.6575 72.0486 62.396 72.2363 62.2135L74.8109 59.7067C75.0771 59.447 75.5094 59.447 75.7762 59.7067C76.0424 59.9665 76.0424 60.3871 75.7762 60.6468L73.3982 62.9623L75.8534 65.3532C76.1313 65.6229 76.1313 66.0604 75.8534 66.3301C75.5767 66.6004 75.1274 66.6004 74.8501 66.3301L72.1737 63.7245C71.9392 63.4958 71.9152 63.1536 72.0778 62.888Z" fill="#4DA1FF"/>
</g>
<g clip-path="url(#clip11_1_145)">
<path fill-rule="evenodd" clip-rule="evenodd" d="M197.443 62.888C197.52 62.6575 197.472 62.396 197.284 62.2135L194.71 59.7067C194.443 59.447 194.011 59.447 193.744 59.7067C193.478 59.9665 193.478 60.3871 193.744 60.6468L196.122 62.9623L193.667 65.3532C193.389 65.6229 193.389 66.0604 193.667 66.3301C193.944 66.6004 194.393 66.6004 194.67 66.3301L197.347 63.7245C197.581 63.4958 197.605 63.1536 197.443 62.888Z" fill="#4DA1FF"/>
</g>
</g>
</g>
</g>
</g>
<defs>
<filter id="filter0_d_1_145" x="0.441177" y="0.190757" width="273.706" height="308.118" filterUnits="userSpaceOnUse" color-interpolation-filters="sRGB">
<feFlood flood-opacity="0" result="BackgroundImageFix"/>
<feColorMatrix in="SourceAlpha" type="matrix" values="0 0 0 0 0 0 0 0 0 0 0 0 0 0 0 0 0 0 127 0" result="hardAlpha"/>
<feOffset dy="4.74958"/>
<feGaussianBlur stdDeviation="20.7794"/>
<feComposite in2="hardAlpha" operator="out"/>
<feColorMatrix type="matrix" values="0 0 0 0 0 0 0 0 0 0 0 0 0 0 0 0 0 0 0.25 0"/>
<feBlend mode="normal" in2="BackgroundImageFix" result="effect1_dropShadow_1_145"/>
<feBlend mode="normal" in="SourceGraphic" in2="effect1_dropShadow_1_145" result="shape"/>
</filter>
<clipPath id="clip0_1_145">
<rect width="190.588" height="225" fill="white" transform="translate(42 37)"/>
</clipPath>
<clipPath id="clip1_1_145">
<rect width="142.651" height="193.159" fill="white" transform="translate(65.8235 52.8823)"/>
</clipPath>
<clipPath id="clip2_1_145">
<rect width="136.508" height="120.81" fill="white" transform="translate(67.8711 110.898)"/>
</clipPath>
<clipPath id="clip3_1_145">
<rect width="133.778" height="9.55557" fill="white" transform="translate(67.871 115.676)"/>
</clipPath>
<clipPath id="clip4_1_145">
<rect width="133.095" height="86.6827" fill="white" transform="translate(70.6012 110.898)"/>
</clipPath>
<clipPath id="clip5_1_145">
<rect width="134.461" height="9.55557" fill="white" transform="translate(67.871 168.914)"/>
</clipPath>
<clipPath id="clip6_1_145">
<rect width="136.508" height="9.55557" fill="white" transform="translate(67.871 195.533)"/>
</clipPath>
<clipPath id="clip7_1_145">
<rect width="135.143" height="9.55557" fill="white" transform="translate(67.871 222.153)"/>
</clipPath>
<clipPath id="clip8_1_145">
<rect width="139.238" height="49.1429" fill="white" transform="translate(65.8235 52.8823)"/>
</clipPath>
<clipPath id="clip9_1_145">
<rect width="125.588" height="19.1111" fill="white" transform="translate(71.9664 52.8823)"/>
</clipPath>
<clipPath id="clip10_1_145">
<rect width="4.09524" height="7.50795" fill="white" transform="translate(76.0618 66.5328) rotate(-180)"/>
</clipPath>
<clipPath id="clip11_1_145">
<rect width="4.09524" height="7.50795" fill="white" transform="matrix(1 0 0 -1 193.459 66.5328)"/>
</clipPath>
</defs>
</svg>
