<svg width="246" height="157" viewBox="0 0 246 157" fill="none" xmlns="http://www.w3.org/2000/svg">
<g clip-path="url(#clip0_1_109)" filter="url(#filter0_d_1_109)">
<rect x="35.1038" y="31.0708" width="174.948" height="86.476" rx="3.9912" fill="white" stroke="#E9EFF4" stroke-width="0.6652"/>
<g clip-path="url(#clip1_1_109)">
<g clip-path="url(#clip2_1_109)">
<rect x="65.7029" y="90.9387" width="16.63" height="16.63" rx="1.3304" fill="#FF6D4A" fill-opacity="0.1"/>
<path d="M73.0252 100.136V100.595H71.2596V100.136H73.0252ZM71.3561 96.339V100.595H70.8182V96.339H71.3561ZM74.9476 96.7161L73.7841 100.595H73.2345L74.6055 96.339H74.9505L74.9476 96.7161ZM75.8888 100.595L74.7254 96.7161L74.7195 96.339H75.0674L76.4384 100.595H75.8888ZM75.8888 99.0196V99.4815H73.8367V99.0196H75.8888Z" fill="#FF6D4A"/>
</g>
<g clip-path="url(#clip3_1_109)">
<rect x="45.0818" y="90.9387" width="15.9648" height="15.9648" rx="1.3304" fill="white" stroke="#4DA1FF" stroke-opacity="0.7" stroke-width="0.6652"/>
<g clip-path="url(#clip4_1_109)">
<path fill-rule="evenodd" clip-rule="evenodd" d="M50.2002 98.6556L55.1107 100.746L55.6674 96.0824L50.2002 98.6556ZM55.2266 101.071C55.2073 101.071 55.1881 101.067 55.1702 101.059L49.8198 98.7812C49.7711 98.7604 49.7392 98.7146 49.7381 98.6637C49.7371 98.6129 49.767 98.566 49.8149 98.5434L55.772 95.7399C55.8171 95.7187 55.8711 95.7225 55.9125 95.7502C55.9539 95.7778 55.976 95.8247 55.9704 95.8725L55.3637 100.954C55.3587 100.996 55.3332 101.033 55.295 101.053C55.2738 101.065 55.2502 101.071 55.2266 101.071Z" fill="#4DA1FF"/>
<path d="M50.2002 98.6556L50.1577 98.5653L49.9562 98.6601L50.1611 98.7474L50.2002 98.6556ZM55.1107 100.746L55.0716 100.838L55.194 100.89L55.2098 100.758L55.1107 100.746ZM55.6674 96.0824L55.7665 96.0942L55.7878 95.9154L55.6249 95.9921L55.6674 96.0824ZM55.1702 101.059L55.1311 101.151L55.1317 101.151L55.1702 101.059ZM49.8198 98.7812L49.7807 98.873L49.7807 98.873L49.8198 98.7812ZM49.7381 98.6637L49.6383 98.6656L49.6383 98.6659L49.7381 98.6637ZM49.8149 98.5434L49.7725 98.4531L49.7724 98.4532L49.8149 98.5434ZM55.772 95.7399L55.8145 95.8302L55.8146 95.8302L55.772 95.7399ZM55.9125 95.7502L55.857 95.8331L55.8572 95.8332L55.9125 95.7502ZM55.9704 95.8725L56.0694 95.8843L56.0695 95.8842L55.9704 95.8725ZM55.3637 100.954L55.4628 100.966L55.4628 100.966L55.3637 100.954ZM55.295 101.053L55.2476 100.965L55.247 100.966L55.295 101.053ZM50.1611 98.7474L55.0716 100.838L55.1498 100.654L50.2393 98.5638L50.1611 98.7474ZM55.2098 100.758L55.7665 96.0942L55.5683 96.0705L55.0116 100.734L55.2098 100.758ZM55.6249 95.9921L50.1577 98.5653L50.2427 98.7458L55.7099 96.1727L55.6249 95.9921ZM55.2266 100.971C55.2209 100.971 55.2147 100.97 55.2086 100.967L55.1317 101.151C55.1615 101.164 55.1937 101.17 55.2266 101.17V100.971ZM55.2093 100.967L49.8589 98.6894L49.7807 98.873L55.1311 101.151L55.2093 100.967ZM49.8589 98.6894C49.8443 98.6832 49.838 98.6712 49.8378 98.6616L49.6383 98.6659C49.6403 98.758 49.6978 98.8377 49.7807 98.873L49.8589 98.6894ZM49.8378 98.6619C49.8376 98.6524 49.8433 98.6404 49.8575 98.6337L49.7724 98.4532C49.6908 98.4916 49.6365 98.5735 49.6383 98.6656L49.8378 98.6619ZM49.8574 98.6337L55.8145 95.8302L55.7295 95.6497L49.7725 98.4531L49.8574 98.6337ZM55.8146 95.8302C55.8283 95.8237 55.8451 95.8251 55.857 95.8331L55.968 95.6673C55.8972 95.6198 55.8059 95.6136 55.7295 95.6497L55.8146 95.8302ZM55.8572 95.8332C55.8685 95.8407 55.8724 95.8516 55.8713 95.8608L56.0695 95.8842C56.0797 95.7978 56.0394 95.7148 55.9678 95.6672L55.8572 95.8332ZM55.8713 95.8607L55.2646 100.942L55.4628 100.966L56.0694 95.8843L55.8713 95.8607ZM55.2646 100.942C55.2636 100.95 55.2583 100.96 55.2476 100.965L55.3423 101.141C55.4081 101.106 55.4538 101.041 55.4628 100.966L55.2646 100.942ZM55.247 100.966C55.2411 100.969 55.234 100.971 55.2266 100.971V101.17C55.2664 101.17 55.3066 101.161 55.3429 101.141L55.247 100.966Z" fill="#4DA1FF"/>
<path fill-rule="evenodd" clip-rule="evenodd" d="M52.3335 101.891C52.3209 101.891 52.3082 101.89 52.2957 101.886C52.2359 101.87 52.195 101.818 52.1954 101.759L52.2127 99.6569C52.213 99.6255 52.2251 99.5953 52.2468 99.5717L55.7272 95.7718C55.7775 95.7172 55.8647 95.7115 55.9221 95.7591C55.9795 95.8069 55.9855 95.8898 55.9354 95.9444L52.4885 99.7077L52.4754 101.286L53.2359 100.1C53.2758 100.038 53.3607 100.018 53.4257 100.056C53.4908 100.094 53.5113 100.175 53.4716 100.237L52.4514 101.828C52.4258 101.868 52.3807 101.891 52.3335 101.891Z" fill="#4DA1FF"/>
<path d="M52.3335 101.891C52.3209 101.891 52.3082 101.89 52.2957 101.886C52.2359 101.87 52.195 101.818 52.1954 101.759L52.2127 99.6569C52.213 99.6255 52.2251 99.5953 52.2468 99.5717L55.7272 95.7718C55.7775 95.7172 55.8647 95.7115 55.9221 95.7591C55.9795 95.8069 55.9855 95.8898 55.9354 95.9444L52.4885 99.7077L52.4754 101.286L53.2359 100.1C53.2758 100.038 53.3607 100.018 53.4257 100.056C53.4908 100.094 53.5113 100.175 53.4716 100.237L52.4514 101.828C52.4258 101.868 52.3807 101.891 52.3335 101.891" stroke="#4DA1FF" stroke-width="0.19956"/>
</g>
</g>
</g>
<path d="M49.388 63.7436V64.4575H46.5187V63.7436H49.388ZM46.6324 60.897V67.5178H45.7957V60.897H46.6324ZM50.1293 60.897V67.5178H49.2926V60.897H50.1293ZM52.1348 62.5977V67.5178H51.3345V62.5977H52.1348ZM51.289 61.2926C51.289 61.1562 51.3269 61.041 51.4027 60.947C51.4785 60.853 51.5921 60.8061 51.7437 60.8061C51.8953 60.8061 52.009 60.853 52.0848 60.947C52.1636 61.041 52.203 61.1562 52.203 61.2926C52.203 61.423 52.1636 61.5351 52.0848 61.6291C52.009 61.7201 51.8953 61.7655 51.7437 61.7655C51.5921 61.7655 51.4785 61.7201 51.4027 61.6291C51.3269 61.5351 51.289 61.423 51.289 61.2926ZM54.0266 60.5332V67.5178H53.2217V60.5332H54.0266ZM56.5231 62.5977L54.7724 64.8941L53.6901 66.14L53.6355 65.2442L54.3813 64.2165L55.5545 62.5977H56.5231ZM55.7864 67.5178L54.404 65.1714L54.8178 64.4211L56.7231 67.5178H55.7864ZM57.0598 65.2942V64.8258C57.0598 64.4439 57.1083 64.1089 57.2053 63.8209C57.3023 63.5299 57.4372 63.2874 57.61 63.0933C57.7828 62.8993 57.9844 62.7538 58.2148 62.6568C58.4452 62.5568 58.6923 62.5067 58.956 62.5067C59.2258 62.5067 59.4759 62.5568 59.7063 62.6568C59.9367 62.7538 60.1383 62.8993 60.3111 63.0933C60.4869 63.2874 60.6234 63.5299 60.7204 63.8209C60.8174 64.1089 60.8659 64.4439 60.8659 64.8258V65.2942C60.8659 65.6762 60.8174 66.0127 60.7204 66.3037C60.6234 66.5917 60.4885 66.8327 60.3157 67.0267C60.1429 67.2207 59.9413 67.3662 59.7109 67.4633C59.4805 67.5603 59.2319 67.6088 58.9651 67.6088C58.6983 67.6088 58.4498 67.5603 58.2194 67.4633C57.989 67.3662 57.7859 67.2207 57.61 67.0267C57.4372 66.8327 57.3023 66.5917 57.2053 66.3037C57.1083 66.0127 57.0598 65.6762 57.0598 65.2942ZM57.8647 64.8258V65.2942C57.8647 65.564 57.892 65.8005 57.9465 66.0036C58.0011 66.2067 58.0784 66.3765 58.1784 66.5129C58.2785 66.6493 58.3952 66.7524 58.5286 66.8221C58.662 66.8888 58.8075 66.9221 58.9651 66.9221C59.147 66.9221 59.3062 66.8888 59.4426 66.8221C59.582 66.7524 59.6972 66.6493 59.7882 66.5129C59.8791 66.3765 59.9473 66.2067 59.9928 66.0036C60.0383 65.8005 60.061 65.564 60.061 65.2942V64.8258C60.061 64.556 60.0337 64.3211 59.9792 64.121C59.9246 63.9179 59.8473 63.7481 59.7472 63.6117C59.6472 63.4723 59.529 63.3692 59.3926 63.3025C59.2592 63.2328 59.1137 63.1979 58.956 63.1979C58.8014 63.1979 58.6574 63.2328 58.524 63.3025C58.3906 63.3692 58.2739 63.4723 58.1739 63.6117C58.0769 63.7481 58.0011 63.9179 57.9465 64.121C57.892 64.3211 57.8647 64.556 57.8647 64.8258ZM61.5436 65.2942V64.8258C61.5436 64.4439 61.5921 64.1089 61.6891 63.8209C61.7861 63.5299 61.921 63.2874 62.0938 63.0933C62.2666 62.8993 62.4682 62.7538 62.6986 62.6568C62.929 62.5568 63.1761 62.5067 63.4398 62.5067C63.7096 62.5067 63.9597 62.5568 64.1901 62.6568C64.4205 62.7538 64.6221 62.8993 64.7949 63.0933C64.9707 63.2874 65.1071 63.5299 65.2041 63.8209C65.3012 64.1089 65.3497 64.4439 65.3497 64.8258V65.2942C65.3497 65.6762 65.3012 66.0127 65.2041 66.3037C65.1071 66.5917 64.9722 66.8327 64.7994 67.0267C64.6266 67.2207 64.425 67.3662 64.1947 67.4633C63.9643 67.5603 63.7157 67.6088 63.4489 67.6088C63.1821 67.6088 62.9335 67.5603 62.7031 67.4633C62.4728 67.3662 62.2696 67.2207 62.0938 67.0267C61.921 66.8327 61.7861 66.5917 61.6891 66.3037C61.5921 66.0127 61.5436 65.6762 61.5436 65.2942ZM62.3485 64.8258V65.2942C62.3485 65.564 62.3757 65.8005 62.4303 66.0036C62.4849 66.2067 62.5622 66.3765 62.6622 66.5129C62.7623 66.6493 62.879 66.7524 63.0124 66.8221C63.1457 66.8888 63.2913 66.9221 63.4489 66.9221C63.6308 66.9221 63.7899 66.8888 63.9264 66.8221C64.0658 66.7524 64.181 66.6493 64.272 66.5129C64.3629 66.3765 64.4311 66.2067 64.4766 66.0036C64.5221 65.8005 64.5448 65.564 64.5448 65.2942V64.8258C64.5448 64.556 64.5175 64.3211 64.4629 64.121C64.4084 63.9179 64.3311 63.7481 64.231 63.6117C64.131 63.4723 64.0128 63.3692 63.8763 63.3025C63.743 63.2328 63.5974 63.1979 63.4398 63.1979C63.2852 63.1979 63.1412 63.2328 63.0078 63.3025C62.8744 63.3692 62.7577 63.4723 62.6577 63.6117C62.5607 63.7481 62.4849 63.9179 62.4303 64.121C62.3757 64.3211 62.3485 64.556 62.3485 64.8258ZM67.9918 62.5977V63.2434H65.6954V62.5977H67.9918ZM66.4457 61.4018H67.2506V66.2992C67.2506 66.4659 67.2703 66.5917 67.3097 66.6766C67.3521 66.7615 67.4052 66.8175 67.4689 66.8448C67.5325 66.8721 67.6007 66.8858 67.6735 66.8858C67.7281 66.8858 67.7887 66.8797 67.8554 66.8676C67.9221 66.8524 67.9675 66.8403 67.9918 66.8312L67.9872 67.5178C67.9327 67.539 67.8599 67.5587 67.769 67.5769C67.678 67.5982 67.5628 67.6088 67.4234 67.6088C67.2506 67.6088 67.0899 67.5678 66.9414 67.486C66.7928 67.4041 66.6731 67.2677 66.5821 67.0767C66.4912 66.8827 66.4457 66.622 66.4457 66.2946V61.4018ZM73.1169 66.6766V64.0073C73.1169 63.8133 73.0866 63.6572 73.026 63.539C72.9684 63.4207 72.8805 63.3343 72.7622 63.2798C72.647 63.2252 72.5015 63.1979 72.3257 63.1979C72.1559 63.1979 72.0089 63.2328 71.8846 63.3025C71.7633 63.3722 71.6694 63.4647 71.6027 63.5799C71.539 63.6951 71.5072 63.8224 71.5072 63.9619H70.7023C70.7023 63.786 70.7402 63.6117 70.816 63.4389C70.8948 63.2661 71.007 63.11 71.1525 62.9706C71.298 62.8281 71.4723 62.7159 71.6754 62.6341C71.8816 62.5492 72.112 62.5067 72.3666 62.5067C72.6698 62.5067 72.9381 62.5568 73.1715 62.6568C73.4049 62.7538 73.5883 62.913 73.7217 63.1343C73.8551 63.3556 73.9218 63.6496 73.9218 64.0164V66.4447C73.9218 66.6084 73.9339 66.7827 73.9582 66.9676C73.9854 67.1525 74.0233 67.3117 74.0718 67.4451V67.5178H73.2397C73.2003 67.4208 73.17 67.292 73.1487 67.1313C73.1275 66.9676 73.1169 66.816 73.1169 66.6766ZM73.2442 64.5348L73.2533 65.126H72.694C72.503 65.126 72.3287 65.1472 72.1711 65.1896C72.0165 65.2321 71.8831 65.2942 71.7709 65.3761C71.6588 65.4549 71.5724 65.5534 71.5117 65.6716C71.4541 65.7899 71.4253 65.9248 71.4253 66.0763C71.4253 66.2734 71.4526 66.431 71.5072 66.5493C71.5618 66.6645 71.6436 66.7478 71.7527 66.7994C71.8619 66.8509 71.9998 66.8767 72.1665 66.8767C72.3696 66.8767 72.5485 66.8297 72.7031 66.7357C72.8577 66.6417 72.9775 66.528 73.0623 66.3946C73.1503 66.2613 73.1912 66.137 73.1851 66.0218L73.3625 66.3992C73.3503 66.5174 73.3109 66.6463 73.2442 66.7857C73.1806 66.9221 73.0911 67.054 72.976 67.1813C72.8608 67.3056 72.7243 67.4087 72.5667 67.4905C72.4121 67.5694 72.2378 67.6088 72.0438 67.6088C71.7588 67.6088 71.5087 67.5542 71.2935 67.4451C71.0813 67.3359 70.916 67.1753 70.7978 66.9631C70.6796 66.7509 70.6205 66.4886 70.6205 66.1764C70.6205 65.9399 70.6614 65.7217 70.7432 65.5216C70.8251 65.3215 70.9464 65.1487 71.107 65.0032C71.2677 64.8546 71.4693 64.7394 71.7118 64.6576C71.9574 64.5757 72.2408 64.5348 72.5621 64.5348H73.2442ZM75.7863 63.5435V69.4095H74.9815V62.5977H75.7136L75.7863 63.5435ZM78.5374 64.8349V65.2942C78.5374 65.6822 78.5011 66.0218 78.4283 66.3128C78.3586 66.6008 78.254 66.8418 78.1145 67.0358C77.9781 67.2268 77.8099 67.3708 77.6098 67.4678C77.4097 67.5618 77.1808 67.6088 76.9232 67.6088C76.6655 67.6088 76.4411 67.5603 76.2502 67.4633C76.0622 67.3632 75.9031 67.2192 75.7727 67.0313C75.6454 66.8433 75.5438 66.6175 75.468 66.3537C75.3953 66.0869 75.3453 65.7883 75.318 65.4579V64.7576C75.3453 64.409 75.3953 64.0968 75.468 63.8209C75.5408 63.542 75.6408 63.3055 75.7681 63.1115C75.8985 62.9145 76.0577 62.7644 76.2456 62.6613C76.4366 62.5583 76.6594 62.5067 76.9141 62.5067C77.1778 62.5067 77.4097 62.5522 77.6098 62.6432C77.8129 62.7341 77.9827 62.8751 78.1191 63.0661C78.2585 63.254 78.3631 63.495 78.4328 63.7891C78.5026 64.0801 78.5374 64.4287 78.5374 64.8349ZM77.7326 65.2942V64.8349C77.7326 64.5621 77.7113 64.3241 77.6689 64.121C77.6295 63.9179 77.5658 63.7497 77.4779 63.6163C77.39 63.4829 77.2794 63.3828 77.146 63.3161C77.0126 63.2495 76.8519 63.2161 76.664 63.2161C76.5033 63.2161 76.3608 63.2495 76.2365 63.3161C76.1153 63.3828 76.0107 63.4738 75.9228 63.589C75.8348 63.7012 75.7621 63.83 75.7045 63.9755C75.6469 64.118 75.6044 64.2665 75.5772 64.4211V65.799C75.6287 65.993 75.6969 66.1764 75.7818 66.3492C75.8667 66.5189 75.9804 66.6569 76.1228 66.763C76.2683 66.8691 76.4518 66.9221 76.6731 66.9221C76.858 66.9221 77.0171 66.8888 77.1505 66.8221C77.2839 66.7554 77.393 66.6554 77.4779 66.522C77.5658 66.3856 77.6295 66.2158 77.6689 66.0127C77.7113 65.8065 77.7326 65.567 77.7326 65.2942ZM80.1883 63.5435V69.4095H79.3834V62.5977H80.1155L80.1883 63.5435ZM82.9394 64.8349V65.2942C82.9394 65.6822 82.903 66.0218 82.8302 66.3128C82.7605 66.6008 82.6559 66.8418 82.5165 67.0358C82.3801 67.2268 82.2118 67.3708 82.0117 67.4678C81.8116 67.5618 81.5828 67.6088 81.3251 67.6088C81.0674 67.6088 80.8431 67.5603 80.6521 67.4633C80.4641 67.3632 80.305 67.2192 80.1746 67.0313C80.0473 66.8433 79.9457 66.6175 79.87 66.3537C79.7972 66.0869 79.7472 65.7883 79.7199 65.4579V64.7576C79.7472 64.409 79.7972 64.0968 79.87 63.8209C79.9427 63.542 80.0428 63.3055 80.1701 63.1115C80.3004 62.9145 80.4596 62.7644 80.6475 62.6613C80.8385 62.5583 81.0613 62.5067 81.316 62.5067C81.5797 62.5067 81.8116 62.5522 82.0117 62.6432C82.2148 62.7341 82.3846 62.8751 82.521 63.0661C82.6605 63.254 82.7651 63.495 82.8348 63.7891C82.9045 64.0801 82.9394 64.4287 82.9394 64.8349ZM82.1345 65.2942V64.8349C82.1345 64.5621 82.1133 64.3241 82.0708 64.121C82.0314 63.9179 81.9678 63.7497 81.8799 63.6163C81.7919 63.4829 81.6813 63.3828 81.5479 63.3161C81.4145 63.2495 81.2538 63.2161 81.0659 63.2161C80.9052 63.2161 80.7627 63.2495 80.6384 63.3161C80.5172 63.3828 80.4126 63.4738 80.3247 63.589C80.2368 63.7012 80.164 63.83 80.1064 63.9755C80.0488 64.118 80.0064 64.2665 79.9791 64.4211V65.799C80.0306 65.993 80.0988 66.1764 80.1837 66.3492C80.2686 66.5189 80.3823 66.6569 80.5248 66.763C80.6703 66.8691 80.8537 66.9221 81.075 66.9221C81.2599 66.9221 81.4191 66.8888 81.5524 66.8221C81.6858 66.7554 81.795 66.6554 81.8799 66.522C81.9678 66.3856 82.0314 66.2158 82.0708 66.0127C82.1133 65.8065 82.1345 65.567 82.1345 65.2942ZM87.3278 65.517L88.3873 60.897H88.983L88.6693 62.6932L87.5188 67.5178H86.9231L87.3278 65.517ZM86.282 60.897L87.1096 65.4261L87.3551 67.5178H86.7685L85.4498 60.897H86.282ZM90.3336 65.4215L91.143 60.897H91.9751L90.661 67.5178H90.0744L90.3336 65.4215ZM89.0785 60.897L90.1062 65.517L90.5018 67.5178H89.9061L88.8057 62.6932L88.4919 60.897H89.0785ZM93.4986 62.5977V67.5178H92.6983V62.5977H93.4986ZM92.6529 61.2926C92.6529 61.1562 92.6907 61.041 92.7665 60.947C92.8423 60.853 92.956 60.8061 93.1076 60.8061C93.2592 60.8061 93.3728 60.853 93.4486 60.947C93.5274 61.041 93.5669 61.1562 93.5669 61.2926C93.5669 61.423 93.5274 61.5351 93.4486 61.6291C93.3728 61.7201 93.2592 61.7655 93.1076 61.7655C92.956 61.7655 92.8423 61.7201 92.7665 61.6291C92.6907 61.5351 92.6529 61.423 92.6529 61.2926ZM95.3859 63.3707V67.5178H94.5811V62.5977H95.3587L95.3859 63.3707ZM96.6092 62.5704L96.6137 63.3525C96.547 63.3374 96.4864 63.3283 96.4318 63.3252C96.3803 63.3192 96.3196 63.3161 96.2499 63.3161C96.0983 63.3161 95.965 63.3465 95.8498 63.4071C95.7376 63.4677 95.6406 63.5526 95.5587 63.6617C95.4769 63.7709 95.4117 63.9012 95.3632 64.0528C95.3147 64.2014 95.2813 64.3651 95.2632 64.5439L95.054 64.6803C95.054 64.3832 95.0767 64.1043 95.1222 63.8436C95.1707 63.5829 95.245 63.3525 95.345 63.1524C95.4451 62.9493 95.5724 62.7917 95.727 62.6795C95.8846 62.5643 96.0726 62.5067 96.2908 62.5067C96.3393 62.5067 96.3985 62.5143 96.4682 62.5295C96.5409 62.5416 96.5879 62.5552 96.6092 62.5704ZM98.8966 67.6088C98.6025 67.6088 98.3373 67.5648 98.1008 67.4769C97.8644 67.389 97.6628 67.2556 97.496 67.0767C97.3293 66.8948 97.202 66.666 97.1141 66.3901C97.0262 66.1142 96.9822 65.7883 96.9822 65.4124V64.8577C96.9822 64.4242 97.0322 64.0574 97.1323 63.7572C97.2353 63.4571 97.3733 63.2161 97.5461 63.0342C97.7189 62.8493 97.9144 62.7159 98.1327 62.6341C98.3509 62.5492 98.5753 62.5067 98.8057 62.5067C99.1149 62.5067 99.3786 62.5568 99.5969 62.6568C99.8151 62.7568 99.9925 62.9054 100.129 63.1024C100.265 63.2995 100.365 63.542 100.429 63.83C100.496 64.118 100.529 64.4499 100.529 64.8258V65.2942H97.4551V64.6076H99.7242V64.4939C99.7121 64.2392 99.6772 64.0149 99.6196 63.8209C99.565 63.6269 99.4741 63.4753 99.3468 63.3662C99.2195 63.254 99.0391 63.1979 98.8057 63.1979C98.6571 63.1979 98.5192 63.2237 98.3919 63.2752C98.2676 63.3237 98.1599 63.4101 98.069 63.5344C97.9811 63.6557 97.9114 63.8239 97.8598 64.0392C97.8113 64.2544 97.7871 64.5272 97.7871 64.8577V65.4124C97.7871 65.6762 97.8113 65.9035 97.8598 66.0945C97.9114 66.2825 97.9856 66.4386 98.0826 66.5629C98.1827 66.6842 98.3039 66.7751 98.4464 66.8357C98.5919 66.8933 98.7572 66.9221 98.9421 66.9221C99.2119 66.9221 99.4347 66.8706 99.6105 66.7675C99.7863 66.6614 99.9394 66.5265 100.07 66.3628L100.493 66.8676C100.405 66.9919 100.29 67.1116 100.147 67.2268C100.008 67.339 99.8349 67.4314 99.6287 67.5042C99.4256 67.5739 99.1816 67.6088 98.8966 67.6088ZM102.471 67.5178H101.666V62.0793C101.666 61.7246 101.722 61.426 101.834 61.1835C101.95 60.9379 102.112 60.753 102.321 60.6287C102.533 60.5014 102.785 60.4377 103.076 60.4377C103.158 60.4377 103.239 60.4438 103.321 60.4559C103.406 60.468 103.486 60.4862 103.562 60.5105L103.526 61.1971C103.477 61.182 103.418 61.1714 103.349 61.1653C103.282 61.1592 103.218 61.1562 103.158 61.1562C103.012 61.1562 102.888 61.1926 102.785 61.2653C102.682 61.3351 102.603 61.4381 102.548 61.5745C102.497 61.711 102.471 61.8792 102.471 62.0793V67.5178ZM103.308 62.5977V63.2434H101.025V62.5977H103.308ZM104.872 63.3707V67.5178H104.067V62.5977H104.845L104.872 63.3707ZM106.095 62.5704L106.1 63.3525C106.033 63.3374 105.972 63.3283 105.918 63.3252C105.866 63.3192 105.806 63.3161 105.736 63.3161C105.584 63.3161 105.451 63.3465 105.336 63.4071C105.224 63.4677 105.127 63.5526 105.045 63.6617C104.963 63.7709 104.898 63.9012 104.849 64.0528C104.801 64.2014 104.767 64.3651 104.749 64.5439L104.54 64.6803C104.54 64.3832 104.563 64.1043 104.608 63.8436C104.657 63.5829 104.731 63.3525 104.831 63.1524C104.931 62.9493 105.058 62.7917 105.213 62.6795C105.371 62.5643 105.559 62.5067 105.777 62.5067C105.825 62.5067 105.885 62.5143 105.954 62.5295C106.027 62.5416 106.074 62.5552 106.095 62.5704ZM108.942 66.6766V64.0073C108.942 63.8133 108.912 63.6572 108.851 63.539C108.794 63.4207 108.706 63.3343 108.587 63.2798C108.472 63.2252 108.327 63.1979 108.151 63.1979C107.981 63.1979 107.834 63.2328 107.71 63.3025C107.588 63.3722 107.494 63.4647 107.428 63.5799C107.364 63.6951 107.332 63.8224 107.332 63.9619H106.527C106.527 63.786 106.565 63.6117 106.641 63.4389C106.72 63.2661 106.832 63.11 106.978 62.9706C107.123 62.8281 107.297 62.7159 107.501 62.6341C107.707 62.5492 107.937 62.5067 108.192 62.5067C108.495 62.5067 108.763 62.5568 108.997 62.6568C109.23 62.7538 109.413 62.913 109.547 63.1343C109.68 63.3556 109.747 63.6496 109.747 64.0164V66.4447C109.747 66.6084 109.759 66.7827 109.783 66.9676C109.811 67.1525 109.848 67.3117 109.897 67.4451V67.5178H109.065C109.025 67.4208 108.995 67.292 108.974 67.1313C108.953 66.9676 108.942 66.816 108.942 66.6766ZM109.069 64.5348L109.078 65.126H108.519C108.328 65.126 108.154 65.1472 107.996 65.1896C107.842 65.2321 107.708 65.2942 107.596 65.3761C107.484 65.4549 107.397 65.5534 107.337 65.6716C107.279 65.7899 107.25 65.9248 107.25 66.0763C107.25 66.2734 107.278 66.431 107.332 66.5493C107.387 66.6645 107.469 66.7478 107.578 66.7994C107.687 66.8509 107.825 66.8767 107.992 66.8767C108.195 66.8767 108.374 66.8297 108.528 66.7357C108.683 66.6417 108.803 66.528 108.887 66.3946C108.975 66.2613 109.016 66.137 109.01 66.0218L109.188 66.3992C109.175 66.5174 109.136 66.6463 109.069 66.7857C109.006 66.9221 108.916 67.054 108.801 67.1813C108.686 67.3056 108.549 67.4087 108.392 67.4905C108.237 67.5694 108.063 67.6088 107.869 67.6088C107.584 67.6088 107.334 67.5542 107.119 67.4451C106.906 67.3359 106.741 67.1753 106.623 66.9631C106.505 66.7509 106.446 66.4886 106.446 66.1764C106.446 65.9399 106.487 65.7217 106.568 65.5216C106.65 65.3215 106.771 65.1487 106.932 65.0032C107.093 64.8546 107.294 64.7394 107.537 64.6576C107.782 64.5757 108.066 64.5348 108.387 64.5348H109.069ZM111.611 63.5753V67.5178H110.811V62.5977H111.566L111.611 63.5753ZM111.448 64.8713L111.075 64.8577C111.072 64.5212 111.105 64.2104 111.175 63.9255C111.245 63.6375 111.349 63.3874 111.489 63.1752C111.631 62.963 111.809 62.7993 112.021 62.6841C112.236 62.5659 112.486 62.5067 112.771 62.5067C112.959 62.5067 113.133 62.5401 113.294 62.6068C113.458 62.6704 113.6 62.772 113.721 62.9114C113.843 63.0509 113.937 63.2298 114.003 63.448C114.073 63.6663 114.108 63.93 114.108 64.2392V67.5178H113.303V64.2802C113.303 64.0225 113.268 63.8163 113.198 63.6617C113.132 63.5071 113.036 63.395 112.912 63.3252C112.788 63.2525 112.639 63.2161 112.466 63.2161C112.269 63.2161 112.104 63.2601 111.971 63.348C111.84 63.4359 111.736 63.5572 111.657 63.7118C111.581 63.8664 111.527 64.0437 111.493 64.2438C111.463 64.4408 111.448 64.65 111.448 64.8713ZM114.099 64.4075L113.562 64.5803C113.559 64.3105 113.593 64.0513 113.662 63.8027C113.732 63.5541 113.835 63.3328 113.971 63.1388C114.111 62.9448 114.284 62.7917 114.49 62.6795C114.696 62.5643 114.936 62.5067 115.208 62.5067C115.433 62.5067 115.631 62.5416 115.804 62.6113C115.977 62.681 116.122 62.7887 116.241 62.9342C116.362 63.0767 116.453 63.2601 116.513 63.4844C116.574 63.7087 116.604 63.9755 116.604 64.2847V67.5178H115.799V64.2756C115.799 63.9998 115.765 63.786 115.695 63.6345C115.628 63.4799 115.533 63.3722 115.408 63.3116C115.284 63.2479 115.136 63.2161 114.963 63.2161C114.823 63.2161 114.699 63.2479 114.59 63.3116C114.484 63.3753 114.394 63.4632 114.322 63.5753C114.249 63.6845 114.193 63.8103 114.153 63.9528C114.117 64.0952 114.099 64.2468 114.099 64.4075ZM119.387 67.6088C119.093 67.6088 118.828 67.5648 118.592 67.4769C118.355 67.389 118.154 67.2556 117.987 67.0767C117.82 66.8948 117.693 66.666 117.605 66.3901C117.517 66.1142 117.473 65.7883 117.473 65.4124V64.8577C117.473 64.4242 117.523 64.0574 117.623 63.7572C117.726 63.4571 117.864 63.2161 118.037 63.0342C118.21 62.8493 118.405 62.7159 118.624 62.6341C118.842 62.5492 119.066 62.5067 119.297 62.5067C119.606 62.5067 119.869 62.5568 120.088 62.6568C120.306 62.7568 120.483 62.9054 120.62 63.1024C120.756 63.2995 120.856 63.542 120.92 63.83C120.987 64.118 121.02 64.4499 121.02 64.8258V65.2942H117.946V64.6076H120.215V64.4939C120.203 64.2392 120.168 64.0149 120.11 63.8209C120.056 63.6269 119.965 63.4753 119.838 63.3662C119.71 63.254 119.53 63.1979 119.297 63.1979C119.148 63.1979 119.01 63.2237 118.883 63.2752C118.758 63.3237 118.651 63.4101 118.56 63.5344C118.472 63.6557 118.402 63.8239 118.351 64.0392C118.302 64.2544 118.278 64.5272 118.278 64.8577V65.4124C118.278 65.6762 118.302 65.9035 118.351 66.0945C118.402 66.2825 118.476 66.4386 118.574 66.5629C118.674 66.6842 118.795 66.7751 118.937 66.8357C119.083 66.8933 119.248 66.9221 119.433 66.9221C119.703 66.9221 119.926 66.8706 120.101 66.7675C120.277 66.6614 120.43 66.5265 120.561 66.3628L120.984 66.8676C120.896 66.9919 120.78 67.1116 120.638 67.2268C120.499 67.339 120.326 67.4314 120.12 67.5042C119.916 67.5739 119.672 67.6088 119.387 67.6088ZM124.19 66.2582C124.19 66.1339 124.159 66.0248 124.099 65.9308C124.038 65.8369 123.938 65.7459 123.798 65.658C123.662 65.5701 123.477 65.4761 123.244 65.3761C123.016 65.2821 122.812 65.1896 122.63 65.0987C122.451 65.0047 122.299 64.9031 122.175 64.794C122.051 64.6849 121.955 64.5591 121.889 64.4166C121.825 64.2711 121.793 64.0998 121.793 63.9027C121.793 63.7057 121.83 63.5238 121.902 63.3571C121.978 63.1873 122.084 63.0388 122.221 62.9114C122.357 62.7841 122.521 62.6856 122.712 62.6159C122.903 62.5431 123.116 62.5067 123.353 62.5067C123.689 62.5067 123.976 62.5719 124.212 62.7023C124.449 62.8326 124.629 63.0115 124.753 63.2388C124.881 63.4632 124.944 63.7163 124.944 63.9982H124.144C124.144 63.8618 124.114 63.733 124.053 63.6117C123.993 63.4905 123.903 63.3919 123.785 63.3161C123.667 63.2373 123.523 63.1979 123.353 63.1979C123.174 63.1979 123.028 63.2298 122.916 63.2934C122.804 63.3571 122.722 63.4404 122.671 63.5435C122.622 63.6436 122.598 63.7542 122.598 63.8755C122.598 63.9664 122.61 64.0452 122.634 64.1119C122.662 64.1756 122.707 64.2362 122.771 64.2938C122.834 64.3484 122.921 64.406 123.03 64.4666C123.142 64.5242 123.285 64.5909 123.457 64.6667C123.791 64.797 124.071 64.9289 124.299 65.0623C124.526 65.1957 124.699 65.3518 124.817 65.5307C124.935 65.7095 124.994 65.9308 124.994 66.1946C124.994 66.4098 124.955 66.6053 124.876 66.7812C124.8 66.954 124.691 67.1025 124.549 67.2268C124.406 67.3511 124.235 67.4466 124.035 67.5133C123.838 67.5769 123.617 67.6088 123.371 67.6088C123.001 67.6088 122.687 67.536 122.43 67.3905C122.175 67.242 121.981 67.0495 121.848 66.813C121.717 66.5735 121.652 66.3173 121.652 66.0445H122.457C122.466 66.2749 122.518 66.4538 122.612 66.5811C122.709 66.7084 122.825 66.7963 122.962 66.8448C123.098 66.8933 123.235 66.9176 123.371 66.9176C123.55 66.9176 123.7 66.8918 123.821 66.8403C123.942 66.7857 124.033 66.7084 124.094 66.6084C124.158 66.5083 124.19 66.3916 124.19 66.2582Z" fill="#323C47"/>
<path opacity="0.696388" d="M47.3827 42.4832V47.7139H46.7503V43.3085L45.657 43.7944V43.1978L47.2862 42.4832H47.3827ZM50.7885 42.4832V47.7139H50.1561V43.3085L49.0629 43.7944V43.1978L50.6921 42.4832H50.7885ZM52.3865 47.3637C52.3865 47.2518 52.4211 47.1577 52.4901 47.0815C52.5616 47.0029 52.664 46.9636 52.7974 46.9636C52.9308 46.9636 53.032 47.0029 53.1011 47.0815C53.1725 47.1577 53.2083 47.2518 53.2083 47.3637C53.2083 47.4733 53.1725 47.5662 53.1011 47.6424C53.032 47.7186 52.9308 47.7567 52.7974 47.7567C52.664 47.7567 52.5616 47.7186 52.4901 47.6424C52.4211 47.5662 52.3865 47.4733 52.3865 47.3637ZM52.3829 44.2089C52.3829 44.097 52.4175 44.0029 52.4866 43.9266C52.558 43.848 52.6604 43.8087 52.7938 43.8087C52.9272 43.8087 53.0284 43.848 53.0975 43.9266C53.169 44.0029 53.2047 44.097 53.2047 44.2089C53.2047 44.3185 53.169 44.4114 53.0975 44.4876C53.0284 44.5638 52.9272 44.6019 52.7938 44.6019C52.6604 44.6019 52.558 44.5638 52.4866 44.4876C52.4175 44.4114 52.3829 44.3185 52.3829 44.2089ZM56.5891 44.6984V45.4916C56.5891 45.9179 56.5558 46.2776 56.4891 46.5706C56.4247 46.8635 56.3319 47.0993 56.2104 47.278C56.0889 47.4566 55.9424 47.5864 55.7709 47.6674C55.6018 47.746 55.4112 47.7853 55.1993 47.7853C55.0325 47.7853 54.8765 47.7603 54.7312 47.7103C54.5883 47.6603 54.4597 47.5805 54.3453 47.4709C54.231 47.359 54.1334 47.2137 54.0524 47.035C53.9714 46.8564 53.9095 46.6396 53.8666 46.3848C53.8237 46.1299 53.8023 45.8322 53.8023 45.4916V44.6984C53.8023 44.272 53.8356 43.9147 53.9023 43.6265C53.969 43.3383 54.0631 43.1073 54.1846 42.9334C54.3084 42.7571 54.4549 42.6309 54.624 42.5547C54.7955 42.4784 54.9861 42.4403 55.1957 42.4403C55.3648 42.4403 55.5208 42.4653 55.6637 42.5154C55.809 42.563 55.9376 42.6404 56.0496 42.7476C56.1639 42.8524 56.2616 42.9929 56.3426 43.1692C56.4236 43.3431 56.4843 43.5563 56.5248 43.8087C56.5677 44.0612 56.5891 44.3578 56.5891 44.6984ZM55.9603 45.5987V44.5876C55.9603 44.3542 55.9496 44.1494 55.9281 43.9731C55.9067 43.7944 55.8757 43.642 55.8352 43.5158C55.7947 43.3895 55.7423 43.2871 55.678 43.2085C55.6161 43.1299 55.5446 43.0727 55.4636 43.037C55.3827 42.9989 55.2933 42.9798 55.1957 42.9798C55.0742 42.9798 54.9658 43.0096 54.8706 43.0692C54.7777 43.1263 54.6979 43.218 54.6312 43.3443C54.5669 43.4705 54.518 43.6361 54.4847 43.8409C54.4513 44.0457 54.4347 44.2946 54.4347 44.5876V45.5987C54.4347 45.8322 54.4454 46.0382 54.4668 46.2168C54.4906 46.3955 54.5228 46.5503 54.5633 46.6813C54.6062 46.8099 54.6586 46.9159 54.7205 46.9993C54.7824 47.0827 54.8539 47.1446 54.9349 47.1851C55.0159 47.2232 55.104 47.2423 55.1993 47.2423C55.3255 47.2423 55.4351 47.2113 55.528 47.1494C55.6232 47.0874 55.703 46.991 55.7673 46.86C55.8317 46.7266 55.8793 46.5563 55.9103 46.349C55.9436 46.1394 55.9603 45.8893 55.9603 45.5987ZM59.9949 44.6984V45.4916C59.9949 45.9179 59.9616 46.2776 59.8949 46.5706C59.8306 46.8635 59.7377 47.0993 59.6162 47.278C59.4947 47.4566 59.3482 47.5864 59.1768 47.6674C59.0076 47.746 58.8171 47.7853 58.6051 47.7853C58.4384 47.7853 58.2823 47.7603 58.1371 47.7103C57.9941 47.6603 57.8655 47.5805 57.7512 47.4709C57.6369 47.359 57.5392 47.2137 57.4582 47.035C57.3772 46.8564 57.3153 46.6396 57.2724 46.3848C57.2295 46.1299 57.2081 45.8322 57.2081 45.4916V44.6984C57.2081 44.272 57.2415 43.9147 57.3082 43.6265C57.3748 43.3383 57.4689 43.1073 57.5904 42.9334C57.7143 42.7571 57.8608 42.6309 58.0299 42.5547C58.2014 42.4784 58.3919 42.4403 58.6015 42.4403C58.7706 42.4403 58.9267 42.4653 59.0696 42.5154C59.2149 42.563 59.3435 42.6404 59.4554 42.7476C59.5698 42.8524 59.6674 42.9929 59.7484 43.1692C59.8294 43.3431 59.8901 43.5563 59.9306 43.8087C59.9735 44.0612 59.9949 44.3578 59.9949 44.6984ZM59.3661 45.5987V44.5876C59.3661 44.3542 59.3554 44.1494 59.334 43.9731C59.3125 43.7944 59.2816 43.642 59.2411 43.5158C59.2006 43.3895 59.1482 43.2871 59.0839 43.2085C59.0219 43.1299 58.9505 43.0727 58.8695 43.037C58.7885 42.9989 58.6992 42.9798 58.6015 42.9798C58.48 42.9798 58.3717 43.0096 58.2764 43.0692C58.1835 43.1263 58.1037 43.218 58.037 43.3443C57.9727 43.4705 57.9239 43.6361 57.8905 43.8409C57.8572 44.0457 57.8405 44.2946 57.8405 44.5876V45.5987C57.8405 45.8322 57.8512 46.0382 57.8727 46.2168C57.8965 46.3955 57.9286 46.5503 57.9691 46.6813C58.012 46.8099 58.0644 46.9159 58.1263 46.9993C58.1883 47.0827 58.2597 47.1446 58.3407 47.1851C58.4217 47.2232 58.5098 47.2423 58.6051 47.2423C58.7313 47.2423 58.8409 47.2113 58.9338 47.1494C59.0291 47.0874 59.1089 46.991 59.1732 46.86C59.2375 46.7266 59.2851 46.5563 59.3161 46.349C59.3494 46.1394 59.3661 45.8893 59.3661 45.5987ZM63.7154 43.4037L62.4227 47.7139H61.8121L63.3354 42.9847H63.7187L63.7154 43.4037ZM64.7613 47.7139L63.4686 43.4037L63.4621 42.9847H63.8486L65.3719 47.7139H64.7613ZM64.7613 45.9632V46.4764H62.4812V45.9632H64.7613ZM66.0001 42.9847H66.5782L67.8157 46.8401L69.05 42.9847H69.6281L68.0398 47.7139H67.5851L66.0001 42.9847ZM65.8117 42.9847H66.3184L66.4061 45.869V47.7139H65.8117V42.9847ZM69.3066 42.9847H69.8133V47.7139H69.2189V45.869L69.3066 42.9847ZM73.2362 45.2307V45.7738H71.7607V45.2307H73.2362ZM76.9646 42.4832V47.7139H76.3322V43.3085L75.2389 43.7944V43.1978L76.8681 42.4832H76.9646ZM80.3704 42.4832V47.7139H79.738V43.3085L78.6447 43.7944V43.1978L80.2739 42.4832H80.3704ZM81.9684 47.3637C81.9684 47.2518 82.0029 47.1577 82.072 47.0815C82.1434 47.0029 82.2459 46.9636 82.3792 46.9636C82.5126 46.9636 82.6139 47.0029 82.6829 47.0815C82.7544 47.1577 82.7901 47.2518 82.7901 47.3637C82.7901 47.4733 82.7544 47.5662 82.6829 47.6424C82.6139 47.7186 82.5126 47.7567 82.3792 47.7567C82.2459 47.7567 82.1434 47.7186 82.072 47.6424C82.0029 47.5662 81.9684 47.4733 81.9684 47.3637ZM81.9648 44.2089C81.9648 44.097 81.9993 44.0029 82.0684 43.9266C82.1399 43.848 82.2423 43.8087 82.3757 43.8087C82.5091 43.8087 82.6103 43.848 82.6794 43.9266C82.7508 44.0029 82.7865 44.097 82.7865 44.2089C82.7865 44.3185 82.7508 44.4114 82.6794 44.4876C82.6103 44.5638 82.5091 44.6019 82.3757 44.6019C82.2423 44.6019 82.1399 44.5638 82.0684 44.4876C81.9993 44.4114 81.9648 44.3185 81.9648 44.2089ZM84.2023 44.7877H84.6096C84.7906 44.7877 84.9407 44.7496 85.0598 44.6734C85.1789 44.5948 85.267 44.4888 85.3242 44.3554C85.3837 44.2196 85.4135 44.0672 85.4135 43.8981C85.4135 43.698 85.3873 43.5301 85.3349 43.3943C85.2825 43.2585 85.2039 43.1561 85.0991 43.087C84.9967 43.018 84.8669 42.9834 84.7096 42.9834C84.562 42.9834 84.4333 43.0203 84.3238 43.0942C84.2142 43.1656 84.1297 43.268 84.0701 43.4014C84.0106 43.5348 83.9808 43.692 83.9808 43.8731H83.352C83.352 43.6087 83.4067 43.3681 83.5163 43.1513C83.6283 42.9346 83.7855 42.7619 83.9879 42.6333C84.1928 42.5047 84.4333 42.4403 84.7096 42.4403C84.974 42.4403 85.2063 42.4963 85.4064 42.6083C85.6064 42.7178 85.7624 42.8822 85.8744 43.1013C85.9887 43.3181 86.0459 43.5884 86.0459 43.9124C86.0459 44.0434 86.0209 44.1839 85.9709 44.334C85.9232 44.4816 85.8458 44.6198 85.7386 44.7484C85.6338 44.877 85.4957 44.983 85.3242 45.0664C85.1551 45.1474 84.9478 45.1879 84.7025 45.1879H84.2023V44.7877ZM84.2023 45.3308V44.9342H84.7025C84.9931 44.9342 85.2301 44.9735 85.4135 45.0521C85.5969 45.1307 85.7386 45.2355 85.8387 45.3665C85.9387 45.4975 86.0078 45.6416 86.0459 45.7988C86.0864 45.9536 86.1066 46.1085 86.1066 46.2633C86.1066 46.5062 86.0709 46.7218 85.9994 46.91C85.9304 47.0981 85.8315 47.2577 85.7029 47.3887C85.5767 47.5197 85.429 47.6186 85.2599 47.6853C85.0908 47.752 84.9062 47.7853 84.7061 47.7853C84.5108 47.7853 84.3297 47.7532 84.163 47.6889C83.9963 47.6245 83.8498 47.5317 83.7235 47.4102C83.5973 47.2863 83.4985 47.1351 83.427 46.9564C83.3579 46.7754 83.3234 46.5694 83.3234 46.3383H83.9558C83.9558 46.5193 83.9856 46.6777 84.0451 46.8135C84.1046 46.9493 84.1904 47.0553 84.3023 47.1315C84.4143 47.2053 84.5489 47.2423 84.7061 47.2423C84.8633 47.2423 84.9991 47.2077 85.1134 47.1386C85.2277 47.0672 85.3158 46.96 85.3778 46.8171C85.4421 46.6742 85.4742 46.4943 85.4742 46.2776C85.4742 46.0608 85.4385 45.8834 85.3671 45.7452C85.298 45.6047 85.1991 45.5011 85.0705 45.4344C84.9419 45.3653 84.7883 45.3308 84.6096 45.3308H84.2023ZM89.5768 44.6984V45.4916C89.5768 45.9179 89.5434 46.2776 89.4767 46.5706C89.4124 46.8635 89.3195 47.0993 89.1981 47.278C89.0766 47.4566 88.9301 47.5864 88.7586 47.6674C88.5895 47.746 88.3989 47.7853 88.1869 47.7853C88.0202 47.7853 87.8642 47.7603 87.7189 47.7103C87.576 47.6603 87.4474 47.5805 87.333 47.4709C87.2187 47.359 87.121 47.2137 87.0401 47.035C86.9591 46.8564 86.8971 46.6396 86.8543 46.3848C86.8114 46.1299 86.79 45.8322 86.79 45.4916V44.6984C86.79 44.272 86.8233 43.9147 86.89 43.6265C86.9567 43.3383 87.0508 43.1073 87.1723 42.9334C87.2961 42.7571 87.4426 42.6309 87.6117 42.5547C87.7832 42.4784 87.9738 42.4403 88.1834 42.4403C88.3525 42.4403 88.5085 42.4653 88.6514 42.5154C88.7967 42.563 88.9253 42.6404 89.0373 42.7476C89.1516 42.8524 89.2493 42.9929 89.3303 43.1692C89.4112 43.3431 89.472 43.5563 89.5125 43.8087C89.5553 44.0612 89.5768 44.3578 89.5768 44.6984ZM88.948 45.5987V44.5876C88.948 44.3542 88.9372 44.1494 88.9158 43.9731C88.8944 43.7944 88.8634 43.642 88.8229 43.5158C88.7824 43.3895 88.73 43.2871 88.6657 43.2085C88.6038 43.1299 88.5323 43.0727 88.4513 43.037C88.3704 42.9989 88.281 42.9798 88.1834 42.9798C88.0619 42.9798 87.9535 43.0096 87.8582 43.0692C87.7653 43.1263 87.6856 43.218 87.6189 43.3443C87.5545 43.4705 87.5057 43.6361 87.4724 43.8409C87.439 44.0457 87.4224 44.2946 87.4224 44.5876V45.5987C87.4224 45.8322 87.4331 46.0382 87.4545 46.2168C87.4783 46.3955 87.5105 46.5503 87.551 46.6813C87.5939 46.8099 87.6463 46.9159 87.7082 46.9993C87.7701 47.0827 87.8416 47.1446 87.9226 47.1851C88.0035 47.2232 88.0917 47.2423 88.1869 47.2423C88.3132 47.2423 88.4228 47.2113 88.5156 47.1494C88.6109 47.0874 88.6907 46.991 88.755 46.86C88.8193 46.7266 88.867 46.5563 88.8979 46.349C88.9313 46.1394 88.948 45.8893 88.948 45.5987ZM93.2973 43.4037L92.0046 47.7139H91.3939L92.9173 42.9847H93.3005L93.2973 43.4037ZM94.3432 47.7139L93.0504 43.4037L93.0439 42.9847H93.4305L94.9538 47.7139H94.3432ZM94.3432 45.9632V46.4764H92.063V45.9632H94.3432ZM95.5819 42.9847H96.1601L97.3976 46.8401L98.6318 42.9847H99.21L97.6217 47.7139H97.1669L95.5819 42.9847ZM95.3935 42.9847H95.9002L95.9879 45.869V47.7139H95.3935V42.9847ZM98.8884 42.9847H99.3951V47.7139H98.8007V45.869L98.8884 42.9847Z" fill="#868686"/>
</g>
<defs>
<filter id="filter0_d_1_109" x="0.10376" y="0.0708008" width="244.948" height="156.476" filterUnits="userSpaceOnUse" color-interpolation-filters="sRGB">
<feFlood flood-opacity="0" result="BackgroundImageFix"/>
<feColorMatrix in="SourceAlpha" type="matrix" values="0 0 0 0 0 0 0 0 0 0 0 0 0 0 0 0 0 0 127 0" result="hardAlpha"/>
<feOffset dy="4"/>
<feGaussianBlur stdDeviation="17.5"/>
<feComposite in2="hardAlpha" operator="out"/>
<feColorMatrix type="matrix" values="0 0 0 0 0 0 0 0 0 0 0 0 0 0 0 0 0 0 0.25 0"/>
<feBlend mode="normal" in2="BackgroundImageFix" result="effect1_dropShadow_1_109"/>
<feBlend mode="normal" in="SourceGraphic" in2="effect1_dropShadow_1_109" result="shape"/>
</filter>
<clipPath id="clip0_1_109">
<rect width="174.948" height="86.476" fill="white" transform="translate(35.1038 31.0708)"/>
</clipPath>
<clipPath id="clip1_1_109">
<rect width="37.2512" height="16.63" fill="white" transform="translate(45.0818 90.9387)"/>
</clipPath>
<clipPath id="clip2_1_109">
<rect width="16.63" height="16.63" fill="white" transform="translate(65.7029 90.9387)"/>
</clipPath>
<clipPath id="clip3_1_109">
<rect width="15.9648" height="15.9648" fill="white" transform="translate(45.0818 90.9387)"/>
</clipPath>
<clipPath id="clip4_1_109">
<rect width="6.652" height="6.652" fill="white" transform="translate(49.7382 95.7173)"/>
</clipPath>
</defs>
</svg>
