<svg width="443" height="264" viewBox="0 0 443 264" fill="none" xmlns="http://www.w3.org/2000/svg">
<g clip-path="url(#clip0_1_63)" filter="url(#filter0_d_1_63)">
<rect x="45" y="10" width="352.015" height="174" rx="8.03077" fill="white" stroke="#E9EFF4" stroke-width="1.33846"/>
<g clip-path="url(#clip1_1_63)">
<g clip-path="url(#clip2_1_63)">
<rect x="65.0769" y="130.461" width="32.1231" height="32.1231" rx="2.67692" fill="white" stroke="#4DA1FF" stroke-opacity="0.7" stroke-width="1.33846"/>
<path fill-rule="evenodd" clip-rule="evenodd" d="M75.376 145.989L85.2564 150.195L86.3766 140.811L75.376 145.989ZM85.4897 150.848C85.4509 150.848 85.4123 150.84 85.3761 150.825L74.6105 146.242C74.5125 146.2 74.4483 146.108 74.4461 146.005C74.4441 145.903 74.5044 145.809 74.6008 145.763L86.5871 140.122C86.6779 140.08 86.7865 140.087 86.8699 140.143C86.9532 140.199 86.9976 140.293 86.9862 140.389L85.7655 150.614C85.7555 150.697 85.7042 150.772 85.6272 150.813C85.5847 150.837 85.5372 150.848 85.4897 150.848Z" fill="#4DA1FF"/>
<path d="M75.376 145.989L75.2905 145.807L74.885 145.998L75.2973 146.173L75.376 145.989ZM85.2564 150.195L85.1778 150.38L85.4241 150.485L85.4558 150.219L85.2564 150.195ZM86.3766 140.811L86.5759 140.835L86.6189 140.475L86.2911 140.629L86.3766 140.811ZM85.3761 150.825L85.2975 151.01L85.2988 151.011L85.3761 150.825ZM74.6105 146.242L74.5318 146.426L74.5319 146.426L74.6105 146.242ZM74.4461 146.005L74.2454 146.009L74.2454 146.01L74.4461 146.005ZM74.6008 145.763L74.5153 145.582L74.5151 145.582L74.6008 145.763ZM86.5871 140.122L86.6726 140.304L86.6727 140.304L86.5871 140.122ZM86.8699 140.143L86.7582 140.31L86.7585 140.31L86.8699 140.143ZM86.9862 140.389L87.1856 140.413L87.1856 140.413L86.9862 140.389ZM85.7655 150.614L85.9649 150.638L85.9649 150.638L85.7655 150.614ZM85.6272 150.813L85.5319 150.637L85.5308 150.637L85.6272 150.813ZM75.2973 146.173L85.1778 150.38L85.3351 150.01L75.4546 145.804L75.2973 146.173ZM85.4558 150.219L86.5759 140.835L86.1772 140.787L85.0571 150.171L85.4558 150.219ZM86.2911 140.629L75.2905 145.807L75.4615 146.17L86.4621 140.993L86.2911 140.629ZM85.4897 150.648C85.4782 150.648 85.4658 150.645 85.4535 150.64L85.2988 151.011C85.3587 151.036 85.4236 151.049 85.4897 151.049V150.648ZM85.4548 150.641L74.6892 146.057L74.5319 146.426L85.2975 151.01L85.4548 150.641ZM74.6892 146.057C74.6599 146.045 74.6472 146.02 74.6468 146.001L74.2454 146.01C74.2494 146.195 74.365 146.355 74.5318 146.426L74.6892 146.057ZM74.6468 146.002C74.6465 145.982 74.6578 145.958 74.6864 145.945L74.5151 145.582C74.351 145.659 74.2418 145.824 74.2454 146.009L74.6468 146.002ZM74.6863 145.945L86.6726 140.304L86.5016 139.941L74.5153 145.582L74.6863 145.945ZM86.6727 140.304C86.7005 140.291 86.7341 140.294 86.7582 140.31L86.9815 139.976C86.839 139.881 86.6554 139.868 86.5015 139.941L86.6727 140.304ZM86.7585 140.31C86.7812 140.325 86.789 140.347 86.7869 140.365L87.1856 140.413C87.2062 140.239 87.1251 140.072 86.9812 139.976L86.7585 140.31ZM86.7869 140.365L85.5662 150.59L85.9649 150.638L87.1856 140.413L86.7869 140.365ZM85.5662 150.59C85.5642 150.606 85.5535 150.625 85.5319 150.637L85.7225 150.99C85.8549 150.919 85.9469 150.788 85.9649 150.638L85.5662 150.59ZM85.5308 150.637C85.5189 150.644 85.5047 150.648 85.4897 150.648V151.049C85.5698 151.049 85.6506 151.03 85.7236 150.99L85.5308 150.637Z" fill="#4DA1FF"/>
<path fill-rule="evenodd" clip-rule="evenodd" d="M79.6683 152.499C79.643 152.499 79.6175 152.496 79.5922 152.489C79.4719 152.456 79.3897 152.351 79.3906 152.233L79.4253 148.004C79.4258 147.94 79.4503 147.88 79.4939 147.832L86.4969 140.186C86.598 140.076 86.7736 140.065 86.8891 140.161C87.0046 140.257 87.0166 140.424 86.9158 140.534L79.9802 148.106L79.9538 151.282L81.4842 148.895C81.5645 148.77 81.7353 148.731 81.8661 148.807C81.9969 148.883 82.0383 149.046 81.9583 149.17L79.9055 152.373C79.8541 152.453 79.7633 152.499 79.6683 152.499Z" fill="#4DA1FF"/>
<path d="M79.6683 152.499C79.643 152.499 79.6175 152.496 79.5922 152.489C79.4719 152.456 79.3897 152.351 79.3906 152.233L79.4253 148.004C79.4258 147.94 79.4503 147.88 79.4939 147.832L86.4969 140.186C86.598 140.076 86.7736 140.065 86.8891 140.161C87.0046 140.257 87.0166 140.424 86.9158 140.534L79.9802 148.106L79.9538 151.282L81.4842 148.895C81.5645 148.77 81.7353 148.731 81.8661 148.807C81.9969 148.883 82.0383 149.046 81.9583 149.17L79.9055 152.373C79.8541 152.453 79.7633 152.499 79.6683 152.499" stroke="#4DA1FF" stroke-width="0.401538"/>
</g>
<g clip-path="url(#clip3_1_63)">
<rect x="146.723" y="130.461" width="33.4615" height="33.4615" rx="2.67692" fill="#FFD012" fill-opacity="0.1"/>
<path d="M161.621 149.907V150.831H157.904V149.907H161.621ZM158.098 142.267V150.831H157.016V142.267H158.098ZM161.121 145.949V146.872H157.904V145.949H161.121ZM161.562 142.267V143.196H157.904V142.267H161.562ZM166.436 148.666C166.436 148.466 166.413 148.29 166.366 148.137C166.319 147.98 166.236 147.839 166.119 147.713C166.001 147.588 165.836 147.468 165.624 147.354C165.413 147.241 165.144 147.125 164.819 147.007C164.466 146.882 164.146 146.743 163.86 146.59C163.574 146.433 163.329 146.254 163.125 146.054C162.925 145.854 162.77 145.625 162.66 145.366C162.55 145.107 162.495 144.811 162.495 144.478C162.495 144.145 162.552 143.837 162.666 143.555C162.784 143.272 162.948 143.027 163.16 142.819C163.376 142.608 163.634 142.443 163.936 142.325C164.238 142.208 164.576 142.149 164.948 142.149C165.505 142.149 165.973 142.272 166.354 142.519C166.738 142.763 167.028 143.082 167.224 143.478C167.42 143.87 167.518 144.29 167.518 144.737H166.436C166.436 144.415 166.383 144.131 166.277 143.884C166.175 143.633 166.015 143.437 165.795 143.296C165.579 143.151 165.297 143.078 164.948 143.078C164.634 143.078 164.376 143.139 164.172 143.261C163.972 143.382 163.823 143.547 163.725 143.755C163.631 143.962 163.583 144.2 163.583 144.466C163.583 144.647 163.615 144.811 163.678 144.96C163.74 145.106 163.836 145.241 163.966 145.366C164.099 145.492 164.264 145.607 164.46 145.713C164.66 145.819 164.895 145.921 165.166 146.019C165.585 146.156 165.944 146.309 166.242 146.478C166.54 146.647 166.783 146.837 166.971 147.048C167.16 147.256 167.297 147.494 167.383 147.76C167.473 148.023 167.518 148.321 167.518 148.654C167.518 149.003 167.46 149.319 167.342 149.601C167.228 149.884 167.062 150.125 166.842 150.325C166.622 150.525 166.358 150.68 166.048 150.789C165.738 150.895 165.389 150.948 165.001 150.948C164.664 150.948 164.332 150.893 164.007 150.784C163.685 150.674 163.393 150.509 163.131 150.289C162.868 150.07 162.658 149.799 162.501 149.478C162.344 149.152 162.266 148.776 162.266 148.348H163.348C163.348 148.642 163.391 148.895 163.478 149.107C163.564 149.315 163.683 149.488 163.836 149.625C163.989 149.762 164.164 149.864 164.36 149.931C164.56 149.993 164.774 150.025 165.001 150.025C165.315 150.025 165.577 149.97 165.789 149.86C166.005 149.75 166.166 149.593 166.271 149.389C166.381 149.186 166.436 148.944 166.436 148.666Z" fill="#FFD012"/>
</g>
<g clip-path="url(#clip4_1_63)">
<rect x="106.569" y="130.461" width="33.4615" height="33.4615" rx="2.67692" fill="#4DA1FF" fill-opacity="0.1"/>
<path d="M116.961 143.025L114.62 150.831H113.514L116.273 142.267H116.967L116.961 143.025ZM118.855 150.831L116.514 143.025L116.502 142.267H117.202L119.961 150.831H118.855ZM118.855 147.66V148.59H114.726V147.66H118.855ZM121.164 142.267H122.211L124.452 149.248L126.688 142.267H127.735L124.858 150.831H124.035L121.164 142.267ZM120.823 142.267H121.741L121.9 147.49V150.831H120.823V142.267ZM127.152 142.267H128.07V150.831H126.993V147.49L127.152 142.267Z" fill="#4DA1FF"/>
</g>
</g>
<path d="M69.5053 82.2049L71.6372 72.9088H72.8358L72.2045 76.5229L69.8896 86.2307H68.691L69.5053 82.2049ZM67.4009 72.9088L69.0661 82.0219L69.5602 86.2307H68.3799L65.7265 72.9088H67.4009ZM75.5532 82.0127L77.1819 72.9088H78.8563L76.212 86.2307H75.0317L75.5532 82.0127ZM73.0279 72.9088L75.0958 82.2049L75.8918 86.2307H74.6932L72.479 76.5229L71.8476 72.9088H73.0279ZM83.4314 86.4137C82.8398 86.4137 82.306 86.3253 81.8303 86.1484C81.3545 85.9715 80.9488 85.7031 80.6133 85.3432C80.2779 84.9772 80.0217 84.5167 79.8448 83.9616C79.6679 83.4065 79.5794 82.7508 79.5794 81.9944V80.8782C79.5794 80.0059 79.6801 79.2678 79.8814 78.664C80.0888 78.0601 80.3663 77.5752 80.714 77.2092C81.0617 76.8371 81.4551 76.5687 81.8943 76.404C82.3335 76.2332 82.7849 76.1478 83.2484 76.1478C83.8706 76.1478 84.4013 76.2485 84.8405 76.4497C85.2797 76.651 85.6365 76.9499 85.911 77.3464C86.1855 77.7429 86.3868 78.2309 86.5149 78.8104C86.6491 79.3898 86.7162 80.0578 86.7162 80.8141V81.7565H80.531V80.3749H85.0967V80.1462C85.0723 79.6338 85.0021 79.1824 84.8862 78.7921C84.7764 78.4017 84.5934 78.0967 84.3373 77.8771C84.0811 77.6514 83.7181 77.5386 83.2484 77.5386C82.9496 77.5386 82.672 77.5904 82.4158 77.6941C82.1657 77.7917 81.9492 77.9655 81.7662 78.2156C81.5893 78.4596 81.449 78.7982 81.3453 79.2312C81.2477 79.6643 81.1989 80.2133 81.1989 80.8782V81.9944C81.1989 82.5251 81.2477 82.9826 81.3453 83.3669C81.449 83.7451 81.5985 84.0592 81.7937 84.3093C81.9949 84.5533 82.2389 84.7363 82.5256 84.8583C82.8184 84.9742 83.1508 85.0321 83.5229 85.0321C84.0658 85.0321 84.5141 84.9284 84.8679 84.721C85.2217 84.5075 85.5298 84.2361 85.792 83.9067L86.643 84.9223C86.4661 85.1724 86.2343 85.4133 85.9476 85.6451C85.667 85.8708 85.3193 86.0569 84.9045 86.2033C84.4958 86.3436 84.0048 86.4137 83.4314 86.4137ZM88.2903 72.1769H89.9097V84.3093L89.7725 86.2307H88.2903V72.1769ZM95.4636 80.8324V81.7565C95.4636 82.5373 95.3904 83.2205 95.244 83.8061C95.1037 84.3855 94.8932 84.8705 94.6127 85.2609C94.3321 85.6451 93.9905 85.9349 93.5879 86.1301C93.1853 86.3192 92.7248 86.4137 92.2063 86.4137C91.6939 86.4137 91.2517 86.31 90.8796 86.1026C90.5075 85.8952 90.1964 85.5963 89.9463 85.206C89.6962 84.8156 89.498 84.3428 89.3516 83.7878C89.2113 83.2327 89.1137 82.6075 89.0588 81.9121V80.6769C89.1137 79.9754 89.2113 79.3471 89.3516 78.7921C89.4919 78.2309 89.6871 77.7551 89.9372 77.3647C90.1873 76.9682 90.4984 76.6663 90.8705 76.4589C91.2425 76.2515 91.6848 76.1478 92.1971 76.1478C92.7217 76.1478 93.1853 76.2393 93.5879 76.4223C93.9966 76.6053 94.3382 76.8889 94.6127 77.2732C94.8932 77.6514 95.1037 78.1363 95.244 78.728C95.3904 79.3136 95.4636 80.0151 95.4636 80.8324ZM93.8441 81.7565V80.8324C93.8441 80.2834 93.8075 79.8046 93.7343 79.3959C93.6672 78.9872 93.5543 78.6487 93.3958 78.3803C93.2372 78.1119 93.0237 77.9106 92.7553 77.7764C92.493 77.6423 92.1666 77.5752 91.7763 77.5752C91.4469 77.5752 91.1571 77.6423 90.907 77.7764C90.6631 77.9106 90.4526 78.0936 90.2757 78.3254C90.0988 78.5511 89.9524 78.8104 89.8365 79.1031C89.7206 79.3898 89.6352 79.6887 89.5804 79.9998V82.5983C89.6596 82.9948 89.7847 83.376 89.9555 83.742C90.1324 84.1019 90.3703 84.3977 90.6692 84.6295C90.968 84.8613 91.3401 84.9772 91.7854 84.9772C92.1575 84.9772 92.4716 84.9132 92.7278 84.7851C92.9901 84.657 93.2036 84.4618 93.3683 84.1995C93.533 83.9311 93.6519 83.5956 93.7251 83.193C93.8044 82.7843 93.8441 82.3055 93.8441 81.7565ZM101.951 83.6963C101.951 83.4462 101.89 83.2266 101.768 83.0375C101.646 82.8484 101.445 82.6654 101.164 82.4885C100.89 82.3116 100.518 82.1225 100.048 81.9212C99.5904 81.7321 99.1787 81.5461 98.8127 81.3631C98.4528 81.174 98.1478 80.9697 97.8977 80.7501C97.6476 80.5305 97.4555 80.2773 97.3213 79.9907C97.1932 79.6979 97.1292 79.3532 97.1292 78.9567C97.1292 78.5603 97.2024 78.1943 97.3488 77.8588C97.5012 77.5172 97.7147 77.2183 97.9892 76.9621C98.2637 76.7059 98.5931 76.5077 98.9774 76.3674C99.3617 76.221 99.7917 76.1478 100.267 76.1478C100.945 76.1478 101.521 76.279 101.997 76.5412C102.473 76.8035 102.835 77.1634 103.086 77.6209C103.342 78.0723 103.47 78.5816 103.47 79.1489H101.86C101.86 78.8744 101.799 78.6152 101.677 78.3712C101.555 78.1272 101.375 77.9289 101.137 77.7764C100.899 77.6179 100.609 77.5386 100.267 77.5386C99.9076 77.5386 99.6148 77.6026 99.3891 77.7307C99.1634 77.8588 98.9987 78.0265 98.895 78.2339C98.7974 78.4352 98.7486 78.6579 98.7486 78.9019C98.7486 79.0848 98.773 79.2434 98.8218 79.3776C98.8767 79.5057 98.9682 79.6277 99.0963 79.7436C99.2244 79.8534 99.3983 79.9693 99.6179 80.0913C99.8436 80.2072 100.13 80.3414 100.478 80.4939C101.149 80.7562 101.713 81.0215 102.171 81.2899C102.628 81.5583 102.976 81.8724 103.214 82.2323C103.452 82.5922 103.571 83.0375 103.571 83.5682C103.571 84.0013 103.491 84.3947 103.333 84.7485C103.18 85.0962 102.961 85.395 102.674 85.6451C102.387 85.8952 102.043 86.0874 101.64 86.2216C101.243 86.3497 100.798 86.4137 100.304 86.4137C99.5599 86.4137 98.9286 86.2673 98.4101 85.9745C97.8977 85.6756 97.5073 85.2883 97.239 84.8125C96.9767 84.3306 96.8455 83.8152 96.8455 83.2662H98.465C98.4833 83.7298 98.587 84.0897 98.7761 84.3459C98.9713 84.6021 99.2061 84.779 99.4806 84.8766C99.7551 84.9742 100.03 85.023 100.304 85.023C100.664 85.023 100.966 84.9711 101.21 84.8674C101.454 84.7576 101.637 84.6021 101.759 84.4008C101.887 84.1995 101.951 83.9647 101.951 83.6963ZM107.048 76.3308V86.2307H105.437V76.3308H107.048ZM105.346 73.7049C105.346 73.4304 105.422 73.1986 105.575 73.0095C105.727 72.8204 105.956 72.7258 106.261 72.7258C106.566 72.7258 106.795 72.8204 106.947 73.0095C107.106 73.1986 107.185 73.4304 107.185 73.7049C107.185 73.9671 107.106 74.1928 106.947 74.3819C106.795 74.5649 106.566 74.6564 106.261 74.6564C105.956 74.6564 105.727 74.5649 105.575 74.3819C105.422 74.1928 105.346 73.9671 105.346 73.7049ZM112.84 76.3308V77.6301H108.219V76.3308H112.84ZM109.729 73.9244H111.348V83.7786C111.348 84.1141 111.388 84.3672 111.467 84.538C111.553 84.7088 111.66 84.8217 111.788 84.8766C111.916 84.9315 112.053 84.9589 112.199 84.9589C112.309 84.9589 112.431 84.9467 112.565 84.9223C112.7 84.8918 112.791 84.8674 112.84 84.8491L112.831 86.2307C112.721 86.2734 112.574 86.3131 112.391 86.3497C112.208 86.3924 111.977 86.4137 111.696 86.4137C111.348 86.4137 111.025 86.3314 110.726 86.1667C110.427 86.002 110.186 85.7275 110.003 85.3432C109.82 84.9528 109.729 84.4282 109.729 83.7695V73.9244ZM117.927 86.4137C117.336 86.4137 116.802 86.3253 116.326 86.1484C115.85 85.9715 115.445 85.7031 115.109 85.3432C114.774 84.9772 114.518 84.5167 114.341 83.9616C114.164 83.4065 114.075 82.7508 114.075 81.9944V80.8782C114.075 80.0059 114.176 79.2678 114.377 78.664C114.585 78.0601 114.862 77.5752 115.21 77.2092C115.558 76.8371 115.951 76.5687 116.39 76.404C116.829 76.2332 117.281 76.1478 117.744 76.1478C118.367 76.1478 118.897 76.2485 119.336 76.4497C119.776 76.651 120.132 76.9499 120.407 77.3464C120.681 77.7429 120.883 78.2309 121.011 78.8104C121.145 79.3898 121.212 80.0578 121.212 80.8141V81.7565H115.027V80.3749H119.593V80.1462C119.568 79.6338 119.498 79.1824 119.382 78.7921C119.272 78.4017 119.089 78.0967 118.833 77.8771C118.577 77.6514 118.214 77.5386 117.744 77.5386C117.445 77.5386 117.168 77.5904 116.912 77.6941C116.662 77.7917 116.445 77.9655 116.262 78.2156C116.085 78.4596 115.945 78.7982 115.841 79.2312C115.744 79.6643 115.695 80.2133 115.695 80.8782V81.9944C115.695 82.5251 115.744 82.9826 115.841 83.3669C115.945 83.7451 116.094 84.0592 116.29 84.3093C116.491 84.5533 116.735 84.7363 117.022 84.8583C117.314 84.9742 117.647 85.0321 118.019 85.0321C118.562 85.0321 119.01 84.9284 119.364 84.721C119.718 84.5075 120.026 84.2361 120.288 83.9067L121.139 84.9223C120.962 85.1724 120.73 85.4133 120.444 85.6451C120.163 85.8708 119.815 86.0569 119.4 86.2033C118.992 86.3436 118.501 86.4137 117.927 86.4137ZM129.036 86.2307H127.416V75.2877C127.416 74.5741 127.529 73.9732 127.755 73.4853C127.987 72.9912 128.313 72.6191 128.734 72.369C129.161 72.1128 129.667 71.9847 130.253 71.9847C130.417 71.9847 130.582 71.9969 130.747 72.0213C130.918 72.0457 131.079 72.0823 131.232 72.1311L131.158 73.5127C131.061 73.4822 130.942 73.4609 130.802 73.4487C130.667 73.4365 130.539 73.4304 130.417 73.4304C130.125 73.4304 129.874 73.5036 129.667 73.65C129.46 73.7903 129.301 73.9976 129.191 74.2721C129.088 74.5466 129.036 74.8852 129.036 75.2877V86.2307ZM130.719 76.3308V77.6301H126.126V76.3308H130.719ZM131.909 81.7565V80.8141C131.909 80.0456 132.007 79.3715 132.202 78.7921C132.397 78.2065 132.669 77.7185 133.016 77.3281C133.364 76.9377 133.77 76.6449 134.233 76.4497C134.697 76.2485 135.194 76.1478 135.724 76.1478C136.267 76.1478 136.771 76.2485 137.234 76.4497C137.698 76.6449 138.103 76.9377 138.451 77.3281C138.805 77.7185 139.079 78.2065 139.275 78.7921C139.47 79.3715 139.567 80.0456 139.567 80.8141V81.7565C139.567 82.5251 139.47 83.2022 139.275 83.7878C139.079 84.3672 138.808 84.8522 138.46 85.2426C138.113 85.6329 137.707 85.9257 137.243 86.1209C136.78 86.3161 136.28 86.4137 135.743 86.4137C135.206 86.4137 134.706 86.3161 134.242 86.1209C133.779 85.9257 133.37 85.6329 133.016 85.2426C132.669 84.8522 132.397 84.3672 132.202 83.7878C132.007 83.2022 131.909 82.5251 131.909 81.7565ZM133.529 80.8141V81.7565C133.529 82.2994 133.583 82.7752 133.693 83.1839C133.803 83.5926 133.959 83.9342 134.16 84.2086C134.361 84.4831 134.596 84.6905 134.864 84.8308C135.133 84.965 135.426 85.0321 135.743 85.0321C136.109 85.0321 136.429 84.965 136.703 84.8308C136.984 84.6905 137.216 84.4831 137.399 84.2086C137.582 83.9342 137.719 83.5926 137.811 83.1839C137.902 82.7752 137.948 82.2994 137.948 81.7565V80.8141C137.948 80.2712 137.893 79.7985 137.783 79.3959C137.673 78.9872 137.518 78.6457 137.317 78.3712C137.115 78.0906 136.877 77.8832 136.603 77.749C136.334 77.6087 136.042 77.5386 135.724 77.5386C135.413 77.5386 135.124 77.6087 134.855 77.749C134.587 77.8832 134.352 78.0906 134.151 78.3712C133.956 78.6457 133.803 78.9872 133.693 79.3959C133.583 79.7985 133.529 80.2712 133.529 80.8141ZM142.889 77.8862V86.2307H141.27V76.3308H142.834L142.889 77.8862ZM145.35 76.2759L145.359 77.8496C145.225 77.8191 145.103 77.8008 144.993 77.7947C144.89 77.7825 144.768 77.7764 144.627 77.7764C144.322 77.7764 144.054 77.8374 143.822 77.9594C143.597 78.0814 143.401 78.2522 143.237 78.4718C143.072 78.6914 142.941 78.9537 142.843 79.2587C142.746 79.5576 142.679 79.887 142.642 80.2468L142.221 80.5213C142.221 79.9236 142.267 79.3624 142.358 78.8378C142.456 78.3132 142.605 77.8496 142.807 77.4471C143.008 77.0384 143.264 76.7212 143.575 76.4955C143.892 76.2637 144.271 76.1478 144.71 76.1478C144.807 76.1478 144.926 76.1631 145.067 76.1936C145.213 76.218 145.308 76.2454 145.35 76.2759ZM154.125 76.3308V77.6301H149.505V76.3308H154.125ZM151.015 73.9244H152.634V83.7786C152.634 84.1141 152.674 84.3672 152.753 84.538C152.838 84.7088 152.945 84.8217 153.073 84.8766C153.201 84.9315 153.339 84.9589 153.485 84.9589C153.595 84.9589 153.717 84.9467 153.851 84.9223C153.985 84.8918 154.077 84.8674 154.125 84.8491L154.116 86.2307C154.007 86.2734 153.86 86.3131 153.677 86.3497C153.494 86.3924 153.262 86.4137 152.982 86.4137C152.634 86.4137 152.311 86.3314 152.012 86.1667C151.713 86.002 151.472 85.7275 151.289 85.3432C151.106 84.9528 151.015 84.4282 151.015 83.7695V73.9244ZM157.292 72.1769V86.2307H155.672V72.1769H157.292ZM156.898 80.9056L156.239 80.8782C156.233 80.2011 156.31 79.5759 156.468 79.0025C156.633 78.423 156.865 77.9198 157.164 77.4928C157.469 77.0658 157.831 76.7364 158.252 76.5046C158.673 76.2668 159.14 76.1478 159.652 76.1478C160.055 76.1478 160.421 76.2149 160.75 76.3491C161.08 76.4772 161.36 76.6846 161.592 76.9713C161.824 77.258 162.001 77.6301 162.123 78.0875C162.251 78.5389 162.315 79.0909 162.315 79.7436V86.2307H160.695V79.7253C160.695 79.2068 160.637 78.7921 160.521 78.481C160.412 78.1638 160.241 77.935 160.009 77.7947C159.783 77.6484 159.497 77.5752 159.149 77.5752C158.832 77.5752 158.536 77.6636 158.261 77.8405C157.987 78.0174 157.746 78.2614 157.539 78.5725C157.337 78.8836 157.179 79.2404 157.063 79.643C156.953 80.0395 156.898 80.4603 156.898 80.9056ZM167.887 86.4137C167.296 86.4137 166.762 86.3253 166.286 86.1484C165.81 85.9715 165.405 85.7031 165.069 85.3432C164.734 84.9772 164.477 84.5167 164.301 83.9616C164.124 83.4065 164.035 82.7508 164.035 81.9944V80.8782C164.035 80.0059 164.136 79.2678 164.337 78.664C164.545 78.0601 164.822 77.5752 165.17 77.2092C165.517 76.8371 165.911 76.5687 166.35 76.404C166.789 76.2332 167.241 76.1478 167.704 76.1478C168.326 76.1478 168.857 76.2485 169.296 76.4497C169.735 76.651 170.092 76.9499 170.367 77.3464C170.641 77.7429 170.843 78.2309 170.971 78.8104C171.105 79.3898 171.172 80.0578 171.172 80.8141V81.7565H164.987V80.3749H169.552V80.1462C169.528 79.6338 169.458 79.1824 169.342 78.7921C169.232 78.4017 169.049 78.0967 168.793 77.8771C168.537 77.6514 168.174 77.5386 167.704 77.5386C167.405 77.5386 167.128 77.5904 166.872 77.6941C166.622 77.7917 166.405 77.9655 166.222 78.2156C166.045 78.4596 165.905 78.7982 165.801 79.2312C165.704 79.6643 165.655 80.2133 165.655 80.8782V81.9944C165.655 82.5251 165.704 82.9826 165.801 83.3669C165.905 83.7451 166.054 84.0592 166.249 84.3093C166.451 84.5533 166.695 84.7363 166.981 84.8583C167.274 84.9742 167.607 85.0321 167.979 85.0321C168.522 85.0321 168.97 84.9284 169.324 84.721C169.678 84.5075 169.986 84.2361 170.248 83.9067L171.099 84.9223C170.922 85.1724 170.69 85.4133 170.403 85.6451C170.123 85.8708 169.775 86.0569 169.36 86.2033C168.952 86.3436 168.461 86.4137 167.887 86.4137ZM181.127 81.0063H178.218V79.5698H181.127C181.676 79.5698 182.119 79.46 182.454 79.2404C182.796 79.0208 183.043 78.7158 183.195 78.3254C183.354 77.935 183.433 77.4898 183.433 76.9896C183.433 76.5321 183.354 76.1021 183.195 75.6995C183.043 75.2969 182.796 74.9736 182.454 74.7296C182.119 74.4795 181.676 74.3545 181.127 74.3545H178.566V86.2307H176.882V72.9088H181.127C181.988 72.9088 182.713 73.0827 183.305 73.4304C183.897 73.7781 184.345 74.2599 184.65 74.876C184.961 75.486 185.117 76.1844 185.117 76.9713C185.117 77.8252 184.961 78.5542 184.65 79.158C184.345 79.7619 183.897 80.2224 183.305 80.5396C182.713 80.8507 181.988 81.0063 181.127 81.0063ZM188.292 77.8862V86.2307H186.673V76.3308H188.237L188.292 77.8862ZM190.753 76.2759L190.762 77.8496C190.628 77.8191 190.506 77.8008 190.396 77.7947C190.293 77.7825 190.171 77.7764 190.03 77.7764C189.725 77.7764 189.457 77.8374 189.225 77.9594C189 78.0814 188.804 78.2522 188.64 78.4718C188.475 78.6914 188.344 78.9537 188.246 79.2587C188.149 79.5576 188.082 79.887 188.045 80.2468L187.624 80.5213C187.624 79.9236 187.67 79.3624 187.761 78.8378C187.859 78.3132 188.008 77.8496 188.21 77.4471C188.411 77.0384 188.667 76.7212 188.978 76.4955C189.295 76.2637 189.674 76.1478 190.113 76.1478C190.21 76.1478 190.329 76.1631 190.47 76.1936C190.616 76.218 190.711 76.2454 190.753 76.2759ZM191.476 81.7565V80.8141C191.476 80.0456 191.574 79.3715 191.769 78.7921C191.964 78.2065 192.236 77.7185 192.584 77.3281C192.931 76.9377 193.337 76.6449 193.8 76.4497C194.264 76.2485 194.761 76.1478 195.292 76.1478C195.835 76.1478 196.338 76.2485 196.802 76.4497C197.265 76.6449 197.671 76.9377 198.018 77.3281C198.372 77.7185 198.647 78.2065 198.842 78.7921C199.037 79.3715 199.135 80.0456 199.135 80.8141V81.7565C199.135 82.5251 199.037 83.2022 198.842 83.7878C198.647 84.3672 198.375 84.8522 198.028 85.2426C197.68 85.6329 197.274 85.9257 196.811 86.1209C196.347 86.3161 195.847 86.4137 195.31 86.4137C194.773 86.4137 194.273 86.3161 193.81 86.1209C193.346 85.9257 192.937 85.6329 192.584 85.2426C192.236 84.8522 191.964 84.3672 191.769 83.7878C191.574 83.2022 191.476 82.5251 191.476 81.7565ZM193.096 80.8141V81.7565C193.096 82.2994 193.151 82.7752 193.261 83.1839C193.37 83.5926 193.526 83.9342 193.727 84.2086C193.929 84.4831 194.163 84.6905 194.432 84.8308C194.7 84.965 194.993 85.0321 195.31 85.0321C195.676 85.0321 195.996 84.965 196.271 84.8308C196.551 84.6905 196.783 84.4831 196.966 84.2086C197.149 83.9342 197.286 83.5926 197.378 83.1839C197.469 82.7752 197.515 82.2994 197.515 81.7565V80.8141C197.515 80.2712 197.46 79.7985 197.351 79.3959C197.241 78.9872 197.085 78.6457 196.884 78.3712C196.683 78.0906 196.445 77.8832 196.17 77.749C195.902 77.6087 195.609 77.5386 195.292 77.5386C194.981 77.5386 194.691 77.6087 194.423 77.749C194.154 77.8832 193.919 78.0906 193.718 78.3712C193.523 78.6457 193.37 78.9872 193.261 79.3959C193.151 79.7985 193.096 80.2712 193.096 80.8141ZM206.025 84.3093V72.1769H207.635V86.2307H206.162L206.025 84.3093ZM200.489 81.7565V80.8324C200.489 80.0151 200.569 79.3136 200.727 78.728C200.886 78.1363 201.111 77.6514 201.404 77.2732C201.697 76.8889 202.048 76.6053 202.456 76.4223C202.865 76.2393 203.316 76.1478 203.811 76.1478C204.323 76.1478 204.762 76.2515 205.128 76.4589C205.5 76.6663 205.811 76.9682 206.061 77.3647C206.311 77.7551 206.507 78.2309 206.647 78.7921C206.793 79.3471 206.891 79.9754 206.94 80.6769V81.9121C206.885 82.6075 206.784 83.2327 206.638 83.7878C206.497 84.3428 206.302 84.8156 206.052 85.206C205.802 85.5963 205.491 85.8952 205.119 86.1026C204.747 86.31 204.305 86.4137 203.792 86.4137C203.304 86.4137 202.859 86.3192 202.456 86.1301C202.054 85.9349 201.703 85.6451 201.404 85.2609C201.111 84.8705 200.886 84.3855 200.727 83.8061C200.569 83.2205 200.489 82.5373 200.489 81.7565ZM202.109 80.8324V81.7565C202.109 82.3055 202.148 82.7843 202.228 83.193C202.307 83.5956 202.432 83.9311 202.603 84.1995C202.774 84.4618 202.99 84.657 203.252 84.7851C203.521 84.9132 203.841 84.9772 204.213 84.9772C204.664 84.9772 205.034 84.8674 205.32 84.6478C205.607 84.4282 205.836 84.1385 206.006 83.7786C206.183 83.4126 206.324 83.0192 206.427 82.5983V79.9998C206.366 79.6887 206.278 79.3898 206.162 79.1031C206.046 78.8104 205.9 78.5511 205.723 78.3254C205.552 78.0936 205.342 77.9106 205.091 77.7764C204.847 77.6423 204.561 77.5752 204.231 77.5752C203.859 77.5752 203.536 77.6423 203.262 77.7764C202.993 77.9106 202.774 78.1119 202.603 78.3803C202.438 78.6487 202.313 78.9872 202.228 79.3959C202.148 79.8046 202.109 80.2834 202.109 80.8324ZM214.754 83.9433V76.3308H216.373V86.2307H214.836L214.754 83.9433ZM215.056 81.8572L215.696 81.8389C215.696 82.4977 215.638 83.1076 215.522 83.6688C215.413 84.2239 215.23 84.7058 214.973 85.1145C214.723 85.5231 214.391 85.8434 213.976 86.0752C213.561 86.3009 213.052 86.4137 212.448 86.4137C212.039 86.4137 211.667 86.3436 211.332 86.2033C211.002 86.063 210.716 85.8464 210.472 85.5536C210.234 85.2609 210.048 84.8796 209.914 84.4099C209.786 83.9403 209.722 83.376 209.722 82.7173V76.3308H211.332V82.7356C211.332 83.1808 211.372 83.5499 211.451 83.8427C211.53 84.1293 211.637 84.3581 211.771 84.5289C211.905 84.6936 212.055 84.8095 212.219 84.8766C212.384 84.9437 212.552 84.9772 212.723 84.9772C213.296 84.9772 213.753 84.84 214.095 84.5655C214.437 84.2849 214.681 83.9098 214.827 83.4401C214.98 82.9643 215.056 82.4367 215.056 81.8572ZM221.854 85.0321C222.178 85.0321 222.47 84.9681 222.733 84.84C223.001 84.7058 223.221 84.4984 223.391 84.2178C223.562 83.9311 223.66 83.559 223.684 83.1015H225.203C225.179 83.7603 225.011 84.3398 224.7 84.84C224.395 85.334 223.992 85.7214 223.492 86.002C222.998 86.2765 222.452 86.4137 221.854 86.4137C221.214 86.4137 220.656 86.31 220.18 86.1026C219.71 85.8952 219.32 85.5963 219.009 85.206C218.704 84.8095 218.475 84.3306 218.323 83.7695C218.17 83.2022 218.094 82.5587 218.094 81.8389V80.7226C218.094 80.0029 218.17 79.3624 218.323 78.8012C218.475 78.2339 218.704 77.7551 219.009 77.3647C219.32 76.9682 219.71 76.6663 220.18 76.4589C220.656 76.2515 221.214 76.1478 221.854 76.1478C222.525 76.1478 223.105 76.2912 223.593 76.5778C224.087 76.8584 224.471 77.2671 224.746 77.8039C225.026 78.3346 225.179 78.9781 225.203 79.7345H223.684C223.66 79.2465 223.571 78.8409 223.419 78.5176C223.266 78.1882 223.059 77.9442 222.797 77.7856C222.534 77.6209 222.22 77.5386 221.854 77.5386C221.427 77.5386 221.074 77.6148 220.793 77.7673C220.518 77.9137 220.302 78.1272 220.143 78.4078C219.985 78.6884 219.872 79.0238 219.805 79.4142C219.744 79.8046 219.713 80.2407 219.713 80.7226V81.8389C219.713 82.3208 219.744 82.7599 219.805 83.1564C219.872 83.5468 219.982 83.8823 220.134 84.1629C220.293 84.4435 220.512 84.66 220.793 84.8125C221.074 84.9589 221.427 85.0321 221.854 85.0321ZM230.309 76.3308V77.6301H225.688V76.3308H230.309ZM227.198 73.9244H228.818V83.7786C228.818 84.1141 228.857 84.3672 228.936 84.538C229.022 84.7088 229.129 84.8217 229.257 84.8766C229.385 84.9315 229.522 84.9589 229.668 84.9589C229.778 84.9589 229.9 84.9467 230.034 84.9223C230.169 84.8918 230.26 84.8674 230.309 84.8491L230.3 86.2307C230.19 86.2734 230.044 86.3131 229.861 86.3497C229.678 86.3924 229.446 86.4137 229.165 86.4137C228.818 86.4137 228.494 86.3314 228.195 86.1667C227.896 86.002 227.656 85.7275 227.473 85.3432C227.29 84.9528 227.198 84.4282 227.198 83.7695V73.9244Z" fill="#323C47"/>
<path opacity="0.696388" d="M69.7066 34.8906V45.4153H68.4342V36.5512L66.2343 37.5289V36.3284L69.5125 34.8906H69.7066ZM76.5596 34.8906V45.4153H75.2871V36.5512L73.0873 37.5289V36.3284L76.3655 34.8906H76.5596ZM79.7749 44.7108C79.7749 44.4855 79.8444 44.2962 79.9834 44.1428C80.1271 43.9847 80.3332 43.9056 80.6016 43.9056C80.87 43.9056 81.0737 43.9847 81.2127 44.1428C81.3565 44.2962 81.4284 44.4855 81.4284 44.7108C81.4284 44.9312 81.3565 45.1181 81.2127 45.2715C81.0737 45.4249 80.87 45.5016 80.6016 45.5016C80.3332 45.5016 80.1271 45.4249 79.9834 45.2715C79.8444 45.1181 79.7749 44.9312 79.7749 44.7108ZM79.7677 38.3629C79.7677 38.1376 79.8372 37.9483 79.9762 37.7949C80.12 37.6368 80.326 37.5577 80.5944 37.5577C80.8628 37.5577 81.0665 37.6368 81.2055 37.7949C81.3493 37.9483 81.4212 38.1376 81.4212 38.3629C81.4212 38.5833 81.3493 38.7702 81.2055 38.9236C81.0665 39.077 80.8628 39.1537 80.5944 39.1537C80.326 39.1537 80.12 39.077 79.9762 38.9236C79.8372 38.7702 79.7677 38.5833 79.7677 38.3629ZM88.231 39.3478V40.9437C88.231 41.8016 88.1639 42.5253 88.0297 43.1148C87.9003 43.7043 87.7134 44.1788 87.469 44.5382C87.2245 44.8977 86.9298 45.1589 86.5847 45.3218C86.2444 45.48 85.861 45.5591 85.4345 45.5591C85.099 45.5591 84.7851 45.5087 84.4927 45.4081C84.2051 45.3074 83.9463 45.1469 83.7163 44.9264C83.4862 44.7012 83.2897 44.4088 83.1268 44.0494C82.9638 43.6899 82.8392 43.2538 82.753 42.741C82.6667 42.2282 82.6236 41.6291 82.6236 40.9437V39.3478C82.6236 38.4899 82.6907 37.771 82.8249 37.1911C82.9591 36.6112 83.1484 36.1463 83.3928 35.7964C83.642 35.4417 83.9368 35.1877 84.277 35.0344C84.6221 34.881 85.0055 34.8043 85.4273 34.8043C85.7676 34.8043 86.0815 34.8546 86.369 34.9553C86.6614 35.0511 86.9202 35.2069 87.1454 35.4226C87.3755 35.6334 87.572 35.9162 87.7349 36.2709C87.8979 36.6207 88.0201 37.0497 88.1016 37.5577C88.1879 38.0657 88.231 38.6624 88.231 39.3478ZM86.9657 41.1594V39.1249C86.9657 38.6552 86.9442 38.2431 86.901 37.8884C86.8579 37.5289 86.7956 37.2222 86.7141 36.9682C86.6326 36.7142 86.5272 36.5081 86.3978 36.35C86.2732 36.1918 86.1294 36.0768 85.9665 36.0049C85.8035 35.9282 85.6238 35.8899 85.4273 35.8899C85.1828 35.8899 84.9648 35.9498 84.7731 36.0696C84.5862 36.1846 84.4256 36.3691 84.2914 36.6231C84.162 36.8771 84.0638 37.2102 83.9967 37.6224C83.9296 38.0346 83.896 38.5354 83.896 39.1249V41.1594C83.896 41.6291 83.9176 42.0436 83.9607 42.4031C84.0086 42.7625 84.0733 43.0741 84.1548 43.3377C84.2411 43.5965 84.3465 43.8097 84.4711 43.9775C84.5957 44.1452 84.7395 44.2698 84.9025 44.3513C85.0654 44.428 85.2428 44.4663 85.4345 44.4663C85.6885 44.4663 85.9089 44.404 86.0959 44.2794C86.2876 44.1548 86.4481 43.9607 86.5775 43.6971C86.7069 43.4287 86.8028 43.086 86.8651 42.6691C86.9322 42.2473 86.9657 41.7441 86.9657 41.1594ZM95.0839 39.3478V40.9437C95.0839 41.8016 95.0168 42.5253 94.8826 43.1148C94.7532 43.7043 94.5663 44.1788 94.3219 44.5382C94.0775 44.8977 93.7827 45.1589 93.4377 45.3218C93.0974 45.48 92.714 45.5591 92.2874 45.5591C91.9519 45.5591 91.638 45.5087 91.3457 45.4081C91.0581 45.3074 90.7993 45.1469 90.5692 44.9264C90.3392 44.7012 90.1427 44.4088 89.9797 44.0494C89.8168 43.6899 89.6922 43.2538 89.6059 42.741C89.5196 42.2282 89.4765 41.6291 89.4765 40.9437V39.3478C89.4765 38.4899 89.5436 37.771 89.6778 37.1911C89.812 36.6112 90.0013 36.1463 90.2457 35.7964C90.495 35.4417 90.7897 35.1877 91.13 35.0344C91.4751 34.881 91.8585 34.8043 92.2802 34.8043C92.6205 34.8043 92.9344 34.8546 93.222 34.9553C93.5143 35.0511 93.7731 35.2069 93.9984 35.4226C94.2284 35.6334 94.4249 35.9162 94.5879 36.2709C94.7508 36.6207 94.8731 37.0497 94.9545 37.5577C95.0408 38.0657 95.0839 38.6624 95.0839 39.3478ZM93.8187 41.1594V39.1249C93.8187 38.6552 93.7971 38.2431 93.754 37.8884C93.7108 37.5289 93.6485 37.2222 93.5671 36.9682C93.4856 36.7142 93.3801 36.5081 93.2507 36.35C93.1261 36.1918 92.9824 36.0768 92.8194 36.0049C92.6565 35.9282 92.4767 35.8899 92.2802 35.8899C92.0358 35.8899 91.8177 35.9498 91.626 36.0696C91.4391 36.1846 91.2786 36.3691 91.1444 36.6231C91.015 36.8771 90.9167 37.2102 90.8496 37.6224C90.7825 38.0346 90.749 38.5354 90.749 39.1249V41.1594C90.749 41.6291 90.7705 42.0436 90.8137 42.4031C90.8616 42.7625 90.9263 43.0741 91.0078 43.3377C91.094 43.5965 91.1995 43.8097 91.3241 43.9775C91.4487 44.1452 91.5925 44.2698 91.7554 44.3513C91.9184 44.428 92.0957 44.4663 92.2874 44.4663C92.5414 44.4663 92.7619 44.404 92.9488 44.2794C93.1405 44.1548 93.3011 43.9607 93.4305 43.6971C93.5599 43.4287 93.6557 43.086 93.718 42.6691C93.7851 42.2473 93.8187 41.7441 93.8187 41.1594ZM102.57 36.7427L99.9689 45.4153H98.7403L101.805 35.8997H102.577L102.57 36.7427ZM104.674 45.4153L102.073 36.7427L102.06 35.8997H102.838L105.903 45.4153H104.674ZM104.674 41.8927V42.9253H100.087V41.8927H104.674ZM107.167 35.8997H108.33L110.82 43.6572L113.304 35.8997H114.467L111.271 45.4153H110.356L107.167 35.8997ZM106.788 35.8997H107.807L107.984 41.7031V45.4153H106.788V35.8997ZM113.82 35.8997H114.84V45.4153H113.644V41.7031L113.82 35.8997ZM121.727 40.4189V41.5117H118.758V40.4189H121.727ZM129.229 34.8906V45.4153H127.956V36.5512L125.757 37.5289V36.3284L129.035 34.8906H129.229ZM136.082 34.8906V45.4153H134.809V36.5512L132.609 37.5289V36.3284L135.888 34.8906H136.082ZM139.297 44.7108C139.297 44.4855 139.367 44.2962 139.506 44.1428C139.649 43.9847 139.855 43.9056 140.124 43.9056C140.392 43.9056 140.596 43.9847 140.735 44.1428C140.879 44.2962 140.951 44.4855 140.951 44.7108C140.951 44.9312 140.879 45.1181 140.735 45.2715C140.596 45.4249 140.392 45.5016 140.124 45.5016C139.855 45.5016 139.649 45.4249 139.506 45.2715C139.367 45.1181 139.297 44.9312 139.297 44.7108ZM139.29 38.3629C139.29 38.1376 139.359 37.9483 139.498 37.7949C139.642 37.6368 139.848 37.5577 140.117 37.5577C140.385 37.5577 140.589 37.6368 140.728 37.7949C140.871 37.9483 140.943 38.1376 140.943 38.3629C140.943 38.5833 140.871 38.7702 140.728 38.9236C140.589 39.077 140.385 39.1537 140.117 39.1537C139.848 39.1537 139.642 39.077 139.498 38.9236C139.359 38.7702 139.29 38.5833 139.29 38.3629ZM143.792 39.5275H144.612C144.976 39.5275 145.278 39.4508 145.517 39.2974C145.757 39.1393 145.934 38.926 146.049 38.6576C146.169 38.3844 146.229 38.0777 146.229 37.7374C146.229 37.3348 146.176 36.997 146.071 36.7238C145.966 36.4506 145.807 36.2445 145.596 36.1055C145.39 35.9665 145.129 35.897 144.813 35.897C144.516 35.897 144.257 35.9713 144.036 36.1199C143.816 36.2637 143.646 36.4698 143.526 36.7382C143.406 37.0065 143.346 37.3229 143.346 37.6871H142.081C142.081 37.1551 142.191 36.6711 142.412 36.2349C142.637 35.7988 142.953 35.4513 143.361 35.1925C143.773 34.9337 144.257 34.8043 144.813 34.8043C145.345 34.8043 145.812 34.9169 146.215 35.1422C146.617 35.3627 146.931 35.6934 147.157 36.1343C147.387 36.5704 147.502 37.1144 147.502 37.7662C147.502 38.0298 147.451 38.3125 147.351 38.6145C147.255 38.9116 147.099 39.1896 146.883 39.4484C146.672 39.7072 146.394 39.9205 146.049 40.0882C145.709 40.2512 145.292 40.3327 144.799 40.3327H143.792V39.5275ZM143.792 40.6202V39.8222H144.799C145.383 39.8222 145.86 39.9013 146.229 40.0595C146.598 40.2176 146.883 40.4285 147.085 40.6921C147.286 40.9557 147.425 41.2457 147.502 41.562C147.583 41.8735 147.624 42.185 147.624 42.4965C147.624 42.9854 147.552 43.4191 147.408 43.7978C147.269 44.1764 147.07 44.4975 146.811 44.7611C146.557 45.0247 146.26 45.2236 145.92 45.3578C145.58 45.492 145.208 45.5591 144.806 45.5591C144.413 45.5591 144.048 45.4944 143.713 45.365C143.377 45.2356 143.083 45.0486 142.829 44.8042C142.575 44.555 142.376 44.2507 142.232 43.8912C142.093 43.527 142.024 43.1124 142.024 42.6475H143.296C143.296 43.0118 143.356 43.3305 143.476 43.6037C143.596 43.8768 143.768 44.0901 143.993 44.2435C144.219 44.392 144.489 44.4663 144.806 44.4663C145.122 44.4663 145.395 44.3968 145.625 44.2579C145.855 44.1141 146.033 43.8984 146.157 43.6108C146.287 43.3233 146.351 42.9614 146.351 42.5253C146.351 42.0892 146.279 41.7321 146.136 41.4541C145.997 41.1714 145.798 40.9629 145.539 40.8287C145.28 40.6897 144.971 40.6202 144.612 40.6202H143.792ZM154.606 39.3478V40.9437C154.606 41.8016 154.539 42.5253 154.405 43.1148C154.275 43.7043 154.089 44.1788 153.844 44.5382C153.6 44.8977 153.305 45.1589 152.96 45.3218C152.62 45.48 152.236 45.5591 151.81 45.5591C151.474 45.5591 151.16 45.5087 150.868 45.4081C150.58 45.3074 150.322 45.1469 150.091 44.9264C149.861 44.7012 149.665 44.4088 149.502 44.0494C149.339 43.6899 149.214 43.2538 149.128 42.741C149.042 42.2282 148.999 41.6291 148.999 40.9437V39.3478C148.999 38.4899 149.066 37.771 149.2 37.1911C149.334 36.6112 149.524 36.1463 149.768 35.7964C150.017 35.4417 150.312 35.1877 150.652 35.0344C150.997 34.881 151.381 34.8043 151.802 34.8043C152.143 34.8043 152.457 34.8546 152.744 34.9553C153.037 35.0511 153.295 35.2069 153.521 35.4226C153.751 35.6334 153.947 35.9162 154.11 36.2709C154.273 36.6207 154.395 37.0497 154.477 37.5577C154.563 38.0657 154.606 38.6624 154.606 39.3478ZM153.341 41.1594V39.1249C153.341 38.6552 153.319 38.2431 153.276 37.8884C153.233 37.5289 153.171 37.2222 153.089 36.9682C153.008 36.7142 152.902 36.5081 152.773 36.35C152.648 36.1918 152.505 36.0768 152.342 36.0049C152.179 35.9282 151.999 35.8899 151.802 35.8899C151.558 35.8899 151.34 35.9498 151.148 36.0696C150.961 36.1846 150.801 36.3691 150.667 36.6231C150.537 36.8771 150.439 37.2102 150.372 37.6224C150.305 38.0346 150.271 38.5354 150.271 39.1249V41.1594C150.271 41.6291 150.293 42.0436 150.336 42.4031C150.384 42.7625 150.449 43.0741 150.53 43.3377C150.616 43.5965 150.722 43.8097 150.846 43.9775C150.971 44.1452 151.115 44.2698 151.278 44.3513C151.441 44.428 151.618 44.4663 151.81 44.4663C152.064 44.4663 152.284 44.404 152.471 44.2794C152.663 44.1548 152.823 43.9607 152.953 43.6971C153.082 43.4287 153.178 43.086 153.24 42.6691C153.307 42.2473 153.341 41.7441 153.341 41.1594ZM162.092 36.7427L159.491 45.4153H158.262L161.328 35.8997H162.099L162.092 36.7427ZM164.197 45.4153L161.596 36.7427L161.582 35.8997H162.36L165.425 45.4153H164.197ZM164.197 41.8927V42.9253H159.609V41.8927H164.197ZM166.689 35.8997H167.852L170.342 43.6572L172.826 35.8997H173.989L170.793 45.4153H169.878L166.689 35.8997ZM166.31 35.8997H167.33L167.506 41.7031V45.4153H166.31V35.8997ZM173.342 35.8997H174.362V45.4153H173.166V41.7031L173.342 35.8997Z" fill="#868686"/>
<path opacity="0.696388" d="M287.455 143.263V152.831H286.298V144.773L284.298 145.661V144.57L287.279 143.263H287.455ZM295.325 147.315V148.766C295.325 149.546 295.264 150.204 295.142 150.739C295.025 151.275 294.855 151.707 294.633 152.033C294.41 152.36 294.142 152.598 293.829 152.746C293.519 152.89 293.171 152.962 292.783 152.962C292.478 152.962 292.193 152.916 291.927 152.824C291.665 152.733 291.43 152.587 291.221 152.386C291.012 152.182 290.833 151.916 290.685 151.589C290.537 151.262 290.424 150.866 290.345 150.4C290.267 149.933 290.228 149.389 290.228 148.766V147.315C290.228 146.535 290.289 145.881 290.411 145.354C290.533 144.827 290.705 144.404 290.927 144.086C291.154 143.764 291.421 143.533 291.731 143.394C292.045 143.254 292.393 143.184 292.777 143.184C293.086 143.184 293.371 143.23 293.633 143.322C293.898 143.409 294.134 143.55 294.338 143.747C294.548 143.938 294.726 144.195 294.874 144.518C295.023 144.836 295.134 145.226 295.208 145.688C295.286 146.149 295.325 146.692 295.325 147.315ZM294.175 148.962V147.112C294.175 146.685 294.155 146.311 294.116 145.988C294.077 145.661 294.02 145.383 293.946 145.152C293.872 144.921 293.776 144.733 293.659 144.59C293.546 144.446 293.415 144.341 293.267 144.276C293.119 144.206 292.955 144.171 292.777 144.171C292.554 144.171 292.356 144.226 292.182 144.335C292.012 144.439 291.866 144.607 291.744 144.838C291.626 145.069 291.537 145.372 291.476 145.746C291.415 146.121 291.384 146.576 291.384 147.112V148.962C291.384 149.389 291.404 149.766 291.443 150.092C291.487 150.419 291.546 150.702 291.62 150.942C291.698 151.177 291.794 151.371 291.907 151.524C292.021 151.676 292.151 151.789 292.299 151.864C292.448 151.933 292.609 151.968 292.783 151.968C293.014 151.968 293.214 151.911 293.384 151.798C293.559 151.685 293.705 151.508 293.822 151.269C293.94 151.025 294.027 150.713 294.084 150.334C294.145 149.951 294.175 149.493 294.175 148.962ZM302.727 151.622V147.785C302.727 147.507 302.683 147.282 302.596 147.112C302.513 146.942 302.387 146.818 302.217 146.74C302.051 146.661 301.842 146.622 301.59 146.622C301.346 146.622 301.134 146.672 300.956 146.772C300.781 146.873 300.646 147.006 300.551 147.171C300.459 147.337 300.413 147.52 300.413 147.72H299.256C299.256 147.467 299.311 147.217 299.42 146.969C299.533 146.72 299.694 146.496 299.903 146.295C300.113 146.091 300.363 145.929 300.655 145.812C300.951 145.69 301.282 145.629 301.648 145.629C302.084 145.629 302.47 145.701 302.805 145.844C303.141 145.984 303.404 146.213 303.596 146.531C303.788 146.849 303.884 147.271 303.884 147.799V151.288C303.884 151.524 303.901 151.774 303.936 152.04C303.975 152.306 304.03 152.535 304.099 152.726V152.831H302.903C302.847 152.691 302.803 152.506 302.773 152.275C302.742 152.04 302.727 151.822 302.727 151.622ZM302.91 148.544L302.923 149.393H302.119C301.845 149.393 301.594 149.424 301.367 149.485C301.145 149.546 300.954 149.635 300.792 149.753C300.631 149.866 300.507 150.007 300.42 150.177C300.337 150.347 300.296 150.541 300.296 150.759C300.296 151.042 300.335 151.269 300.413 151.439C300.492 151.604 300.609 151.724 300.766 151.798C300.923 151.872 301.121 151.909 301.361 151.909C301.653 151.909 301.91 151.842 302.132 151.707C302.354 151.572 302.526 151.408 302.648 151.217C302.775 151.025 302.834 150.846 302.825 150.681L303.08 151.223C303.062 151.393 303.006 151.578 302.91 151.779C302.818 151.975 302.69 152.164 302.524 152.347C302.359 152.526 302.163 152.674 301.936 152.792C301.714 152.905 301.463 152.962 301.184 152.962C300.775 152.962 300.415 152.883 300.106 152.726C299.801 152.569 299.564 152.338 299.394 152.033C299.224 151.728 299.139 151.352 299.139 150.903C299.139 150.563 299.198 150.249 299.315 149.962C299.433 149.674 299.607 149.426 299.838 149.217C300.069 149.003 300.359 148.838 300.707 148.72C301.06 148.602 301.468 148.544 301.929 148.544H302.91ZM307.878 145.759V146.687H304.578V145.759H307.878ZM305.656 144.041H306.813V151.079C306.813 151.319 306.841 151.5 306.898 151.622C306.959 151.744 307.035 151.824 307.127 151.864C307.218 151.903 307.316 151.922 307.421 151.922C307.499 151.922 307.586 151.914 307.682 151.896C307.778 151.874 307.844 151.857 307.878 151.844L307.872 152.831C307.793 152.861 307.689 152.89 307.558 152.916C307.427 152.946 307.262 152.962 307.061 152.962C306.813 152.962 306.582 152.903 306.369 152.785C306.155 152.667 305.983 152.471 305.852 152.197C305.722 151.918 305.656 151.543 305.656 151.073V144.041ZM311.455 145.759V146.687H308.155V145.759H311.455ZM309.233 144.041H310.39V151.079C310.39 151.319 310.418 151.5 310.475 151.622C310.536 151.744 310.612 151.824 310.703 151.864C310.795 151.903 310.893 151.922 310.997 151.922C311.076 151.922 311.163 151.914 311.259 151.896C311.355 151.874 311.42 151.857 311.455 151.844L311.448 152.831C311.37 152.861 311.265 152.89 311.135 152.916C311.004 152.946 310.838 152.962 310.638 152.962C310.39 152.962 310.159 152.903 309.945 152.785C309.732 152.667 309.56 152.471 309.429 152.197C309.298 151.918 309.233 151.543 309.233 151.073V144.041ZM315.914 151.622V147.785C315.914 147.507 315.87 147.282 315.783 147.112C315.7 146.942 315.574 146.818 315.404 146.74C315.238 146.661 315.029 146.622 314.777 146.622C314.533 146.622 314.321 146.672 314.143 146.772C313.968 146.873 313.833 147.006 313.738 147.171C313.646 147.337 313.6 147.52 313.6 147.72H312.443C312.443 147.467 312.498 147.217 312.607 146.969C312.72 146.72 312.881 146.496 313.091 146.295C313.3 146.091 313.55 145.929 313.842 145.812C314.138 145.69 314.469 145.629 314.835 145.629C315.271 145.629 315.657 145.701 315.992 145.844C316.328 145.984 316.591 146.213 316.783 146.531C316.975 146.849 317.071 147.271 317.071 147.799V151.288C317.071 151.524 317.088 151.774 317.123 152.04C317.162 152.306 317.217 152.535 317.286 152.726V152.831H316.09C316.034 152.691 315.99 152.506 315.96 152.275C315.929 152.04 315.914 151.822 315.914 151.622ZM316.097 148.544L316.11 149.393H315.306C315.032 149.393 314.781 149.424 314.554 149.485C314.332 149.546 314.141 149.635 313.979 149.753C313.818 149.866 313.694 150.007 313.607 150.177C313.524 150.347 313.483 150.541 313.483 150.759C313.483 151.042 313.522 151.269 313.6 151.439C313.679 151.604 313.796 151.724 313.953 151.798C314.11 151.872 314.308 151.909 314.548 151.909C314.84 151.909 315.097 151.842 315.319 151.707C315.541 151.572 315.713 151.408 315.835 151.217C315.962 151.025 316.021 150.846 316.012 150.681L316.267 151.223C316.249 151.393 316.193 151.578 316.097 151.779C316.005 151.975 315.877 152.164 315.711 152.347C315.546 152.526 315.35 152.674 315.123 152.792C314.901 152.905 314.65 152.962 314.371 152.962C313.962 152.962 313.602 152.883 313.293 152.726C312.988 152.569 312.751 152.338 312.581 152.033C312.411 151.728 312.326 151.352 312.326 150.903C312.326 150.563 312.385 150.249 312.502 149.962C312.62 149.674 312.794 149.426 313.025 149.217C313.256 149.003 313.546 148.838 313.894 148.72C314.247 148.602 314.655 148.544 315.116 148.544H316.097ZM320.935 151.975C321.166 151.975 321.375 151.929 321.562 151.837C321.754 151.742 321.911 151.593 322.033 151.393C322.155 151.188 322.224 150.922 322.242 150.596H323.327C323.309 151.066 323.189 151.48 322.967 151.837C322.749 152.19 322.462 152.467 322.105 152.667C321.752 152.863 321.362 152.962 320.935 152.962C320.477 152.962 320.079 152.887 319.739 152.739C319.403 152.591 319.124 152.378 318.902 152.099C318.684 151.816 318.521 151.474 318.412 151.073C318.303 150.668 318.249 150.208 318.249 149.694V148.896C318.249 148.382 318.303 147.925 318.412 147.524C318.521 147.119 318.684 146.777 318.902 146.498C319.124 146.215 319.403 145.999 319.739 145.851C320.079 145.703 320.477 145.629 320.935 145.629C321.414 145.629 321.828 145.731 322.176 145.936C322.529 146.136 322.804 146.428 323 146.812C323.2 147.191 323.309 147.65 323.327 148.191H322.242C322.224 147.842 322.161 147.552 322.052 147.321C321.943 147.086 321.795 146.912 321.608 146.799C321.421 146.681 321.196 146.622 320.935 146.622C320.63 146.622 320.377 146.677 320.177 146.786C319.981 146.89 319.826 147.043 319.713 147.243C319.599 147.443 319.519 147.683 319.471 147.962C319.427 148.241 319.405 148.552 319.405 148.896V149.694C319.405 150.038 319.427 150.352 319.471 150.635C319.519 150.914 319.597 151.153 319.706 151.354C319.819 151.554 319.976 151.709 320.177 151.818C320.377 151.922 320.63 151.975 320.935 151.975ZM325.439 142.792V152.831H324.283V142.792H325.439ZM325.158 149.027L324.688 149.008C324.683 148.524 324.738 148.077 324.851 147.668C324.969 147.254 325.134 146.894 325.348 146.589C325.566 146.284 325.825 146.049 326.126 145.884C326.426 145.714 326.759 145.629 327.125 145.629C327.413 145.629 327.674 145.677 327.91 145.773C328.145 145.864 328.345 146.012 328.511 146.217C328.677 146.422 328.803 146.687 328.89 147.014C328.982 147.337 329.027 147.731 329.027 148.197V152.831H327.87V148.184C327.87 147.814 327.829 147.517 327.746 147.295C327.668 147.069 327.546 146.905 327.38 146.805C327.219 146.701 327.014 146.648 326.766 146.648C326.539 146.648 326.328 146.711 326.132 146.838C325.936 146.964 325.764 147.138 325.616 147.361C325.472 147.583 325.359 147.838 325.276 148.125C325.197 148.408 325.158 148.709 325.158 149.027ZM332.898 152.962C332.475 152.962 332.094 152.898 331.754 152.772C331.414 152.646 331.125 152.454 330.885 152.197C330.645 151.935 330.462 151.607 330.336 151.21C330.21 150.814 330.147 150.345 330.147 149.805V149.008C330.147 148.385 330.218 147.857 330.362 147.426C330.51 146.995 330.709 146.648 330.957 146.387C331.205 146.121 331.486 145.929 331.8 145.812C332.114 145.69 332.436 145.629 332.767 145.629C333.212 145.629 333.591 145.701 333.904 145.844C334.218 145.988 334.473 146.202 334.669 146.485C334.865 146.768 335.009 147.117 335.1 147.531C335.196 147.944 335.244 148.422 335.244 148.962V149.635H330.826V148.648H334.087V148.485C334.07 148.119 334.02 147.796 333.937 147.517C333.859 147.239 333.728 147.021 333.545 146.864C333.362 146.703 333.103 146.622 332.767 146.622C332.554 146.622 332.355 146.659 332.172 146.733C331.994 146.803 331.839 146.927 331.708 147.106C331.582 147.28 331.482 147.522 331.408 147.831C331.338 148.141 331.303 148.533 331.303 149.008V149.805C331.303 150.184 331.338 150.511 331.408 150.785C331.482 151.055 331.589 151.28 331.728 151.458C331.872 151.633 332.046 151.763 332.251 151.85C332.46 151.933 332.698 151.975 332.963 151.975C333.351 151.975 333.671 151.901 333.924 151.752C334.177 151.6 334.397 151.406 334.584 151.171L335.192 151.896C335.066 152.075 334.9 152.247 334.695 152.413C334.495 152.574 334.246 152.707 333.95 152.811C333.658 152.911 333.307 152.962 332.898 152.962ZM337.416 147.165V152.831H336.265V145.759H337.35L337.416 147.165ZM337.18 149.027L336.644 149.008C336.64 148.524 336.688 148.077 336.788 147.668C336.888 147.254 337.039 146.894 337.239 146.589C337.444 146.284 337.699 146.049 338.004 145.884C338.313 145.714 338.673 145.629 339.082 145.629C339.352 145.629 339.603 145.677 339.834 145.773C340.069 145.864 340.274 146.01 340.448 146.21C340.622 146.411 340.757 146.668 340.853 146.982C340.953 147.295 341.004 147.674 341.004 148.119V152.831H339.847V148.178C339.847 147.807 339.797 147.511 339.696 147.289C339.601 147.067 339.463 146.905 339.285 146.805C339.106 146.701 338.893 146.648 338.644 146.648C338.361 146.648 338.124 146.711 337.932 146.838C337.745 146.964 337.594 147.138 337.481 147.361C337.372 147.583 337.294 147.838 337.246 148.125C337.202 148.408 337.18 148.709 337.18 149.027ZM340.99 148.361L340.219 148.609C340.215 148.221 340.263 147.849 340.363 147.491C340.463 147.134 340.611 146.816 340.807 146.537C341.008 146.258 341.256 146.038 341.553 145.877C341.849 145.712 342.193 145.629 342.585 145.629C342.908 145.629 343.193 145.679 343.441 145.779C343.69 145.879 343.899 146.034 344.069 146.243C344.243 146.448 344.374 146.711 344.461 147.034C344.548 147.356 344.592 147.74 344.592 148.184V152.831H343.435V148.171C343.435 147.775 343.385 147.467 343.284 147.25C343.189 147.027 343.051 146.873 342.873 146.786C342.694 146.694 342.481 146.648 342.232 146.648C342.032 146.648 341.853 146.694 341.696 146.786C341.544 146.877 341.415 147.003 341.311 147.165C341.206 147.321 341.126 147.502 341.069 147.707C341.017 147.912 340.99 148.13 340.99 148.361ZM348.482 152.962C348.059 152.962 347.678 152.898 347.338 152.772C346.998 152.646 346.709 152.454 346.469 152.197C346.229 151.935 346.046 151.607 345.92 151.21C345.794 150.814 345.73 150.345 345.73 149.805V149.008C345.73 148.385 345.802 147.857 345.946 147.426C346.094 146.995 346.292 146.648 346.541 146.387C346.789 146.121 347.07 145.929 347.384 145.812C347.698 145.69 348.02 145.629 348.351 145.629C348.795 145.629 349.175 145.701 349.488 145.844C349.802 145.988 350.057 146.202 350.253 146.485C350.449 146.768 350.593 147.117 350.684 147.531C350.78 147.944 350.828 148.422 350.828 148.962V149.635H346.41V148.648H349.671V148.485C349.654 148.119 349.604 147.796 349.521 147.517C349.443 147.239 349.312 147.021 349.129 146.864C348.946 146.703 348.687 146.622 348.351 146.622C348.138 146.622 347.939 146.659 347.756 146.733C347.578 146.803 347.423 146.927 347.292 147.106C347.166 147.28 347.066 147.522 346.992 147.831C346.922 148.141 346.887 148.533 346.887 149.008V149.805C346.887 150.184 346.922 150.511 346.992 150.785C347.066 151.055 347.173 151.28 347.312 151.458C347.456 151.633 347.63 151.763 347.835 151.85C348.044 151.933 348.281 151.975 348.547 151.975C348.935 151.975 349.255 151.901 349.508 151.752C349.761 151.6 349.981 151.406 350.168 151.171L350.776 151.896C350.649 152.075 350.484 152.247 350.279 152.413C350.079 152.574 349.83 152.707 349.534 152.811C349.242 152.911 348.891 152.962 348.482 152.962ZM352.999 147.269V152.831H351.843V145.759H352.934L352.999 147.269ZM352.718 149.027L352.248 149.008C352.244 148.524 352.298 148.077 352.411 147.668C352.529 147.254 352.694 146.894 352.908 146.589C353.126 146.284 353.385 146.049 353.686 145.884C353.986 145.714 354.32 145.629 354.686 145.629C354.973 145.629 355.235 145.677 355.47 145.773C355.705 145.864 355.906 146.012 356.071 146.217C356.237 146.422 356.363 146.687 356.45 147.014C356.542 147.337 356.587 147.731 356.587 148.197V152.831H355.431V148.184C355.431 147.814 355.389 147.517 355.306 147.295C355.228 147.069 355.106 146.905 354.94 146.805C354.779 146.701 354.575 146.648 354.326 146.648C354.1 146.648 353.888 146.711 353.692 146.838C353.496 146.964 353.324 147.138 353.176 147.361C353.032 147.583 352.919 147.838 352.836 148.125C352.758 148.408 352.718 148.709 352.718 149.027ZM360.523 145.759V146.687H357.223V145.759H360.523ZM358.301 144.041H359.458V151.079C359.458 151.319 359.486 151.5 359.543 151.622C359.604 151.744 359.68 151.824 359.772 151.864C359.863 151.903 359.961 151.922 360.066 151.922C360.144 151.922 360.232 151.914 360.327 151.896C360.423 151.874 360.489 151.857 360.523 151.844L360.517 152.831C360.438 152.861 360.334 152.89 360.203 152.916C360.072 152.946 359.907 152.962 359.706 152.962C359.458 152.962 359.227 152.903 359.014 152.785C358.8 152.667 358.628 152.471 358.497 152.197C358.367 151.918 358.301 151.543 358.301 151.073V144.041ZM364.95 151.02C364.95 150.842 364.906 150.685 364.819 150.55C364.732 150.415 364.588 150.284 364.388 150.158C364.191 150.031 363.926 149.896 363.59 149.753C363.263 149.618 362.969 149.485 362.708 149.354C362.451 149.219 362.233 149.073 362.054 148.916C361.876 148.759 361.739 148.578 361.643 148.374C361.551 148.164 361.505 147.918 361.505 147.635C361.505 147.352 361.558 147.091 361.662 146.851C361.771 146.607 361.924 146.393 362.12 146.21C362.316 146.027 362.551 145.886 362.826 145.786C363.1 145.681 363.407 145.629 363.747 145.629C364.231 145.629 364.642 145.722 364.982 145.91C365.322 146.097 365.581 146.354 365.76 146.681C365.943 147.003 366.034 147.367 366.034 147.772H364.884C364.884 147.576 364.841 147.391 364.754 147.217C364.666 147.043 364.538 146.901 364.368 146.792C364.198 146.679 363.991 146.622 363.747 146.622C363.49 146.622 363.281 146.668 363.12 146.759C362.958 146.851 362.841 146.971 362.767 147.119C362.697 147.263 362.662 147.422 362.662 147.596C362.662 147.727 362.68 147.84 362.714 147.936C362.754 148.027 362.819 148.114 362.911 148.197C363.002 148.276 363.126 148.358 363.283 148.446C363.444 148.528 363.649 148.624 363.897 148.733C364.377 148.92 364.78 149.11 365.106 149.302C365.433 149.493 365.682 149.718 365.851 149.975C366.021 150.232 366.106 150.55 366.106 150.929C366.106 151.238 366.05 151.519 365.936 151.772C365.828 152.02 365.671 152.234 365.466 152.413C365.261 152.591 365.015 152.728 364.727 152.824C364.444 152.916 364.126 152.962 363.773 152.962C363.242 152.962 362.791 152.857 362.42 152.648C362.054 152.434 361.776 152.158 361.584 151.818C361.396 151.474 361.303 151.105 361.303 150.713H362.46C362.473 151.044 362.547 151.302 362.682 151.485C362.821 151.667 362.989 151.794 363.185 151.864C363.381 151.933 363.577 151.968 363.773 151.968C364.03 151.968 364.246 151.931 364.42 151.857C364.595 151.779 364.725 151.667 364.812 151.524C364.904 151.38 364.95 151.212 364.95 151.02Z" fill="#868686"/>
<path fill-rule="evenodd" clip-rule="evenodd" d="M276.552 149.889C276.538 151.728 275.047 153.216 273.208 153.216C271.368 153.216 269.877 151.728 269.863 149.889H269.862V144.022V143.183V142.345C269.862 140.956 270.985 139.831 272.371 139.831C273.757 139.831 274.881 140.956 274.881 142.345V143.183V144.022V146.962V148.018V149.889H274.878C274.864 150.803 274.123 151.539 273.208 151.539C272.293 151.539 271.552 150.803 271.537 149.889H271.535V149.051V148.018V146.962V145.698V144.714V143.763V143.183H272.371V143.996V144.86V146.62V147.525V148.42V149.051V149.889C272.371 150.352 272.746 150.727 273.208 150.727C273.67 150.727 274.044 150.352 274.044 149.889V148.42V147.525V146.62V145.698V144.216V144.022V143.183V142.345H274.042C274.043 142.337 274.044 142.328 274.044 142.32C274.044 141.393 273.295 140.643 272.371 140.643C271.447 140.643 270.698 141.393 270.698 142.32C270.698 142.328 270.7 142.337 270.7 142.345H270.698V143.183V144.022V144.216V145.698V147.65V149.889C270.698 151.278 271.822 152.404 273.208 152.404C274.594 152.404 275.717 151.278 275.717 149.889V147.65V142.345V141.507H276.554V142.345V149.889H276.552Z" fill="#4DA1FF"/>
</g>
<defs>
<filter id="filter0_d_1_63" x="0" y="0" width="442.015" height="264" filterUnits="userSpaceOnUse" color-interpolation-filters="sRGB">
<feFlood flood-opacity="0" result="BackgroundImageFix"/>
<feColorMatrix in="SourceAlpha" type="matrix" values="0 0 0 0 0 0 0 0 0 0 0 0 0 0 0 0 0 0 127 0" result="hardAlpha"/>
<feOffset dy="35"/>
<feGaussianBlur stdDeviation="22.5"/>
<feComposite in2="hardAlpha" operator="out"/>
<feColorMatrix type="matrix" values="0 0 0 0 0 0 0 0 0 0 0 0 0 0 0 0 0 0 0.12 0"/>
<feBlend mode="normal" in2="BackgroundImageFix" result="effect1_dropShadow_1_63"/>
<feBlend mode="normal" in="SourceGraphic" in2="effect1_dropShadow_1_63" result="shape"/>
</filter>
<clipPath id="clip0_1_63">
<rect width="352.015" height="174" fill="white" transform="translate(45 10)"/>
</clipPath>
<clipPath id="clip1_1_63">
<rect width="115.108" height="33.4615" fill="white" transform="translate(65.0769 130.461)"/>
</clipPath>
<clipPath id="clip2_1_63">
<rect width="32.1231" height="32.1231" fill="white" transform="translate(65.0769 130.461)"/>
</clipPath>
<clipPath id="clip3_1_63">
<rect width="33.4615" height="33.4615" fill="white" transform="translate(146.723 130.461)"/>
</clipPath>
<clipPath id="clip4_1_63">
<rect width="33.4615" height="33.4615" fill="white" transform="translate(106.569 130.461)"/>
</clipPath>
</defs>
</svg>
